<?xml version="1.0" encoding="utf-8"?>
<!-- Generator: Adobe Illustrator 17.0.0, SVG Export Plug-In . SVG Version: 6.00 Build 0)  -->
<!DOCTYPE svg PUBLIC "-//W3C//DTD SVG 1.1//EN" "http://www.w3.org/Graphics/SVG/1.1/DTD/svg11.dtd">
<svg version="1.1" id="Layer_1" xmlns="http://www.w3.org/2000/svg" xmlns:xlink="http://www.w3.org/1999/xlink" x="0px" y="0px"
	 width="184.534px" height="18px" viewBox="0 0 184.534 18" enable-background="new 0 0 184.534 18" xml:space="preserve">
<g>
	<path d="M120.433,0.211l-3.24,8.436l-0.163-0.372c0.185,0.417-2.999-7.454-11.712-7.92c-2.672-0.143-4.687-0.14-5.183-0.137
		c-0.081,0.218-6.461,17.33-6.63,17.781h8.171c0.081-0.225,5.036-14.093,5.036-14.093l0.146,0.029
		c4.308,0.85,6.928,7.766,6.928,13.897c0,0.056-0.001,0.111-0.001,0.167c0.329,0,7.476-0.007,7.702-0.007
		c0.083-0.218,6.556-17.328,6.727-17.781C127.751,0.211,120.433,0.211,120.433,0.211z M75.783,0c-0.79,0-9.039,0.211-9.039,0.211
		c-0.42,0.588-3.291,4.701-8.577,8.345c-7.006,4.83-10.638,4.903-10.789,4.904l-0.273,0.001c0,0,5.896-12.777,6.115-13.251h-9.375
		c-0.082,0.219-6.476,17.34-6.642,17.784c0.911,0.011,4.207,0.021,6.836-0.388c4.381-0.68,10.456-2.143,18.624-7.459
		C69.633,5.612,74.552,1.131,75.783,0z M31.615,0.604c-4.382,0.68-10.459,2.143-18.623,7.453C6.021,12.595,1.23,16.869,0,18h9.817
		c1.229-1.561,2.347-2.929,3.937-4.431c1.55-1.465,3.151-2.777,4.805-3.918c6.994-4.821,11.288-5.598,11.331-5.605l0.3-0.051
		l-3.614,9.363H14.146L18.836,18h14.96c0,0,6.479-17.336,6.646-17.783C39.319,0.206,34.339,0.18,31.615,0.604z M87.907,0.604
		c-4.383,0.68-10.459,2.143-18.623,7.453C62.312,12.595,57.522,16.869,56.292,18h9.817c1.229-1.561,2.347-2.929,3.937-4.431
		c1.551-1.465,3.151-2.777,4.806-3.918c6.994-4.821,11.289-5.598,11.331-5.605l0.3-0.051l-3.614,9.363H70.437L75.128,18h14.961
		c0,0,6.479-17.336,6.647-17.783C95.612,0.206,90.631,0.18,87.907,0.604z M175.706,0.581c-4.382,0.681-10.459,2.143-18.623,7.453
		c-2.744,1.786-5.148,3.53-7.132,5.059l-11.698-0.008l0.558-0.323l3.589-2.155c5.863-3.302,12.476-7.032,15.878-10.424h-27.58
		c-0.078,0.192-1.363,3.339-1.53,3.75c0.497,0,14.989,0.005,14.989,0.005l-0.511,0.319c-1.805,1.129-3.935,2.23-6.19,3.396
		c-5.532,2.86-11.778,6.12-13.756,10.346h30.208c1.229-1.561,2.347-2.952,3.937-4.454c1.551-1.465,3.151-2.777,4.806-3.918
		c6.994-4.821,11.288-5.598,11.331-5.605l0.3-0.051l-3.613,9.363h-12.433L162.927,18h14.96c0,0,6.48-17.359,6.647-17.806
		C183.411,0.183,178.43,0.158,175.706,0.581z"/>
</g>
</svg>
