<?xml version="1.0" encoding="utf-8"?>
<!-- Generator: Adobe Illustrator 17.0.0, SVG Export Plug-In . SVG Version: 6.00 Build 0)  -->
<!DOCTYPE svg PUBLIC "-//W3C//DTD SVG 1.1//EN" "http://www.w3.org/Graphics/SVG/1.1/DTD/svg11.dtd">
<svg version="1.1" id="Layer_1" xmlns="http://www.w3.org/2000/svg" xmlns:xlink="http://www.w3.org/1999/xlink" x="0px" y="0px"
	 width="443.4px" height="18px" viewBox="0 0 443.4 18" enable-background="new 0 0 443.4 18" xml:space="preserve">
<g>
	<path d="M7.388,0.783c7.084-0.025,14.168-0.038,21.253-0.038C35.54,0.746,42.437,0.756,49.335,0.78L49.335,0.78v3.555l0,0
		c-6.898-0.025-13.797-0.035-20.695-0.036c-6.05,0-12.1,0.009-18.149,0.028h0.001L9.566,4.361L9.16,4.424L8.66,4.6L8.385,4.789
		L8.192,5.023L8.077,5.289L8.034,5.481L7.996,5.897h0.001C7.939,7.025,7.911,8.155,7.911,9.285c0,1.129,0.028,2.258,0.086,3.388
		l-0.001-0.004l0.038,0.414l0.043,0.194l0.115,0.269l0.193,0.235L8.66,13.97l0.5,0.174l0.406,0.065l0.924,0.035h-0.001
		c6.05,0.017,12.101,0.026,18.152,0.026c6.899,0,13.796-0.012,20.694-0.035h-0.001v3.551l0,0
		c-6.898,0.025-13.797,0.036-20.694,0.036c-7.085,0-14.169-0.011-21.253-0.037l0.001,0.001l-1.84-0.039L4.684,17.67L3.5,17.46
		l-0.783-0.252L2.04,16.884l-0.568-0.399l-0.458-0.461L0.663,15.51L0.466,15.1l-0.146-0.432l-0.133-0.6l-0.051-0.411l-0.055-0.85
		l0.002-0.003C0.027,11.632,0,10.457,0,9.285c0-1.174,0.027-2.347,0.083-3.519L0.081,5.764l0.055-0.852l0.051-0.411l0.133-0.598
		l0.146-0.432L0.663,3.06l0.351-0.514l0.458-0.462L2.04,1.686l0.677-0.325L3.5,1.109l1.184-0.214l0.865-0.073l1.84-0.039
		L7.388,0.783z"/>
	<path d="M145.604,5.857L145.604,5.857l-0.035-1.192l-0.073-0.578l-0.226-0.83l-0.291-0.586l-0.407-0.539l-0.526-0.479l-0.65-0.411
		l-0.771-0.325l-0.65-0.184l-0.706-0.141l-1.018-0.111l-0.715-0.039l-1.485-0.021l0.001-0.001
		c-5.777-0.016-11.554-0.024-17.332-0.025c-7.895,0-13.67,0.015-17.331,0.025l-1.483,0.023l-0.714,0.039l-1.019,0.111l-0.706,0.141
		l-0.65,0.184l-0.77,0.325l-0.65,0.411l-0.526,0.479L96.466,2.67l-0.291,0.586l-0.227,0.83l-0.073,0.578l-0.034,1.192
		c-0.003,2.175-0.003,3.787-0.003,5.962c0,1.89,0.001,3.78,0.002,5.67l0.001,0.001h7.907v-0.001
		c-0.002-1.89-0.003-3.781-0.003-5.671c0-0.107,0-0.213,0-0.321h0.003h33.949h0.003c0,0.107,0,0.215,0,0.321
		c0,1.89-0.001,3.781-0.003,5.67l-0.001,0.003h7.907h0.001c0.002-1.892,0.003-3.781,0.003-5.671
		C145.608,9.832,145.606,7.845,145.604,5.857z M137.697,7.946h-33.949l-0.001-0.001c0-0.724,0-1.447,0.001-2.17v0.001l0.03-0.543
		l0.06-0.274l0.184-0.38l0.217-0.244l0.296-0.188l0.359-0.116l0.274-0.042l0.595-0.021l-0.001-0.001
		c4.986-0.012,9.973-0.018,14.961-0.018c4.987,0,9.974,0.006,14.961,0.018l-0.001,0.001l0.594,0.021l0.274,0.042l0.36,0.116
		l0.295,0.188l0.222,0.244l0.18,0.38l0.06,0.274l0.03,0.543C137.698,6.499,137.697,7.223,137.697,7.946z"/>
	<path d="M205.626,2.307l-1.548-0.727l-0.796-0.347l-1.245-0.483l-0.972-0.312l-1.005-0.245l-1.035-0.154L197.976,0l-1.053,0.112
		l-0.932,0.252l-0.458,0.188l-0.445,0.236l-0.646,0.449l-0.603,0.578l-0.557,0.714l-0.5,0.873l0.001-0.001
		c-0.004,2.713-0.006,5.426-0.006,8.139c0,2.039,0.001,4.079,0.003,6.119l0.001-0.001h7.881l-0.001,0.001
		c-0.002-2.042-0.004-4.08-0.004-6.122c0.001-1.562,0.001-3.125,0.002-4.688l0.002,0.001l0.012-0.514l0.035-0.243l0.098-0.338
		l0.12-0.21l0.167-0.163l0.21-0.103l0.249-0.042l0.393,0.051l0.295,0.089l0.642,0.287l0.002-0.002
		c5.004,2.393,10.004,4.794,15.002,7.201c4.998-2.407,9.998-4.807,15.002-7.201l-0.001,0.002l0.645-0.287l0.296-0.089l0.388-0.051
		l0.253,0.042l0.209,0.103l0.163,0.163l0.125,0.21l0.097,0.338l0.031,0.243l0.017,0.514V6.848c0.003,1.564,0.003,3.127,0.003,4.69
		c0,2.041,0,4.082-0.003,6.122v-0.001h7.881c0.003-2.04,0.003-4.079,0.003-6.12c0-2.711-0.001-5.424-0.006-8.136l0.003,0.001
		l-0.5-0.873l-0.555-0.714l-0.608-0.578l-0.641-0.449l-0.446-0.236l-0.457-0.188l-0.933-0.252L237.799,0l-1.047,0.039l-1.036,0.154
		l-1.006,0.245l-0.975,0.312l-1.241,0.483l-0.801,0.347l-1.544,0.727v0.001c-4.09,1.957-8.177,3.918-12.261,5.884l-0.001,0.001
		C213.801,6.226,209.716,4.264,205.626,2.307z"/>
	<path d="M339.576,12.04l-0.591-0.976l-0.334-0.457l-0.59-0.62l-0.548-0.385l-0.654-0.304l0.443-0.179l0.386-0.21l0.32-0.23
		l0.27-0.253l0.283-0.359l0.209-0.394l0.184-0.552l0.076-0.384l0.078-0.792c0.022-0.354,0.039-0.71,0.039-1.065
		c0-0.503-0.022-1.005-0.066-1.506l-0.122-0.753l-0.111-0.334l-0.249-0.432l-0.238-0.269l-0.269-0.227l-0.612-0.359l-0.694-0.253
		l-0.705-0.166l-0.956-0.129l-0.64-0.038l-1.292-0.02c-7.523-0.028-15.048-0.043-22.571-0.042c-7.209,0-14.421,0.015-21.631,0.041
		v17.004h7.907v-5.871c4.575-0.011,9.149-0.015,13.724-0.015c6.152,0,12.304,0.008,18.454,0.028l0.62,0.017l0.317,0.035l0.467,0.112
		l0.324,0.144l0.305,0.206l0.427,0.475l0.283,0.45c0.859,1.456,1.71,2.939,2.529,4.42h8.155
		C341.554,15.593,340.579,13.809,339.576,12.04z M331.197,6.842l-0.047,0.393l-0.064,0.197l-0.103,0.179l-0.15,0.15l-0.266,0.145
		l-0.217,0.056l-0.5,0.03c-5.609,0.015-11.216,0.024-16.825,0.024c-5.377,0-10.753-0.008-16.13-0.022l0.001-3.979
		C301.472,4.005,306.047,4,310.622,4c6.43-0.001,12.862,0.01,19.293,0.03l0.355,0.017l0.184,0.03l0.264,0.103l0.177,0.124
		l0.136,0.167l0.137,0.364l0.033,0.348c0.015,0.272,0.024,0.544,0.024,0.817C331.225,6.28,331.214,6.561,331.197,6.842z"/>
	<polygon points="443.4,0.848 429.769,0.848 413.429,6.59 397.086,0.848 383.459,0.848 409.476,9.991 409.476,18 417.379,18 
		417.379,9.991 	"/>
</g>
</svg>
