<?xml version="1.0" encoding="utf-8"?>
<!-- Generator: Adobe Illustrator 17.0.0, SVG Export Plug-In . SVG Version: 6.00 Build 0)  -->
<!DOCTYPE svg PUBLIC "-//W3C//DTD SVG 1.1//EN" "http://www.w3.org/Graphics/SVG/1.1/DTD/svg11.dtd">
<svg version="1.1" id="Layer_1" xmlns="http://www.w3.org/2000/svg" xmlns:xlink="http://www.w3.org/1999/xlink" x="0px" y="0px"
	 width="120.723px" height="18px" viewBox="0 0 120.723 18" enable-background="new 0 0 120.723 18" xml:space="preserve">
<g>
	<path fill-rule="evenodd" clip-rule="evenodd" d="M13.187,17.332c0,0.562-0.083,0.553-0.718,0.553c-0.875,0-11.563,0-12.07,0
		C0.03,17.885,0,17.587,0,17.203C0,15.637,0.039,5.328,0.039,4.794c0-0.459,0.246-0.522,0.385-0.621
		c0.138-0.098,7.668-3.957,7.915-4.065C8.583,0,8.82,0,9.106,0c0.423,0,18.153,0.02,18.349,0.02c0.198,0,0.375,0.059,0.375,0.404
		c0,0.344,0,2.5,0,2.599c0,0.167-0.098,0.305-0.305,0.305c-0.207,0-13.576,0-13.94,0c-0.148,0-0.324,0.089-0.324,0.335
		c0,0.246-0.01,1.969-0.01,2.077c0,0.108,0.029,0.158,0.177,0.158c0.147,0,12.63-0.01,12.886-0.01c0.256,0,0.414,0.187,0.414,0.492
		c0,0.305,0,3.573,0,3.741c0,0.167-0.099,0.345-0.325,0.345s-12.748,0-12.926,0c-0.236,0-0.265,0.148-0.265,0.443
		C13.211,11.202,13.187,16.549,13.187,17.332"/>
	<path fill-rule="evenodd" clip-rule="evenodd" d="M21.895,17.888c-0.401,0-0.506-0.095-0.527-0.528
		c-0.022-0.432-0.022-3.026-0.011-3.353c0.011-0.327,0.284-0.433,0.422-0.433c0.137,0,11.139,0,11.403,0
		c0.379,0,0.464-0.031,0.632-0.126c0.169-0.095,2.236-1.645,2.415-1.825c0.18-0.18,0.317-0.369,0.317-0.622
		c0-0.253-0.043-9.766-0.043-10.525c0-0.264,0.095-0.422,0.295-0.443c0.2-0.021,10.422,0,10.76-0.01
		c0.337-0.011,0.58,0.041,0.58,0.4c0,0.406,0.04,9.702,0.04,11.781c0,0.256,0.006,0.384-0.013,0.421
		c-0.066,0.131-0.302,0.327-0.649,0.612c-0.348,0.285-5.38,4.303-5.58,4.44c-0.2,0.137-0.464,0.211-0.834,0.2
		C40.734,17.867,22.295,17.888,21.895,17.888"/>
	<path fill-rule="evenodd" clip-rule="evenodd" d="M62.441,13.696c0.258,0,0.189,0.314,0.189,0.474c0,0.161,0.027,2.382-0.015,3.255
		c-0.011,0.239-0.049,0.42-0.251,0.42s-6.637,0.007-6.706,0.007c-0.07,0-0.559-0.091-0.853-0.3c-0.293-0.21-0.782-0.706-0.957-1.181
		c-0.175-0.475-0.265-0.713-0.307-1.628c-0.042-0.915-0.035-2.941-0.028-3.563c0.007-0.621,0.182-1.327,0.489-1.788
		c0.308-0.461,0.845-0.908,1.446-0.971c0.601-0.063,3.787-0.02,4.828-0.028c1.04-0.007,1.934,0,2.046,0
		c0.113,0,0.21,0.014,0.217,0.273c0.007,0.258,0.049,1.935,0.041,2.151c-0.007,0.217-0.104,0.58-0.174,0.615
		c-0.07,0.035-0.3,0.014-0.531,0.014s-3.933,0-4.067,0c-0.132,0-0.363,0.069-0.516,0.223c-0.153,0.154-0.245,0.273-0.245,0.657
		c0,0.384,0.077,0.789,0.188,0.935c0.112,0.147,0.273,0.371,0.608,0.412c0.336,0.042,0.594,0.035,0.594,0.035
		S62.183,13.696,62.441,13.696"/>
	<path fill-rule="evenodd" clip-rule="evenodd" d="M74.812,17.854c-0.196,0-3.091,0-3.183,0c-0.092,0-0.218-0.099-0.368-0.243
		c-0.152-0.145-2.075-1.852-2.25-2.026c-0.283-0.283-0.75-0.388-0.987-0.467c-0.237-0.079-0.467-0.066-0.467-0.066
		s-0.006,2.124-0.006,2.335c0,0.263-0.098,0.434-0.132,0.454c-0.032,0.02-0.118,0.013-0.217,0.013c-0.099,0-2.664,0-2.796,0
		c-0.131,0-0.237-0.053-0.237-0.21c0-0.158-0.02-2.033-0.033-2.921c-0.013-0.888-0.013-2.288,0.007-2.381
		c0.02-0.092,0.078-0.362,0.17-0.408c0.092-0.046,0.526-0.032,0.691-0.032c0.164,0,4.433,0,4.624,0c0.191,0,0.526-0.073,0.644-0.191
		c0.119-0.119,0.139-0.448,0.099-0.559c-0.04-0.113-0.231-0.402-0.547-0.467c0,0-0.131-0.02-0.335-0.02c-0.204,0-5.006,0-5.151,0
		c-0.145,0-0.243-0.046-0.243-0.145c0-0.099-0.046-1.348-0.026-1.604c0.02-0.257,0.053-0.474,0.158-0.514
		c0.105-0.039,0.947,0,0.947,0s5.867,0,6.196,0c0.329,0,0.987,0.105,1.27,0.211c0.282,0.104,0.63,0.388,0.907,0.96
		c0.276,0.572,0.236,1.262,0.224,1.553c-0.02,0.48-0.164,0.717-0.302,1.105c-0.138,0.388-0.608,1.285-0.928,1.71
		c-0.059,0.079-0.105,0.204-0.072,0.263c0.033,0.059,0.566,0.684,0.855,1.059c0.289,0.375,1.486,1.933,1.605,2.085
		c0.118,0.151,0.151,0.197,0.131,0.276c-0.02,0.079-0.052,0.205-0.098,0.217C74.918,17.854,75.01,17.854,74.812,17.854"/>
	<path fill-rule="evenodd" clip-rule="evenodd" d="M84.428,8.389c0.191,0,0.296,0.047,0.309,0.257
		c0.013,0.211,0.118,2.506,0.124,3.283c0.007,0.776,0.02,2.006-0.006,2.269c-0.027,0.263-0.185,0.812-0.506,1.414
		c-0.362,0.677-0.994,1.256-1.724,1.684c-0.731,0.427-1.388,0.553-1.671,0.605c-0.404,0.074-1.75,0.171-2.427,0.02
		c-0.677-0.152-1.394-0.382-1.901-0.698c-0.506-0.316-1.475-1.007-1.763-1.908c-0.105-0.328-0.263-0.757-0.283-1.25
		c-0.02-0.493-0.046-3.099-0.052-3.69c-0.007-0.592-0.02-1.585-0.02-1.658c0-0.072,0.093-0.275,0.159-0.315
		c0.065-0.039,0.21-0.026,0.21-0.026s2.558,0,2.65,0c0.092,0,0.224,0.033,0.237,0.145c0.012,0.112,0.011,0.284,0.039,0.684
		c0.02,0.283,0.118,3.486,0.125,3.868c0.006,0.381,0.112,1.111,0.369,1.348c0.256,0.237,0.808,0.507,1.045,0.54
		c0.237,0.032,0.929,0.013,1.165-0.066c0.237-0.079,0.672-0.241,0.908-0.612c0.028-0.045,0.046-0.231,0.066-0.421
		c0.015-0.152-0.033-4.236-0.033-4.558c0-0.323-0.02-0.533,0.013-0.652c0.033-0.119,0.066-0.256,0.191-0.256
		C81.778,8.396,84.237,8.389,84.428,8.389"/>
	<path fill-rule="evenodd" clip-rule="evenodd" d="M88.243,17.261c-0.002,0.136-0.01,0.332-0.085,0.447
		c-0.073,0.117-0.232,0.122-0.369,0.122c-0.137,0-1.871,0-1.939,0c-0.069,0-0.206-0.095-0.206-0.205s-0.031-2.114-0.053-3.252
		c-0.021-1.138-0.111-4.922-0.111-5.312c0-0.39,0.063-0.475,0.1-0.558c0.037-0.084,0.1-0.106,0.159-0.106c0.058,0,2.166,0,2.213,0
		c0.047,0,0.116,0.064,0.126,0.237c0.011,0.173,0.142,2.667,0.169,3.863C88.259,12.961,88.28,15.11,88.243,17.261"/>
	<path fill-rule="evenodd" clip-rule="evenodd" d="M97.323,17.807c-0.406,0-6.825,0.015-6.997,0.015
		c-0.172,0-0.182-0.026-0.19-0.132c-0.014-0.198-0.053-1.685-0.049-1.813c0.007-0.248,0.149-0.432,0.276-0.525
		c0,0,0.12-0.028,0.311-0.028c0.191,0,4.696,0,4.81-0.021c0.113-0.021,0.17-0.085,0.17-0.276c0-0.191-0.013-0.595-0.106-0.736
		c-0.092-0.142-0.227-0.206-0.362-0.206c-0.134,0-3.004,0.008-3.286-0.021c-0.256-0.026-0.773-0.262-1.169-0.686
		c-0.397-0.426-0.496-0.81-0.553-1.127c-0.092-0.51-0.085-1.467-0.05-1.835c0.046-0.474,0.391-1.19,0.68-1.488
		c0.29-0.297,0.659-0.474,1.063-0.517c0,0,0.433-0.028,0.744-0.021c0.312,0.007,6.368,0,6.517,0c0.149,0,0.219,0.057,0.226,0.304
		c0.007,0.248,0.078,1.552,0.071,1.665c-0.008,0.113-0.05,0.177-0.106,0.262c-0.057,0.084-0.121,0.212-0.17,0.219
		c-0.049,0.007-5.412,0-5.476,0c-0.063,0-0.177,0.05-0.191,0.099c-0.015,0.05-0.043,0.475,0.085,0.645
		c0.128,0.17,0.234,0.212,0.34,0.212c0.107,0,3.422,0,3.563,0c0.142,0,0.644,0.121,0.957,0.283c0.311,0.163,0.779,0.517,0.899,0.907
		c0.121,0.39,0.213,0.729,0.227,1.501c0.015,0.772-0.136,1.473-0.312,1.863c-0.227,0.502-0.63,0.965-1.105,1.218
		C97.821,17.739,97.659,17.807,97.323,17.807"/>
	<path fill-rule="evenodd" clip-rule="evenodd" d="M108.47,17.301c-0.005,0.198-0.093,0.36-0.133,0.408
		c-0.066,0.086-0.132,0.116-0.637,0.116c-0.403,0-6.914,0-7.046,0c-0.133,0-0.276-0.092-0.276-0.23c0-0.139-0.052-2.291-0.069-3.028
		c-0.017-0.736-0.144-5.595-0.132-5.743c0.011-0.15,0.069-0.276,0.161-0.346c0.092-0.069,0.161-0.081,0.356-0.081
		c0.196,0,7.068,0,7.227,0c0.163,0,0.287,0.104,0.287,0.207c0,0.104,0.093,1.577,0.093,1.681c0,0.104-0.093,0.264-0.15,0.346
		c-0.057,0.08-0.172,0.149-0.274,0.149c-0.101,0-4.204,0-4.204,0s-0.035-0.017-0.038,0.081c-0.003,0.098,0.012,0.742,0.02,0.788
		c0.009,0.047,0.055,0.09,0.112,0.095c0.058,0.006,3.866,0,3.924,0c0.062,0,0.159,0.04,0.164,0.179
		c0.004,0.138,0.004,0.84,0.008,1.154c0.009,0.44-0.017,0.536-0.146,0.74c-0.115,0.181-0.216,0.233-0.415,0.233
		c-0.204,0-3.537,0-3.537,0s-0.02,0.029-0.02,0.135c0,0.078,0,0.798,0,0.849c0,0.052,0.064,0.121,0.123,0.121c0.06,0,4.34,0,4.447,0
		c0.101,0,0.168,0.055,0.168,0.187C108.483,15.578,108.479,16.797,108.47,17.301"/>
	<path fill-rule="evenodd" clip-rule="evenodd" d="M112.84,15.085c0,0.104,0,2.275,0,2.343s-0.057,0.142-0.119,0.209
		c-0.062,0.068-0.204,0.172-0.296,0.172c-0.088,0-2.84,0-2.906,0c-0.071,0-0.15-0.099-0.15-0.19c0-0.093-0.128-4.945-0.119-5.062
		c0.004-0.117,0.017-0.197,0.066-0.283c0.048-0.086,0.238-0.308,0.274-0.35c0.04-0.044,0.199-0.044,0.261-0.044
		c0.062,0,4.587,0,4.768,0c0.177,0,0.478,0.001,0.633-0.067c0.186-0.081,0.203-0.166,0.203-0.381c0-0.29-0.151-0.517-0.292-0.627
		c-0.141-0.111-0.291-0.142-0.512-0.142c-0.226,0-5.127,0-5.25,0c-0.119,0-0.204-0.062-0.213-0.141
		c-0.013-0.08-0.04-1.686-0.04-1.778c0-0.092,0.044-0.141,0.111-0.227c0.071-0.086,0.15-0.123,0.23-0.13c0.08-0.005,6.613,0,6.878,0
		c0.261,0,1.092,0.068,1.491,0.283c0.402,0.215,0.968,0.842,1.053,1.692c0.088,0.849,0.009,1.377-0.411,2.159
		c-0.416,0.781-0.77,1.346-0.805,1.421c-0.036,0.074,0.004,0.246,0.067,0.326c0.062,0.079,2.202,2.761,2.339,2.946
		c0.133,0.184,0.212,0.289,0.163,0.369c-0.049,0.08-0.141,0.228-0.261,0.228c-0.124,0-3.091,0-3.211,0
		c-0.124,0-0.235-0.099-0.354-0.209c-0.115-0.111-1.482-1.304-1.88-1.685c-0.403-0.382-0.655-0.652-1.504-0.83
		C112.849,15.041,112.84,15.054,112.84,15.085"/>
</g>
</svg>
