<?xml version="1.0" encoding="utf-8"?>
<!-- Generator: Adobe Illustrator 17.0.0, SVG Export Plug-In . SVG Version: 6.00 Build 0)  -->
<!DOCTYPE svg PUBLIC "-//W3C//DTD SVG 1.1//EN" "http://www.w3.org/Graphics/SVG/1.1/DTD/svg11.dtd">
<svg version="1.1" id="Layer_1" xmlns="http://www.w3.org/2000/svg" xmlns:xlink="http://www.w3.org/1999/xlink" x="0px" y="0px"
	 width="345.009px" height="18px" viewBox="0 0 345.009 18" enable-background="new 0 0 345.009 18" xml:space="preserve">
<g>
	<path d="M78.419,0c0,0-22.459,0-25.173,0c-3.453,0-6.466,2.13-7.078,4.161c-0.406,1.348-1.551,5.145-2.516,8.35
		c-0.983,3.263,1.434,5.022,4.199,5.022c2.67,0,25.173,0,25.173,0c3.453,0,6.466-2.129,7.078-4.161
		c0.406-1.347,1.551-5.145,2.517-8.35C83.602,1.76,81.185,0,78.419,0z M69.774,4.198l-2.753,9.136
		c-0.115,0.38-0.534,0.691-0.931,0.691h-9.105c-0.397,0-0.629-0.311-0.514-0.691l2.75-9.134c0.115-0.381,0.534-0.692,0.931-0.692
		l9.108-0.002C69.658,3.507,69.889,3.818,69.774,4.198z"/>
	<polygon points="37.105,3.507 41.542,0 5.284,0 0,17.533 12.511,17.533 14.625,10.52 35.032,10.52 36.088,7.013 15.681,7.013 
		16.738,3.507 	"/>
	<path d="M199.266,7.984C199.544,7.094,201.672,0,201.672,0h12.461c0,0-2.311,7.798-3.082,10.227
		c-0.771,2.43-2.666,7.306-9.257,7.306c-7.663,0-29.382,0-29.382,0L177.694,0l12.428,0.004L185.9,14.023c1.693,0,3.642,0,5.978,0
		C194.213,14.023,197.564,13.427,199.266,7.984z"/>
	<polygon points="171.545,0 134.654,0 133.594,3.519 146.095,3.519 141.573,18 154.013,18 158.377,3.519 170.484,3.519 	"/>
	<polygon points="252.718,17.533 240.249,17.533 231.487,8.331 228.673,17.533 216.279,17.533 221.563,0 233.607,0 242.673,9.52 
		245.57,0 258.002,0 	"/>
	<path d="M274.792,10.52h20.529l1.057-3.506h-20.529l1.057-3.507h20.529L302.01,0c0,0-14.977,0-24.047,0c-0.967,0-1.866,0-2.673,0
		c-1.955,0-3.369,0-3.883,0c-3.453,0-6.466,2.13-7.077,4.161c-0.406,1.348-1.551,5.145-2.517,8.35
		c-0.983,3.263,1.434,5.022,4.199,5.022c0.547,0,2.012,0,3.995,0c0.812,0,1.713,0,2.672,0c8.125,0,20.529,0,20.529,0l4.576-3.507
		h-24.048L274.792,10.52z"/>
	<g>
		<path d="M333.888,9.832l11.121,7.701h-14.207l-10.986-7.647l0.804-2.872h9.137l1.057-3.507h-11.553l-4.293,14.031l-11.999-0.005
			L308.253,0c0,0,20.065,0,27.975,0c1.73,0,3.969,0.061,5.189,0.425c1.221,0.364,2.557,1.284,2.557,3.184
			c0,1.724-1.232,4.527-4.926,5.723C338.554,9.492,337.113,9.832,333.888,9.832z"/>
	</g>
	<g>
		<path d="M117.954,9.832l11.122,7.701h-14.207l-10.986-7.647l0.804-2.872h9.137l1.056-3.507h-11.552l-4.294,14.031l-11.998-0.005
			L92.32,0c0,0,20.065,0,27.975,0c1.729,0,3.969,0.061,5.189,0.425c1.22,0.364,2.557,1.284,2.557,3.184
			c0,1.724-1.231,4.527-4.926,5.723C122.621,9.492,121.18,9.832,117.954,9.832z"/>
	</g>
</g>
</svg>
