<?xml version="1.0" encoding="utf-8"?>
<!-- Generator: Adobe Illustrator 17.0.0, SVG Export Plug-In . SVG Version: 6.00 Build 0)  -->
<!DOCTYPE svg PUBLIC "-//W3C//DTD SVG 1.1//EN" "http://www.w3.org/Graphics/SVG/1.1/DTD/svg11.dtd">
<svg version="1.1" id="Layer_1" xmlns="http://www.w3.org/2000/svg" xmlns:xlink="http://www.w3.org/1999/xlink" x="0px" y="0px"
	 width="116.785px" height="18px" viewBox="0 0 116.785 18" enable-background="new 0 0 116.785 18" xml:space="preserve">
<g>
	<path d="M5.896,17.204c-0.019,0.207-0.148,0.313-0.419,0.322H0.449C0.166,17.517,0.015,17.389,0,17.145V0.739
		c0-0.261,0.088-0.453,0.441-0.453l4.988,0c0.321,0,0.475,0.119,0.475,0.44L5.896,17.204z M46.155,0.304
		c-0.2,0-0.318,0.14-0.318,0.394l0.021,8.91c0.012,0.28-0.257,0.442-0.492,0.232l-8.853-9.343c-0.264-0.239-0.382-0.197-0.792-0.197
		h-3.704c-0.257,0-0.328,0.185-0.325,0.397L31.7,17.177c0,0.2,0.147,0.342,0.347,0.342h4.882c0.2,0,0.406-0.139,0.406-0.38
		l0.03-8.374c0-0.489,0.328-0.41,0.513-0.211l8.016,8.641c0.157,0.169,0.301,0.324,0.6,0.324h4.518
		c0.297-0.003,0.366-0.152,0.387-0.354l0.01-16.544c-0.033-0.283-0.227-0.318-0.485-0.318H46.155z M75.054,8.962
		c0,1.205-0.076,4.134-0.619,5.688c-0.376,1.076-1.163,1.634-2.052,2.112C70.188,17.944,66.295,18,64.448,18
		c-1.847,0-5.484-0.072-7.68-1.253c-0.739-0.397-1.685-1.142-2.037-2.127c-0.441-1.234-0.603-4.423-0.603-5.628
		c0-1.205,0.102-4.198,0.543-5.432c0.383-1.073,1.056-1.811,2.022-2.308C58.992,0.067,62.464,0,64.312,0
		c1.847,0,5.771-0.035,7.966,1.147c0.889,0.478,1.82,1.1,2.203,2.173C74.922,4.553,75.054,7.757,75.054,8.962z M68.858,8.973
		c0-0.687-0.041-2.795-0.383-3.669c-0.256-0.655-0.725-1.077-1.28-1.326c-0.854-0.384-2.21-0.303-2.755-0.303
		c-0.545,0-1.914-0.022-2.768,0.362c-0.556,0.249-0.913,0.665-1.17,1.32c-0.342,0.874-0.375,2.9-0.375,3.587
		c0,0.687,0.041,2.902,0.383,3.776c0.257,0.655,0.622,1.093,1.177,1.343c0.854,0.384,2.208,0.347,2.753,0.347
		c0.545,0,2.043,0.006,2.897-0.377c0.555-0.249,0.913-0.688,1.169-1.343C68.847,11.815,68.858,9.66,68.858,8.973z M94.182,0.106
		c-0.202,0-0.473,0.126-0.602,0.281l-9.359,11.186c-0.13,0.154-0.438,0.066-0.438-0.136l0.084-10.923
		c0-0.202-0.221-0.347-0.422-0.347l-5.26-0.002c-0.202,0-0.367,0.165-0.367,0.366l0.001,16.639c0,0.202,0.165,0.366,0.367,0.366
		h8.337c0.299,0,0.56-0.055,0.738-0.269c0,0,13.471-16.387,13.678-16.636c0.185-0.222,0.128-0.527-0.148-0.527H94.182z
		 M109.644,14.186c-0.082-0.311-0.256-0.377-0.543-0.377l-8.248,0.003c-0.262-0.003-0.414,0.106-0.605,0.325l-2.773,3.191
		c-0.168,0.192-0.387,0.264-0.588,0.264l-6.368,0.016c-0.202,0-0.38-0.223-0.121-0.52c0.145-0.166,14.443-16.673,14.443-16.673
		c0.161-0.186,0.3-0.255,0.585-0.255l6.255,0.014c0.382-0.017,0.51,0.08,0.611,0.37c0,0,4.417,16.501,4.473,16.703
		c0.092,0.328-0.132,0.484-0.428,0.487h-5.351c-0.202,0-0.409-0.159-0.461-0.354C110.524,17.379,109.726,14.498,109.644,14.186z
		 M108.239,10.582c0.305,0,0.369-0.212,0.323-0.385l-1.018-3.915c-0.091-0.337-0.364-0.287-0.538-0.085l-3.369,3.941
		c-0.127,0.139-0.059,0.45,0.167,0.45L108.239,10.582z"/>
	<path d="M9.109,0.688l0.008,16.473c0,0.199,0.147,0.342,0.347,0.342h4.882c0.2,0,0.406-0.138,0.406-0.38l0.03-8.374
		c0-0.489,0.328-0.411,0.513-0.211l8.016,8.641c0.157,0.169,0.301,0.324,0.6,0.324h4.518c0.297-0.003,0.366-0.152,0.387-0.354
		l0.01-16.544c-0.033-0.283-0.227-0.318-0.486-0.318h-4.77c-0.2,0-0.316,0.14-0.315,0.403l0.018,8.902
		c0.012,0.28-0.257,0.443-0.492,0.232l-8.853-9.337c-0.264-0.238-0.382-0.196-0.792-0.196H9.435c-0.257,0-0.328,0.18-0.325,0.392"/>
</g>
</svg>
