<?xml version="1.0" encoding="utf-8"?>
<!-- Generator: Adobe Illustrator 17.0.0, SVG Export Plug-In . SVG Version: 6.00 Build 0)  -->
<!DOCTYPE svg PUBLIC "-//W3C//DTD SVG 1.1//EN" "http://www.w3.org/Graphics/SVG/1.1/DTD/svg11.dtd">
<svg version="1.1" id="Layer_1" xmlns="http://www.w3.org/2000/svg" xmlns:xlink="http://www.w3.org/1999/xlink" x="0px" y="0px"
	 width="261.259px" height="18px" viewBox="0 0 261.259 18" enable-background="new 0 0 261.259 18" xml:space="preserve">
<g>
	<path d="M173.223,10.787V0.642h5.629c0,0,0.005,9.754-0.003,11.332c-0.007,1.269-0.046,2.324-0.419,3.139
		c-0.698,1.525-2.116,2.341-3.703,2.658c-0.467,0.093-0.928,0.134-1.416,0.148c-0.709,0.02-1.235,0.055-3.375,0.063
		c-1.066,0.004-2.069-0.02-3.138-0.02c-0.435,0-2.516-0.038-3.042-0.091c-0.542-0.055-1.026-0.147-1.544-0.293
		c-0.692-0.195-2.078-0.867-2.761-2.181c-0.19-0.365-0.379-0.84-0.465-1.373c-0.141-0.889-0.101-1.922-0.113-2.778
		c-0.009-0.715,0.014-8.671-0.001-10.604h5.618l0.009,10.145c-0.021,0.934,0.084,1.467,0.333,1.819
		c0.283,0.411,0.743,0.46,1.265,0.511c0.258,0.026,1.38,0.076,2.588,0.075c0,0,1.564,0.001,2.56-0.048
		c0.996-0.049,1.939-0.128,1.978-1.553V10.787z"/>
	<path d="M127.669,17.082c1.486-0.739,2.81-2.231,2.492-6.92h-5.544c0,0,0.032,0.313-0.056,1.494
		c-0.042,0.537-0.279,0.872-0.553,1.066c-0.351,0.247-0.81,0.269-1.231,0.294c-0.401,0.023-1.246,0.091-2.009,0.121
		c-0.653,0.027-1.247,0.02-1.451,0.012c-1.278-0.048-2.879,0.042-3.909-0.219c-0.259-0.066-0.455-0.198-0.584-0.382
		c-0.195-0.278-0.253-0.678-0.279-1.142c-0.043-0.701-0.065-1.477-0.082-1.972c-0.012-0.293-0.001-0.815,0.014-1.366
		c0.023-0.838,0.076-1.778,0.218-2.35c0.143-0.584,0.686-0.819,1.314-0.885c0.625-0.066,1.382-0.092,1.703-0.104
		c0.432-0.016,1.631-0.036,2.703-0.02c1.034,0.016,1.952,0.064,1.952,0.064c0.783,0.061,1.395,0.123,1.757,0.485
		c0.355,0.356,0.505,1.011,0.547,2.027h5.392c-0.047-0.69-0.073-1.494-0.176-2.294c-0.066-0.515-0.159-1.03-0.335-1.511
		c-0.483-1.318-1.48-2.343-3.076-2.907c-0.666-0.235-1.438-0.38-2.32-0.449c-0.282-0.021-1.694-0.117-3.322-0.124
		c-2.079-0.009-4.509,0.096-5.386,0.151c-0.802,0.048-2.119,0.181-3.321,0.795c-0.791,0.404-1.191,0.753-1.757,1.49
		c-0.86,1.118-1.169,3.058-1.223,5.37c-0.015,0.626-0.034,1.318-0.016,1.99c0.027,1.056,0.109,2.062,0.166,2.685
		c0.224,2.398,1.382,5.044,5.328,5.373c1.539,0.129,3.217,0.148,4.809,0.147c2.423-0.003,4.648-0.085,5.88-0.265
		C125.751,17.673,126.727,17.551,127.669,17.082"/>
	<rect x="184.127" y="0.49" width="5.342" height="17.184"/>
	<polygon points="218.962,17.809 218.962,0.445 236.21,0.445 236.21,4.734 224.253,4.734 224.253,7.126 235.77,7.126 235.77,11.092 
		224.253,11.092 224.253,13.524 236.391,13.524 236.391,17.809 	"/>
	<path d="M85.227,10.804c-0.109,1.103-0.414,1.818-0.96,2.194c-0.615,0.421-1.776,0.412-3.062,0.427h-5.201v-8.74h6.251
		c0.32,0.016,0.623,0.014,0.905,0.02c1.173,0.025,1.969,0.206,2.092,2.618c0.02,0.383,0.062,1.053,0.057,1.734
		C85.304,9.816,85.249,10.58,85.227,10.804 M90.652,7.51c-0.052-1.991-0.36-3.812-1.501-5.172c-0.582-0.695-1.345-1.243-2.453-1.609
		c-1.111-0.367-2.469-0.463-4.327-0.463H70.819V17.85h11.45c2.483,0,4.041-0.098,5.327-0.845c0.811-0.472,1.434-1.096,1.899-1.863
		c0.777-1.278,1.117-2.929,1.173-4.745C90.705,9.207,90.69,8.93,90.652,7.51"/>
	<path d="M29.296,9.929l2.44-4.743l2.486,4.743H29.296z M34.654,0.215h-5.876l-9.224,17.381h6.105l1.825-3.517h8.468l1.709,3.517
		h5.921L34.654,0.215z"/>
	<path d="M147.948,7.657c-0.3,0.016-0.407,0.016-0.407,0.016h-7.367V4.743h6.808h0.513c0,0,1.32-0.061,1.728,0.823
		C149.631,6.451,149.046,7.598,147.948,7.657 M154.444,14.155c0-1.821-0.402-3.013-0.819-3.626c-0.29-0.426-0.579-0.592-0.579-0.592
		c1.169-1.54,1.284-3.666,1.088-5.172c-0.109-0.716-0.314-1.329-0.473-1.677c-0.455-0.993-1.154-1.958-2.625-2.479
		c-0.764-0.272-1.759-0.343-3.056-0.331l-4.368-0.012l-8.743-0.005v17.495h5.305v-5.936c0,0,3.552-0.001,5.651,0.004
		c0.832,0.002,1.435,0.011,1.497,0.012c0.615,0.014,1.007,0.136,1.279,0.407c0.38,0.38,0.33,1.528,0.341,1.825
		c0.008,0.223,0.012,1.119,0.015,1.655c0.008,1.152,0,2.034,0,2.034h5.465C154.503,16.197,154.444,15.169,154.444,14.155"/>
	<path d="M254.741,7.867c-0.3,0.016-0.408,0.016-0.408,0.016h-7.367v-2.93h6.809h0.514c0,0,1.319-0.06,1.727,0.824
		C256.425,6.66,255.84,7.808,254.741,7.867 M261.238,14.365c0-1.821-0.401-3.013-0.819-3.627c-0.291-0.426-0.581-0.592-0.581-0.592
		c1.17-1.541,1.286-3.666,1.088-5.173c-0.107-0.714-0.311-1.329-0.471-1.676c-0.455-0.992-1.153-1.958-2.625-2.479
		c-0.763-0.271-1.758-0.342-3.057-0.331l-4.368-0.012l-8.742-0.005v17.495h5.303v-5.937c0,0,3.554,0,5.652,0.004
		c0.832,0.002,1.436,0.011,1.496,0.013c0.616,0.014,1.01,0.135,1.281,0.406c0.381,0.381,0.332,1.529,0.342,1.825
		c0.006,0.224,0.01,1.12,0.014,1.656c0.01,1.15,0,2.033,0,2.033h5.466C261.297,16.406,261.238,15.379,261.238,14.365"/>
	<polygon points="65.6,17.596 60.802,17.596 51.652,7.579 51.652,17.596 46.391,17.596 46.391,0.265 51.741,0.265 60.505,9.748 
		60.505,0.265 65.6,0.26 	"/>
	<polygon points="0,0.256 0,17.681 17.52,17.681 17.52,12.887 5.518,12.887 5.518,0.256 	"/>
	<path d="M203.527,13.396c1.475-0.006,3.563,0.052,4.429-0.028c1.15-0.106,1.523-0.491,1.531-1.221
		c0.009-0.745-0.993-1.009-1.649-1.054c-1.309-0.089-3.319-0.191-5.077-0.289c-1.106-0.06-2.111-0.114-2.78-0.185
		c-1.487-0.156-3.707-0.438-4.68-2.259c-0.353-0.656-0.541-1.452-0.614-2.197c-0.093-0.96-0.007-1.835,0.063-2.207
		c0.211-1.131,0.666-1.933,1.29-2.488c1.692-1.504,4.393-1.356,5.277-1.408c0.442-0.024,2.609-0.045,4.661-0.014
		c1.546,0.023,3.186,0.021,4.293,0.368c0.463,0.145,0.861,0.313,1.201,0.532c2.131,1.372,2.025,3.998,2.095,5.208l-4.418-0.029
		c-0.109-0.67-0.192-1.531-1.85-1.582c-0.329-0.01-0.78-0.031-1.297-0.041c-2.066-0.044-5.194-0.057-5.793,0.083
		c-0.642,0.151-0.751,0.478-0.751,0.839c0,0.475,0.245,0.838,0.952,0.902c1.83,0.164,5.778,0.372,6.651,0.421
		c1.47,0.08,3.084,0.142,4.479,0.774c0.543,0.245,0.993,0.591,1.375,1.021c0.473,0.53,0.8,1.239,0.983,2.073
		c0.168,0.757,0.222,1.71,0.142,2.641c-0.161,1.89-1.229,3.646-3.637,4.304c-0.714,0.194-1.725,0.331-2.5,0.357
		c-0.835,0.028-1.961,0.064-3.768,0.037c-1.223-0.019-3.842-0.064-4.611-0.122c-0.97-0.073-1.779-0.265-2.409-0.555
		c-1.893-0.874-2.431-2.567-2.578-4.038c-0.105-1.049-0.074-1.806-0.074-1.806l4.968,0.037c0.005,0.27-0.044,1.831,1.23,1.855
		C202.055,13.397,203.527,13.396,203.527,13.396"/>
</g>
</svg>
