<?xml version="1.0" encoding="utf-8"?>
<!-- Generator: Adobe Illustrator 23.0.3, SVG Export Plug-In . SVG Version: 6.00 Build 0)  -->
<svg version="1.1" id="Layer_1" xmlns="http://www.w3.org/2000/svg" xmlns:xlink="http://www.w3.org/1999/xlink" x="0px" y="0px"
	 viewBox="0 0 399 75" style="enable-background:new 0 0 399 75;" xml:space="preserve">
<style type="text/css">
	.st0{fill:#FFFFFF;}
	.st1{fill:#ED1C24;}
</style>
<g>
	<g>
		<g>
			<polygon class="st0" points="11.5,4.9 0,50.8 83.1,50.8 94.7,4.9 			"/>
			<polygon class="st1" points="52.7,6.1 52.5,6.1 41.6,49.6 81.8,49.6 92.7,6.1 			"/>
			<polygon points="12.8,6.1 1.8,49.6 41.6,49.6 52.5,6.1 			"/>
			<path class="st0" d="M84,29.7c-0.3,1.8-0.7,2.8-1.3,4c-1.1,2.2-3.3,3.4-6.4,3.8c-1.2,0.2-2.9,0.1-2.9,0.1l6.5,9.2h-9.7l-9-12.9
				c0,0,7.9,0,8.7,0c1.9,0,4.4-0.6,5.1-1.9c0.2-0.4,0.5-1.1,0.5-1.8c0-0.9-0.8-1.6-2.3-1.6c-1.5,0-14.2,0-14.2,0l-4.5,17.9h-9.1
				l5.7-22.3c0,0,21.7,0,26.2,0C82.3,24.3,84.6,26.8,84,29.7"/>
			<path class="st0" d="M42.2,33.5l-15,0l-1.4,4.2h7.5L32,41.8H20c-2.6,0-3.7-0.6-3.5-2.5c0.3-2.1,1.1-3.9,1.8-5.8
				c1.4-3.9,3.5-4.9,12.3-4.9h13l1.4-4.4c0,0-12.4,0-15.7,0c-12.8,0-17.1,1.5-19.6,7.7c-0.8,2.1-2.1,6-2.6,9.3
				c-0.7,3.8,2.3,5.3,5.4,5.4c4.3,0.1,26,0.1,26,0.1L42.2,33.5z"/>
		</g>
		<path d="M396.7,33.9c-5,0.3-20.4,1.6-28.4,1.4c-6.3-0.1-12,0.4-12.1-3.9c-0.1-2.5,3-4.6,4.1-6.7c0.5-0.9,0.2-1.5-0.9-1.1
			c-3.2,1.4-5.5,2.3-6.2,2.7c-0.8,0.4-0.7-0.1-0.7-1.1c-0.2-5.1-6.6-7.3-13.3-6.6c-6.2,0.7-13.3,3.1-20.3,6.9
			c-1,0.5-0.9,0.1-1.3-0.5c-0.6-1-1.2-1.6-1.6-1.9c-1-0.7-1.5-0.8-3.2,0c-3.4,1.7-9.1,4-11.2,4c-0.7,0-0.7-0.2-0.7-1.5
			c0-1.8-1.1-2.3-2.3-2.4c-0.7-0.1-1.7,0.4-3,1.1c-4.8,2.8-14,7.7-17.5,8.9c-0.9,0.3-0.5-0.2-0.1-0.7c3.1-4.4,3.3-10.6-5.4-9.6
			c-6.6,0.8-13.6,2.1-21.3,5.3c-1.1,0.4-1.3,0.3-1.7-0.3c-0.4-0.6-0.6-0.7-0.9-1.1c-0.4-0.5-1.5-0.5-2.3-0.2
			c-3.8,1.2-10.6,5.3-13.9,7.7c-2.5,1.8-3.6,0.6-3.8-0.4c-1-4.9-1.8-10-7.9-10.4c-3,7.9-9.1,11.9-15.6,12.6c-2.2,0.3-3-1.1-4-4.9
			c-1.7-5.9-3.1-6-4.3-6.1c-1.9,3.3-5.9,7.4-7.7,8.9c-0.4,0.4-0.8,0.2-1-0.3c-2.7-4.6-17.1-10.1-38.9-17c-2.7-0.8-3.6-1.7-2.9-2.6
			c0.9-1,3.6-0.7,4.8-0.6c7.6,0.7,16.9,2.8,23.1,4.6c1.8,0.5,5.1,1.8,6.7,2.1c2,0.4,1.8-0.7,1.2-1.5c-1.8-2.2-5.4-4.9-7.7-5.3
			c-1.4-0.3-3.1-0.3-5.8-0.9c-4.1-0.8-19.2-3.3-25.7-3.7c-2.8-0.2-9.2-0.4-10.5,2.7c-1,2.2,0.3,3.7,5.3,5.7c8.5,3.3,13.9,5.4,20,8.4
			c5.8,2.8,5.8,5.9,2.9,7c-1.5,0.6-3.9,0.9-9.6,1.1c-15.8,0.4-30.6,0.6-48.3,0.5c-1.6,0-1.6,1-0.7,1.9c1.6,1.7,4.5,2.4,8.8,3
			c6.7,0.9,10,2,14.2,5.2c1,0.8,2,1,3.4,1.1c4.8,0.1,8.3,0.2,16.6,0.2c30,0.1,40.1-1.5,44.5-7.2c0.9-0.5,1.5-0.7,2.8-1.3
			c0.7-0.3,0.8,0,0.9,1c0.4,5.7,3.8,7.3,8.1,7.3c3,0,8.7-1,15.9-3.7c0.7-0.3,1-0.1,1.6,0.4c0.7,0.6,3.2,2,4.9,2
			c1.9,0.1,4.1-3.4,10.6-7.1c1.2-0.7,1.2-0.7,0.9,0.2c-0.5,1.3-1.8,5.2-1.8,10.1c0,5.6,1.8,15.4,8.4,22.4c0.8,0.8,1.6,0.9,1.5-0.3
			c-0.1-1.2,0-8.3,0.2-10.2c0.1-0.6,0.1-1.2-0.2-2.1c-1-2.9-1.3-10.7,1.4-14.5c0.2-0.3,0.5-0.4,1.4-0.1c4,1.5,9,3.2,12.8,3.2
			c5,0,8.6-2.3,16.4-7.5c1.3-0.8,2.7-1.3,5.6-2.7c0.9-0.4,1.2-0.3,0.9,0.2c-1.4,2.1-2,6.2-1.7,9.2c0.1,1,1.1,1.9,1.8,1.4
			c3.8-2.6,8.2-4.3,10.1-5c0.8-0.3,0.9-1.3,1.1-1.8c1.4-5.6,7.1-8.3,14-7.4c1,0.1,1.4,0.1,0.4,0.8c-2.2,1.7-3.9,4.5-3.9,5.8
			c0,3.3,3.2,5.9,10.1,6.1c9.7,0.2,21.3-3,32-9.5c1.1-0.7,1-0.5,0.6,0.6c-0.2,0.9-0.9,3.8,1.6,5.4c3.6,2.4,12.4,3.5,24.2,3.4
			c2.9,0,3.9-0.4,5.5-1.7c5.1-3.9,6.8-4.4,12.5-5.1c3-0.3,6.5-0.9,8-2.3C400,33.7,398.7,33.7,396.7,33.9z M267.1,34.9
			c-1.9,1.6-4.9,3.2-9,3.3c-2.2,0.1-6.8-0.8-8.7-1.2c-0.6-0.1-0.3-0.6,0.4-1.1c3.9-2.8,13.7-5.1,17.6-5.2c1.4,0,2.1,0.3,2,1.2
			C269.4,32.7,268.2,34,267.1,34.9z M344,29.5c-0.2,0.4-0.2,0.5-0.8,0.8c-5.8,2.8-19.9,6.4-23.3,6c-0.8-0.1-1.4-0.3-1.4-0.5
			c0.5-3.3,11.8-9.1,18-10.8C343.9,22.8,345.1,27.2,344,29.5z"/>
	</g>
</g>
</svg>
