<?xml version="1.0" encoding="utf-8"?>
<!-- Generator: Adobe Illustrator 17.0.0, SVG Export Plug-In . SVG Version: 6.00 Build 0)  -->
<!DOCTYPE svg PUBLIC "-//W3C//DTD SVG 1.1//EN" "http://www.w3.org/Graphics/SVG/1.1/DTD/svg11.dtd">
<svg version="1.1" id="Layer_1" xmlns="http://www.w3.org/2000/svg" xmlns:xlink="http://www.w3.org/1999/xlink" x="0px" y="0px"
	 width="145.457px" height="18px" viewBox="0 0 145.457 18" enable-background="new 0 0 145.457 18" xml:space="preserve">
<g>
	<g>
		<path d="M29.434,16.319c0.764,0,1.238-0.058,1.238-0.746c0-1.012-0.754-1.109-1.91-1.213c-1.682-0.151-2.566-0.833-2.566-2.291
			V11.64c0-1.163,0.764-1.952,2.129-1.952h1.915c1.073,0,2.03,0.8,2.03,1.952c0,0,0,0.162,0,0.324c-0.397,0-1.45,0-1.816,0
			c0-0.525-0.031-0.645-0.854-0.645h-0.517c-0.601,0-1.083,0.049-1.083,0.62c0,0.641,0.037,0.939,1.38,1.091
			c2.123,0.245,3.059,0.798,3.059,2.099v0.919c0,1.322-1.067,1.952-2.111,1.952h-2.022c-1.142,0-2.111-0.87-2.111-1.952
			c0,0,0-0.294,0-0.44c0.408,0,1.47,0,1.805,0c0,0.58,0.299,0.711,0.864,0.711H29.434z"/>
	</g>
	<g>
		<path d="M21.621,9.821c0,0.63,0,5.877,0,5.877c0,1.52-0.544,2.232-1.454,2.232h-3.208c-0.91,0-1.453-0.712-1.453-2.232
			c0,0,0-5.248,0-5.877c0.371,0,1.227,0,1.597,0c0,0.629,0,5.404,0,5.404c0,0.777,0.292,1.074,0.868,1.074h1.154
			c0.575,0,0.866-0.297,0.866-1.074c0,0,0-4.775,0-5.404C20.359,9.821,21.25,9.821,21.621,9.821z"/>
	</g>
	<polygon points="0.634,8.047 0.634,0 2.317,0 2.317,6.387 5.796,6.387 5.796,8.047 	"/>
	<polygon points="19.292,8.047 16.548,3.484 16.548,8.047 14.852,8.047 14.852,0.003 16.463,0.003 19.241,4.712 19.241,0.003 
		20.861,0.003 20.861,8.047 	"/>
	<path d="M22.465,8.047V0.01h4.015v0.008c1.638,0.087,2.224,1.395,2.224,2.462c0,1.068,0,1.752,0,3.186
		c0,1.434-0.803,2.381-2.144,2.381H22.465z M26.256,6.346c0.247,0,0.412-0.121,0.506-0.222c0.169-0.18,0.263-0.447,0.248-0.698
		V2.634c0-0.292-0.072-0.905-0.871-0.97h-1.967v4.682H26.256z"/>
	<path d="M44.896,17.867c0,0-0.179-1.847-0.603-2.355c-0.2-0.239-0.524-0.348-0.883-0.348c-0.274,0-0.89-0.006-1.199,0.001v2.702
		h-1.662V9.821h3.318c2.414,0,2.674,1.515,2.674,2.167c0,0,0,0.54,0,0.989c0,0.949-0.68,1.425-1.123,1.578
		c0.302,0.267,0.608,0.714,0.77,1.158c0.262,0.716,0.382,2.153,0.382,2.153H44.896z M44.132,13.474c0.237,0,0.687-0.138,0.687-0.662
		v-0.593c0-0.537-0.416-0.711-0.671-0.731h-1.926v1.986H44.132z"/>
	<path d="M12.388,17.867c0,0-0.178-1.847-0.602-2.355c-0.2-0.239-0.524-0.348-0.883-0.348c-0.274,0-0.89-0.006-1.199,0.001v2.702
		H8.042V9.821h3.318c2.413,0,2.674,1.515,2.674,2.167c0,0,0,0.54,0,0.989c0,0.949-0.68,1.425-1.123,1.578
		c0.302,0.267,0.608,0.714,0.77,1.158c0.262,0.716,0.382,2.153,0.382,2.153H12.388z M11.625,13.474c0.237,0,0.687-0.138,0.687-0.662
		v-0.593c0-0.537-0.416-0.711-0.671-0.731H9.717v1.986H11.625z"/>
	<rect x="23.181" y="9.821" width="1.648" height="8.046"/>
	<path d="M12.194,8.047l-0.427-1.311H8.834l-0.43,1.311H6.721L9.334,0h1.933l2.611,8.047H12.194z M11.355,5.469L10.3,2.207
		L9.246,5.469H11.355z"/>
	<polygon points="33.692,17.867 33.692,9.821 38.989,9.821 38.989,11.44 35.317,11.44 35.317,12.99 38.839,12.99 38.839,14.653 
		35.317,14.653 35.317,16.204 38.989,16.204 38.989,17.867 	"/>
	<path d="M102.621,17.432h4.224L99.13,1.422h-4.519l-7.613,16.011h4.223l1.496-3.254h8.38L102.621,17.432z M94.075,11.228
		l2.794-6.053l2.846,6.053H94.075z"/>
	<path d="M145.451,6.935c-0.05-2.449-0.835-5.733-6.76-5.733c-0.057,0-4.448,0-4.505,0c-5.925,0-6.71,3.284-6.76,5.733
		c-0.01,0.473-0.01,4.512,0,4.986c0.05,2.449,0.835,5.733,6.76,5.733c0.057,0,4.448,0,4.505,0c5.926,0,6.71-3.284,6.76-5.733
		C145.461,11.447,145.461,7.408,145.451,6.935z M141.433,11.141c0,2.311-0.635,3.235-3.377,3.235h-3.235
		c-2.742,0-3.378-0.924-3.378-3.235c0-0.244,0-3.182,0-3.427c0-2.311,0.636-3.235,3.378-3.235h3.235
		c2.742,0,3.377,0.924,3.377,3.235C141.433,7.959,141.433,10.898,141.433,11.141z"/>
	<path d="M123.877,2.971c-0.991-1.028-2.436-1.549-4.293-1.549c0,0-9.921,0-11.152,0c0,1.218,0,14.793,0,16.01
		c1.231,0,11.152,0,11.152,0c1.857,0,3.302-0.521,4.293-1.549c0.948-0.982,1.448-2.429,1.448-4.185V7.155
		C125.325,5.399,124.825,3.952,123.877,2.971z M121.111,11.41c0,1.656-1.177,2.769-2.928,2.769h-5.754V4.753h5.754
		c1.751,0,2.928,1.113,2.928,2.769V11.41z"/>
	<path d="M84.616,13.442c-0.405-0.983-1.039-1.799-1.664-2.21c0.955-0.434,2.373-1.357,2.373-3.586c0-1.036,0-0.005,0-1.853
		c0-3.785-3.961-4.437-6.138-4.372H68.83v16.011h3.945v-5.277c1.011-0.001,4.846,0,5.488,0c0.774,0,1.446,0.238,1.844,0.729
		c1.024,1.264,1.24,4.548,1.24,4.548h4.134C85.481,17.433,85.232,14.94,84.616,13.442z M81.369,7.011c0,0.441-0.175,1.88-2.421,1.88
		h-6.173V4.432h6.173c2.247,0,2.421,1.439,2.421,1.881V7.011z"/>
	<path d="M65.63,2.566c-0.872-0.748-2.204-1.144-3.856-1.144c0,0-10.161,0-11.411,0c0,1.218,0,14.798,0,16.011h3.911
		c0-1.037,0-5.274,0-5.274h7.501c3.231,0,5.083-1.484,5.083-4.07V5.491C66.857,4.251,66.444,3.267,65.63,2.566z M62.868,7.159
		c0,0.466-0.175,1.989-2.421,1.989h-6.173V4.432h6.173c2.247,0,2.421,1.522,2.421,1.989V7.159z"/>
	<path d="M4.849,14.753v0.541c0,0.35-0.196,0.914-0.866,0.936c-0.289,0.017-1.119,0.017-1.408,0
		c-0.672-0.022-0.866-0.586-0.866-0.936V12.35c0-0.35,0.195-0.914,0.866-0.936c0.289-0.017,1.119-0.017,1.408,0
		c0.671,0.022,0.866,0.586,0.866,0.936v0.542h1.708v-0.617c0-2.284-1.518-2.49-2.171-2.532C4.105,9.725,3.69,9.716,3.278,9.714
		C2.866,9.716,2.452,9.725,2.173,9.742C1.518,9.784,0,9.99,0,12.274v3.096c0,2.285,1.518,2.49,2.173,2.532
		c0.28,0.017,0.694,0.026,1.106,0.028c0.412-0.002,0.826-0.011,1.107-0.028c0.654-0.042,2.171-0.248,2.171-2.532v-0.616H4.849z"/>
</g>
</svg>
