<?xml version="1.0" encoding="utf-8"?>
<!-- Generator: Adobe Illustrator 17.0.0, SVG Export Plug-In . SVG Version: 6.00 Build 0)  -->
<!DOCTYPE svg PUBLIC "-//W3C//DTD SVG 1.1//EN" "http://www.w3.org/Graphics/SVG/1.1/DTD/svg11.dtd">
<svg version="1.1" id="Layer_1" xmlns="http://www.w3.org/2000/svg" xmlns:xlink="http://www.w3.org/1999/xlink" x="0px" y="0px"
	 width="142.185px" height="18px" viewBox="0 0 142.185 18" enable-background="new 0 0 142.185 18" xml:space="preserve">
<g>
	<path d="M23.097,0.839c4.069,0,8.139,0.002,12.208-0.001c1.171-0.001,2.323,0.145,3.429,0.527c0.556,0.192,1.112,0.432,1.603,0.751
		c1.314,0.853,2.594,1.759,3.886,2.646c0.134,0.092,0.257,0.198,0.388,0.293c0.279,0.201,0.403,0.472,0.341,0.81
		c-0.061,0.328-0.319,0.452-0.606,0.522c-1.232,0.302-2.464,0.608-3.699,0.896c-3.3,0.769-6.601,1.529-9.902,2.294
		c-0.451,0.104-0.527,0.318-0.203,0.66c0.152,0.161,0.36,0.285,0.564,0.378c4.537,2.087,9.078,4.167,13.618,6.249
		c0.135,0.062,0.309,0.092,0.394,0.196c0.106,0.13,0.213,0.337,0.181,0.48c-0.031,0.143-0.224,0.261-0.365,0.365
		c-0.053,0.039-0.158,0.011-0.239,0.011c-3.704,0-7.409,0.002-11.113-0.005c-0.182,0-0.379-0.039-0.542-0.116
		c-5.236-2.475-10.469-4.954-15.697-7.445c-0.253-0.121-0.694-0.141-0.645-0.557c0.052-0.442,0.447-0.562,0.831-0.652
		c1.59-0.372,3.18-0.748,4.769-1.126c2.942-0.699,5.883-1.398,8.824-2.102c0.547-0.131,0.597-0.277,0.191-0.669
		c-0.709-0.685-1.518-1.13-2.558-1.117c-3.474,0.043-6.948,0.059-10.423,0.07c-0.322,0.001-0.499,0.096-0.662,0.38
		c-2.495,4.361-5.005,8.713-7.501,13.073C10.023,17.904,9.874,18.001,9.576,18c-2.907-0.013-5.813-0.007-8.72-0.008
		c-0.889,0-1.068-0.296-0.616-1.086c1.133-1.981,2.283-3.953,3.425-5.929c1.872-3.239,3.747-6.476,5.608-9.722
		c0.176-0.307,0.36-0.427,0.724-0.426C14.363,0.844,18.73,0.839,23.097,0.839z"/>
	<path d="M123.857,5.533c1.171-0.254,2.346-0.495,3.513-0.766c1.715-0.399,3.458-0.404,5.201-0.417c0.865-0.006,1.731,0.018,2.596,0
		c0.763-0.016,1.483,0.16,2.151,0.497c1.3,0.655,2.616,1.292,3.856,2.049c1.126,0.688,1.252,1.187,0.671,2.378
		c-1.201,2.463-2.462,4.897-3.704,7.34c-0.219,0.431-0.37,1.002-0.729,1.224c-0.344,0.214-0.917,0.065-1.389,0.066
		c-2.461,0.002-4.922,0.001-7.383,0.001c-0.538,0-0.682-0.188-0.487-0.703c0.133-0.352,0.312-0.689,0.499-1.017
		c1.052-1.841,2.118-3.674,3.165-5.518c0.198-0.349,0.371-0.725,0.481-1.11c0.199-0.697-0.063-1.226-0.754-1.435
		c-0.497-0.15-1.034-0.244-1.552-0.238c-2.487,0.027-4.974,0.101-7.461,0.147c-0.28,0.005-0.431,0.116-0.563,0.356
		c-1.676,3.039-3.367,6.071-5.038,9.113c-0.164,0.298-0.332,0.417-0.682,0.415c-2.596-0.017-5.192-0.009-7.788-0.009
		c-0.858,0-1.076-0.351-0.641-1.11c0.88-1.535,1.785-3.055,2.682-4.581c2.04-3.47,4.082-6.939,6.117-10.412
		c0.132-0.225,0.277-0.347,0.553-0.393c2.772-0.455,5.539-0.941,8.312-1.385c0.33-0.053,0.819-0.029,1.01,0.172
		c0.28,0.295-0.068,0.672-0.245,0.98c-0.813,1.416-1.636,2.825-2.456,4.237C123.816,5.453,123.837,5.493,123.857,5.533z"/>
	<path d="M89.693,17.905c-3.029,0-6.057,0.003-9.086-0.006c-0.22-0.001-0.455-0.056-0.657-0.146c-1.64-0.731-3.28-1.462-4.903-2.228
		c-0.3-0.141-0.582-0.399-0.774-0.671c-0.222-0.314-0.049-0.575,0.336-0.612c0.148-0.014,0.297-0.008,0.446-0.008
		c5.273,0,10.546,0,15.819-0.002c0.256,0,0.515-0.01,0.767-0.05c0.12-0.019,0.307-0.101,0.323-0.183
		c0.023-0.116-0.048-0.305-0.143-0.378c-0.308-0.237-0.624-0.481-0.974-0.64c-3.086-1.398-6.182-2.775-9.272-4.166
		c-0.293-0.132-0.595-0.277-0.834-0.484c-0.407-0.352-0.321-0.731,0.16-0.977c1.49-0.763,2.977-1.534,4.465-2.3
		c0.833-0.429,1.715-0.618,2.655-0.617C93.781,4.447,99.54,4.44,105.3,4.446c0.182,0,0.379,0.037,0.544,0.112
		c1.671,0.76,3.337,1.531,5.004,2.301c0.147,0.068,0.31,0.126,0.424,0.232c0.126,0.118,0.205,0.286,0.304,0.433
		c-0.142,0.087-0.274,0.214-0.427,0.251c-0.22,0.053-0.455,0.053-0.684,0.054c-3.867,0.018-7.733,0.03-11.6,0.051
		c-1.271,0.007-2.541,0.034-3.812,0.049c-0.268,0.003-0.532,0.018-0.613,0.337c-0.087,0.339,0.169,0.442,0.409,0.551
		c2.138,0.972,4.275,1.948,6.415,2.915c1.488,0.673,2.988,1.322,4.468,2.01c0.271,0.126,0.476,0.393,0.711,0.594
		c-0.213,0.224-0.386,0.525-0.645,0.66c-1.544,0.804-3.103,1.582-4.669,2.343c-0.825,0.401-1.715,0.565-2.633,0.565
		C95.561,17.905,92.627,17.905,89.693,17.905z"/>
	<path d="M61.663,16.95c-1.27,0.254-2.521,0.512-3.776,0.749c-0.383,0.072-0.776,0.12-1.165,0.122
		c-2.244,0.011-4.489-0.011-6.733,0.015c-0.775,0.009-1.472-0.205-2.126-0.564c-1.373-0.753-2.732-1.534-4.087-2.32
		c-0.502-0.291-0.722-1.258-0.478-1.998c0.063-0.19,0.161-0.372,0.267-0.543c1.211-1.951,2.423-3.902,3.651-5.842
		c0.1-0.158,0.307-0.305,0.489-0.346c3.134-0.708,6.271-1.403,9.41-2.085c0.194-0.042,0.544-0.01,0.6,0.099
		c0.089,0.176,0.067,0.49-0.037,0.669c-1.47,2.519-2.957,5.029-4.456,7.532c-0.222,0.371-0.475,0.724-0.244,1.157
		c0.263,0.496,0.693,0.782,1.267,0.821c0.067,0.005,0.135,0.002,0.203,0.002c2.893,0,5.787-0.004,8.68,0.007
		c0.278,0.001,0.429-0.085,0.567-0.327c1.702-2.979,3.417-5.949,5.12-8.928c0.136-0.238,0.284-0.331,0.565-0.33
		c2.582,0.012,5.165,0.007,7.747,0.007c0.828,0,1.042,0.353,0.627,1.091c-1.006,1.789-2.027,3.57-3.042,5.354
		c-1.189,2.089-2.382,4.176-3.56,6.272c-0.15,0.267-0.309,0.375-0.627,0.373c-2.677-0.015-5.354-0.022-8.031,0.001
		C61.784,17.947,61.526,17.861,61.663,16.95z"/>
</g>
</svg>
