<?xml version="1.0" encoding="utf-8"?>
<!-- Generator: Adobe Illustrator 17.0.0, SVG Export Plug-In . SVG Version: 6.00 Build 0)  -->
<!DOCTYPE svg PUBLIC "-//W3C//DTD SVG 1.1//EN" "http://www.w3.org/Graphics/SVG/1.1/DTD/svg11.dtd">
<svg version="1.1" id="Layer_1" xmlns="http://www.w3.org/2000/svg" xmlns:xlink="http://www.w3.org/1999/xlink" x="0px" y="0px"
	 width="101.175px" height="18px" viewBox="0 0 101.175 18" enable-background="new 0 0 101.175 18" xml:space="preserve">
<g>
	<g>
		<path d="M30.014,1.034l-9.135,1.323L20.81,2.406c-1.763,1.197-7.425,5.262-8.912,6.395c-0.204,0.154-0.524,0.397-0.932,0.702
			c-0.338-0.043-0.618-0.175-0.919-0.427C9.461,8.583,8.963,7.298,8.353,5.379C7.871,3.867,7.38,2.107,7.143,1.26L7.028,0.846H0.672
			l0.223,0.513C1.701,3.227,3.28,6.375,4.148,7.944c0.161,0.293,0.844,1.455,1.179,1.909c0.558,0.753,1.083,1.465,3.039,1.542
			c0.022,0.003,0.044,0.003,0.063,0.003l-0.186,0.141c-2.635,1.965-5.918,4.414-7.316,5.491L0,17.743l7.884-0.356l0.096-0.084
			c2.272-1.936,14.988-11.853,20.553-15.34L30.014,1.034z"/>
		<path d="M100.298,1.48C94.462,1.552,89.16,2.186,87.262,2.609c-1.505,0.339-2.607,0.697-3.568,1.165
			c-0.77,0.374-1.453,0.857-2.356,1.666c-1.004,0.898-1.494,1.781-1.729,2.362c-0.179,0.447-0.195,0.812-0.05,1.117
			c0.247,0.519,0.872,0.711,1.661,0.952l0.14,0.042c0.524,0.16,1.378,0.408,2.368,0.693c1.901,0.549,4.267,1.234,5.249,1.593
			c0.495,0.182,0.787,0.392,0.844,0.605c0.062,0.241-0.158,0.568-0.353,0.797l-0.029,0.033c-0.271,0.318-0.578,0.678-1.295,1.249
			c-0.783,0.618-1.471,0.892-4.777,0.93l-0.43,0.004c-9.981,0.111-16.048,0.173-17.081,0.173c-2.14,0-3.073-0.588-4.85-2.031
			c-0.483-0.394-2.754-2.49-3.931-3.665c0.916-0.081,1.633-0.163,2.33-0.241l0.205-0.021c1.247-0.14,2.63-0.385,3.447-0.613
			c2.172-0.603,2.894-1.184,3.473-1.654l0.102-0.081c0.502-0.403,1.08-0.984,1.409-1.418c0.559-0.736,0.921-1.331,1.176-1.928
			c0.317-0.747,0.351-1.323,0.109-1.767C68.973,1.935,68.16,1.8,67.567,1.705C66.935,1.6,65.89,1.58,65.126,1.58
			c-2.473,0-8.313,0.258-14.275,0.976l-0.185,0.023l-4.091,7.158l-5.403,0.627l5.483-8.971l-0.68,0.018
			c-1.388,0.04-6.387,0.452-8.487,0.867c-1.775,0.348-2.901,0.619-5.355,2.141c-1.31,0.814-4.098,2.716-5.526,3.719
			c-1.426,1.005-7.69,5.54-11.503,8.322L14.06,17.22l7.391-0.551l0.093-0.083c1.231-1.104,2.156-1.916,2.922-2.515l9.384-1.354
			l-3.255,4.66l6.423-0.215l3.027-4.953l5.49-0.657l-3.404,5.958l6.072-0.213l3.454-6.296c1.306,1.501,3.631,4.058,4.999,5.186
			c2.054,1.696,2.881,1.767,6.442,1.81C63.201,18,63.399,18,63.675,18c2.958,0,13.893-0.068,17.556-0.142l0.453-0.009
			c1.563-0.03,4.814-0.093,6.312-0.22c2.538-0.219,3.727-0.592,5.033-1.197c1.552-0.718,2.878-2.112,3.54-3.084
			c0.828-1.209,0.698-2.093-0.417-2.86c-0.348-0.238-1.048-0.527-1.589-0.71c-0.641-0.213-2.463-0.752-4.222-1.274
			c-1.514-0.45-2.941-0.871-3.51-1.056c-0.528-0.169-0.669-0.294-0.697-0.367c-0.017-0.047-0.024-0.195,0.232-0.599
			c0.343-0.538,0.783-0.968,1.339-1.303c0.49-0.299,1.366-0.735,3.287-1.063c1.481-0.25,4.228-0.434,6.534-0.434
			c0.497,0,0.947,0.009,1.34,0.027l0.168,0.008l2.141-2.25L100.298,1.48z M35.194,10.797l-7.822,1.052
			c2.149-1.682,4.777-3.614,6.603-4.962l0.04-0.027c1.418-1.046,2.038-1.435,3.114-2.077c0.967-0.574,1.404-0.727,2.076-0.876
			l0.066-0.013c0.31-0.066,0.583-0.127,0.875-0.178L35.194,10.797z M52.832,8.929l2.635-4.758c1.959-0.234,5.911-0.49,7.173-0.49
			c0.046,0,0.088,0,0.125,0c0.618,0.011,0.802,0.195,0.851,0.275c0.074,0.111,0.038,0.256-0.006,0.359
			c-0.458,1.055-1.21,2.001-2.232,2.809c-0.915,0.72-1.681,1.121-3.338,1.3C56.64,8.572,54.456,8.782,52.832,8.929z"/>
		<polygon points="72.261,15.143 77.888,4.643 72.224,5.7 66.967,15.209 		"/>
		<path d="M80.743,0l-0.792,0.097c-1.08,0.137-2.111,0.292-2.904,0.444c-1.274,0.239-2.172,0.49-3.031,1.737
			c-0.425,0.614-0.659,1.063-0.951,1.627l-0.414,0.797l5.705-1.051L80.743,0z"/>
	</g>
	<g>
		<path d="M0,17.743l7.884-0.356l0.096-0.084c2.272-1.936,14.988-11.853,20.553-15.34l1.48-0.93"/>
		<path d="M0.672,0.846"/>
		<polyline points="72.651,4.702 78.355,3.651 80.743,0 		"/>
	</g>
</g>
</svg>
