<svg xmlns="http://www.w3.org/2000/svg" xmlns:xlink="http://www.w3.org/1999/xlink" width="2rem" height="2rem" viewBox="0 0 32 32" class="aljMyCarLogoStyle">
  <defs>
    <clipPath id="clip-My_Car">
      <rect width="32" height="32"/>
    </clipPath>
  </defs>
  <g id="My_Car" data-name="My Car" clip-path="url(#clip-My_Car)">
    <rect width="32" height="32" fill="#fff"/>
    <g id="Group_2414" data-name="Group 2414" transform="translate(12532 4)">
      <path id="Path_3442" data-name="Path 3442" d="M-12530.052,7.244s4.344,3.175,14.216,3.02,12.032-1.982,13.863-3.02" fill="none" stroke="#000" stroke-linecap="round" stroke-width="1.2"/>
      <path id="Path_3443" data-name="Path 3443" d="M-12525,3.39c-.928,1.861-2.461,5.285-2.461,5.285s-1.994.156-2.491.792-.443.863-.487,1.724,0,3.547,0,3.547a3.248,3.248,0,0,0,2.3,2.5,7.208,7.208,0,0,0,2.8.255h20.58s2.307-.193,2.877-2.119a7.211,7.211,0,0,1,.266-.771V10.058s-.142-.625-1.319-1.068-1.568-.07-2.091-1.281-2.227-4.762-2.227-4.762a2.09,2.09,0,0,0-1.5-1.143c-1.164-.263-13.84,0-13.84,0A2.363,2.363,0,0,0-12525,3.39Z" fill="none" stroke="#000" stroke-width="1.2"/>
      <g id="Ellipse_172" data-name="Ellipse 172" transform="translate(-12528 11)" fill="none" stroke="#000" stroke-width="1">
        <circle cx="1.75" cy="1.75" r="1.75" stroke="none"/>
        <circle cx="1.75" cy="1.75" r="1.25" fill="none"/>
      </g>
      <g id="Ellipse_173" data-name="Ellipse 173" transform="translate(-12508 11)" fill="none" stroke="#000" stroke-width="1">
        <circle cx="1.75" cy="1.75" r="1.75" stroke="none"/>
        <circle cx="1.75" cy="1.75" r="1.25" fill="none"/>
      </g>
      <path id="Path_3444" data-name="Path 3444" d="M-12521,13.849h10.018" fill="none" stroke="#000" stroke-linecap="round" stroke-width="1.2"/>
      <path id="Path_3445" data-name="Path 3445" d="M-12523.493,7.244l3.906-3.59" fill="none" stroke="#000" stroke-linecap="round" stroke-width="1.2"/>
      <path id="Path_3446" data-name="Path 3446" d="M-12523.492,5.114l1.661-1.46" transform="translate(-0.329 -0.538)" fill="none" stroke="#000" stroke-linecap="round" stroke-width="1.2"/>
      <path id="Path_3447" data-name="Path 3447" d="M-12528,17.745l.092,1.81a2.288,2.288,0,0,0,2.479,1.87c2.205-.053,2.545-1.608,2.555-2.085s0-1.6,0-1.6" fill="none" stroke="#000" stroke-width="1.2"/>
      <path id="Path_3448" data-name="Path 3448" d="M-12528,17.745l.092,1.81a2.288,2.288,0,0,0,2.479,1.87c2.205-.053,2.545-1.608,2.555-2.085s0-1.6,0-1.6" transform="translate(19)" fill="none" stroke="#000" stroke-width="1.2"/>
    </g>
  </g>
</svg>
