<svg xmlns="http://www.w3.org/2000/svg" xmlns:xlink="http://www.w3.org/1999/xlink" width="1.875rem" height="2rem" viewBox="0 0 287 238">
  <defs>
    <clipPath id="clip-Car">
      <rect width="287" height="238"/>
    </clipPath>
  </defs>
  <g id="Car" clip-path="url(#clip-Car)">
    <rect width="287" height="238" fill="#fff"/>
    <g id="Group_768" data-name="Group 768" transform="translate(-93 -117)">
      <path id="Path_2" data-name="Path 2" d="M268.029,269.566a9.9,9.9,0,0,0-7.85-3.831h-110.2a9.96,9.96,0,0,0-9.662,12.375l2.571,10.282a9.946,9.946,0,0,0,9.662,7.543H257.609a9.947,9.947,0,0,0,9.662-7.544l2.57-10.281A9.9,9.9,0,0,0,268.029,269.566Zm-7.539,6.208-2.57,10.28a.319.319,0,0,1-.311.244H152.548a.321.321,0,0,1-.312-.242l-2.57-10.281a.321.321,0,0,1,.311-.4h110.2a.321.321,0,0,1,.312.4Z" transform="translate(28.692 -36.664)"/>
      <path id="Path_4" data-name="Path 4" d="M83.266,329.879a9.959,9.959,0,1,0,9.96,9.959A9.971,9.971,0,0,0,83.266,329.879Z" transform="translate(57.979 -64.825)"/>
      <path id="Path_5" data-name="Path 5" d="M413.146,329.879a9.959,9.959,0,1,0,9.96,9.959A9.971,9.971,0,0,0,413.146,329.879Z" transform="translate(-86.847 -64.825)"/>
      <path id="Path_6" data-name="Path 6" d="M72.65,256.573a17.67,17.67,0,1,0,17.67,17.67A17.69,17.69,0,0,0,72.65,256.573Zm0,25.7a8.032,8.032,0,1,1,8.032-8.032A8.04,8.04,0,0,1,72.65,282.275Z" transform="translate(66.025 -32.642)"/>
      <path id="Path_7" data-name="Path 7" d="M411.692,256.573a17.67,17.67,0,1,0,17.67,17.67A17.69,17.69,0,0,0,411.692,256.573Zm0,25.7a8.032,8.032,0,1,1,8.032-8.032A8.04,8.04,0,0,1,411.692,282.275Z" transform="translate(-82.826 -32.642)"/>
      <path id="Path_3" data-name="Path 3" d="M272.118,172.643a15.1,15.1,0,1,0,0-30.2h-5.14a15.124,15.124,0,0,0-14.907,12.7l-12.856-35.354a20.3,20.3,0,0,0-19.021-13.324,521.929,521.929,0,0,0-78.52-6.028,529.171,529.171,0,0,0-74.65,6.028A20.3,20.3,0,0,0,48,119.784L35.147,155.138A15.123,15.123,0,0,0,20.24,142.444H15.1a15.1,15.1,0,1,0,0,30.2h5.14a15.006,15.006,0,0,0,6.62-1.532L15.842,184.883a25.47,25.47,0,0,0-5.562,15.855v95.595a9.97,9.97,0,0,0,9.959,9.959H35.661a9.97,9.97,0,0,0,9.959-9.959V275.45H241.6v20.883a9.97,9.97,0,0,0,9.959,9.959h15.421a9.97,9.97,0,0,0,9.959-9.959V200.738a25.469,25.469,0,0,0-5.562-15.855l-11.017-13.772a15.006,15.006,0,0,0,6.62,1.532ZM20.24,163H15.1a5.462,5.462,0,0,1,0-10.923h5.14a5.462,5.462,0,0,1,0,10.923ZM35.982,296.333a.322.322,0,0,1-.321.321H20.24a.322.322,0,0,1-.321-.321V272.442a20.119,20.119,0,0,0,10.6,3.008h5.462v20.883Zm164.491-30.521H86.744v-10.6a.322.322,0,0,1,.321-.321H200.153a.322.322,0,0,1,.321.321v10.6ZM267.3,296.333a.322.322,0,0,1-.321.321H251.556a.322.322,0,0,1-.321-.321V275.45H256.7a20.119,20.119,0,0,0,10.6-3.008v23.891ZM263.85,190.9a15.8,15.8,0,0,1,3.449,9.834V255.21a10.614,10.614,0,0,1-10.6,10.6H210.112v-10.6a9.97,9.97,0,0,0-9.96-9.959H87.065a9.97,9.97,0,0,0-9.959,9.959v10.6H30.521a10.614,10.614,0,0,1-10.6-10.6V200.739a15.8,15.8,0,0,1,3.45-9.834l14.608-18.261H225.856a4.819,4.819,0,1,0,0-9.639H42.542l14.519-39.927a10.633,10.633,0,0,1,9.963-6.978s36.357-7.526,74.649-7.526,78.521,7.526,78.521,7.526a10.634,10.634,0,0,1,9.963,6.978L244.677,163H225.856a4.819,4.819,0,1,0,0,9.639h23.386Zm-2.334-33.361a5.467,5.467,0,0,1,5.462-5.462h5.14a5.462,5.462,0,0,1,0,10.923h-5.14A5.468,5.468,0,0,1,261.515,157.543Z" transform="translate(92.839 30.086)"/>
    </g>
  </g>
</svg>
