<svg xmlns="http://www.w3.org/2000/svg" width="46" height="44" viewBox="0 0 46 44" class="aljProductsStyle">
  <g id="Group_21592" data-name="Group 21592" transform="translate(-163 -726)" style="&#10;    /* stroke: #fff !important; */&#10;">
    <g stroke-width="5" stroke="#fff" transform="translate(163 726)" data-name="Ellipse 2407" id="Ellipse_2407">
      <ellipse cx="23" cy="22" rx="23" ry="22" stroke="none"/>
      <ellipse cx="23" cy="22" rx="20.5" ry="19.5" fill="none"/>
    </g>
    <g id="Group_21529" data-name="Group 21529" transform="translate(-695.527 610.441)">
      <g id="Group_21522" data-name="Group 21522" transform="translate(870.527 128.464)">
        <path id="Path_30007" data-name="Path 30007" d="M874.008,156.579a2.037,2.037,0,0,1-1.416-3.5L880,145.906l-5.12-4.786a1.969,1.969,0,0,1-.6-1.122l-.068-.406-2.058-1.347L871.4,139l1.342,2.051.407.053a2,2,0,0,1,1.178.587l4.13,4.29a.383.383,0,0,1-.552.532l-4.13-4.289a1.211,1.211,0,0,0-.725-.358l-.582-.076a.383.383,0,0,1-.271-.17l-1.61-2.459a.383.383,0,0,1,.05-.481l1.2-1.2a.383.383,0,0,1,.481-.05l2.459,1.61a.383.383,0,0,1,.168.257l.1.572a1.207,1.207,0,0,0,.363.689l5.125,4.79a.759.759,0,0,1,.01,1.1l-7.411,7.178a1.27,1.27,0,1,0,1.8,1.8l5.08-5.243a.383.383,0,1,1,.55.534l-5.08,5.243a2.022,2.022,0,0,1-1.447.62Z" transform="translate(-870.527 -137.37)" fill="#fff"/>
      </g>
      <g id="Group_21523" data-name="Group 21523" transform="translate(880.787 135.986)">
        <path id="Path_30008" data-name="Path 30008" d="M959.349,209.7a1.632,1.632,0,0,1-1.164-.472l0,0a41.028,41.028,0,0,1-4.316-5.08l-.786-1.127a.761.761,0,0,1,.077-.962l1.5-1.552a7.334,7.334,0,0,1,3.649-2.055l2.807-.64a.383.383,0,0,1,.17.748l-2.807.64a6.57,6.57,0,0,0-3.269,1.841l-1.5,1.548.783,1.122a40.218,40.218,0,0,0,4.232,4.979l0,0a1,1,0,0,0,1.4-.087l.883-.883a1,1,0,0,0,.084-1.4,40.271,40.271,0,0,0-4.9-4.179l-.478-.336a.383.383,0,1,1,.44-.628l.479.336a41.1,41.1,0,0,1,5.005,4.264,1.631,1.631,0,0,1,.472,1.241,1.873,1.873,0,0,1-.556,1.242l-.883.883A1.872,1.872,0,0,1,959.349,209.7Z" transform="translate(-952.944 -197.8)" fill="#fff"/>
      </g>
      <g id="Group_21524" data-name="Group 21524" transform="translate(880.981 127.197)">
        <path id="Path_30009" data-name="Path 30009" d="M954.887,136.593a.383.383,0,0,1-.267-.659,7.414,7.414,0,0,0,1.973-3.3l.745-2.625a3.85,3.85,0,0,1,3.922-2.808l1.815.094a1.9,1.9,0,0,1,1.611,1.067.383.383,0,0,1-.2.522l-2.788,1.149a.119.119,0,0,0-.072.087l-.188.926a.119.119,0,0,0,.007.069l1.291,3.133a5.5,5.5,0,0,0,2.082-3.143.813.813,0,0,0,.019-.113l-1.79.738a.383.383,0,1,1-.292-.709l2.233-.92a.383.383,0,0,1,.5.208,1.575,1.575,0,0,1,.076.975,6.268,6.268,0,0,1-2.53,3.693l-.252.175a.383.383,0,0,1-.573-.169l-1.474-3.575a.882.882,0,0,1-.049-.514l.188-.926a.885.885,0,0,1,.531-.643l2.339-.964a1.133,1.133,0,0,0-.711-.3l-1.815-.094a3.087,3.087,0,0,0-3.145,2.252l-.745,2.625a8.181,8.181,0,0,1-2.178,3.64A.382.382,0,0,1,954.887,136.593Z" transform="translate(-954.504 -127.197)" fill="#fff"/>
      </g>
      <g id="Group_21525" data-name="Group 21525" transform="translate(884.766 131.637)">
        <path id="Path_30010" data-name="Path 30010" d="M985.292,164.359a.383.383,0,0,1-.252-.672l.838-.729a.383.383,0,0,1,.5.578l-.838.729A.381.381,0,0,1,985.292,164.359Z" transform="translate(-984.909 -162.863)" fill="#fff"/>
      </g>
      <g id="Group_21526" data-name="Group 21526" transform="translate(885.84 134.241)">
        <path id="Path_30011" data-name="Path 30011" d="M993.915,185.279a.383.383,0,0,1-.252-.672l.837-.729a.383.383,0,1,1,.5.578l-.837.729A.382.382,0,0,1,993.915,185.279Z" transform="translate(-993.531 -183.783)" fill="#fff"/>
      </g>
      <g id="Group_21527" data-name="Group 21527" transform="translate(885.303 132.939)">
        <path id="Path_30012" data-name="Path 30012" d="M989.6,174.82a.383.383,0,0,1-.252-.672l.838-.729a.383.383,0,0,1,.5.578l-.838.729A.382.382,0,0,1,989.6,174.82Z" transform="translate(-989.22 -173.324)" fill="#fff"/>
      </g>
      <g id="Group_21528" data-name="Group 21528" transform="translate(873.385 145.013)">
        <path id="Path_30013" data-name="Path 30013" d="M893.487,270.933a.623.623,0,1,1,.623.623A.623.623,0,0,1,893.487,270.933Z" transform="translate(-893.487 -270.31)" fill="#fff"/>
      </g>
    </g>
  </g>
</svg>