<svg xmlns="http://www.w3.org/2000/svg" width="302" height="180.797" viewBox="0 0 302 180.797">
  <g id="Scan" transform="translate(-36 -312)">
    <g id="Front_plae_for_drive_license" data-name="Front plae for drive license" transform="translate(36 312)" fill="rgba(255,184,0,0.01)" stroke-dasharray="6">
      <path d="M4,0H298a3.823,3.823,0,0,1,4,3.616V177.181a3.823,3.823,0,0,1-4,3.616H4a3.823,3.823,0,0,1-4-3.616V3.616A3.823,3.823,0,0,1,4,0Z" stroke="none"/>
      <path d="M 4 -3.0517578125e-05 L 10 -3.0517578125e-05 L 10 0.0999755859375 L 4 0.0999755859375 L 4 -3.0517578125e-05 C 4 -3.0517578125e-05 4 -3.0517578125e-05 4 -3.0517578125e-05 Z M 16 -3.0517578125e-05 L 22 -3.0517578125e-05 L 22 0.0999755859375 L 16 0.0999755859375 L 16 -3.0517578125e-05 Z M 28 -3.0517578125e-05 L 34 -3.0517578125e-05 L 34 0.0999755859375 L 28 0.0999755859375 L 28 -3.0517578125e-05 Z M 40 -3.0517578125e-05 L 46 -3.0517578125e-05 L 46 0.0999755859375 L 40 0.0999755859375 L 40 -3.0517578125e-05 Z M 52 -3.0517578125e-05 L 58 -3.0517578125e-05 L 58 0.0999755859375 L 52 0.0999755859375 L 52 -3.0517578125e-05 Z M 64 -3.0517578125e-05 L 70 -3.0517578125e-05 L 70 0.0999755859375 L 64 0.0999755859375 L 64 -3.0517578125e-05 Z M 76 -3.0517578125e-05 L 82 -3.0517578125e-05 L 82 0.0999755859375 L 76 0.0999755859375 L 76 -3.0517578125e-05 Z M 88 -3.0517578125e-05 L 94 -3.0517578125e-05 L 94 0.0999755859375 L 88 0.0999755859375 L 88 -3.0517578125e-05 Z M 100 -3.0517578125e-05 L 106 -3.0517578125e-05 L 106 0.0999755859375 L 100 0.0999755859375 L 100 -3.0517578125e-05 Z M 112 -3.0517578125e-05 L 118 -3.0517578125e-05 L 118 0.0999755859375 L 112 0.0999755859375 L 112 -3.0517578125e-05 Z M 124 -3.0517578125e-05 L 130 -3.0517578125e-05 L 130 0.0999755859375 L 124 0.0999755859375 L 124 -3.0517578125e-05 Z M 136 -3.0517578125e-05 L 142 -3.0517578125e-05 L 142 0.0999755859375 L 136 0.0999755859375 L 136 -3.0517578125e-05 Z M 148 -3.0517578125e-05 L 154 -3.0517578125e-05 L 154 0.0999755859375 L 148 0.0999755859375 L 148 -3.0517578125e-05 Z M 160 -3.0517578125e-05 L 166 -3.0517578125e-05 L 166 0.0999755859375 L 160 0.0999755859375 L 160 -3.0517578125e-05 Z M 172 -3.0517578125e-05 L 178 -3.0517578125e-05 L 178 0.0999755859375 L 172 0.0999755859375 L 172 -3.0517578125e-05 Z M 184 -3.0517578125e-05 L 190 -3.0517578125e-05 L 190 0.0999755859375 L 184 0.0999755859375 L 184 -3.0517578125e-05 Z M 196 -3.0517578125e-05 L 202 -3.0517578125e-05 L 202 0.0999755859375 L 196 0.0999755859375 L 196 -3.0517578125e-05 Z M 208 -3.0517578125e-05 L 214 -3.0517578125e-05 L 214 0.0999755859375 L 208 0.0999755859375 L 208 -3.0517578125e-05 Z M 220 -3.0517578125e-05 L 226 -3.0517578125e-05 L 226 0.0999755859375 L 220 0.0999755859375 L 220 -3.0517578125e-05 Z M 232 -3.0517578125e-05 L 238 -3.0517578125e-05 L 238 0.0999755859375 L 232 0.0999755859375 L 232 -3.0517578125e-05 Z M 244 -3.0517578125e-05 L 250 -3.0517578125e-05 L 250 0.0999755859375 L 244 0.0999755859375 L 244 -3.0517578125e-05 Z M 256 -3.0517578125e-05 L 262 -3.0517578125e-05 L 262 0.0999755859375 L 256 0.0999755859375 L 256 -3.0517578125e-05 Z M 268 -3.0517578125e-05 L 274 -3.0517578125e-05 L 274 0.0999755859375 L 268 0.0999755859375 L 268 -3.0517578125e-05 Z M 280 -3.0517578125e-05 L 286 -3.0517578125e-05 L 286 0.0999755859375 L 280 0.0999755859375 L 280 -3.0517578125e-05 Z M 292 -3.0517578125e-05 L 298 -3.0517578125e-05 L 298 0.0999755859375 L 292 0.0999755859375 L 292 -3.0517578125e-05 Z M 301.8999938964844 3.629867553710938 L 302 3.629867553710938 C 302 3.629867553710938 302 9.629867553710938 302 9.629867553710938 L 301.8999938964844 9.629867553710938 L 301.8999938964844 3.629867553710938 Z M 301.8999938964844 15.62986755371094 L 302 15.62986755371094 C 302 15.62986755371094 302 21.62986755371094 302 21.62986755371094 L 301.8999938964844 21.62986755371094 L 301.8999938964844 15.62986755371094 Z M 301.8999938964844 27.62986755371094 L 302 27.62986755371094 C 302 27.62986755371094 302 33.62986755371094 302 33.62986755371094 L 301.8999938964844 33.62986755371094 L 301.8999938964844 27.62986755371094 Z M 301.8999938964844 39.62986755371094 L 302 39.62986755371094 C 302 39.62986755371094 302 45.62986755371094 302 45.62986755371094 L 301.8999938964844 45.62986755371094 L 301.8999938964844 39.62986755371094 Z M 301.8999938964844 51.62986755371094 L 302 51.62986755371094 C 302 51.62986755371094 302 57.62985992431641 302 57.62985992431641 L 301.8999938964844 57.62985992431641 L 301.8999938964844 51.62986755371094 Z M 301.8999938964844 63.62985992431641 L 302 63.62985992431641 C 302 63.62985992431641 302 69.62985992431641 302 69.62985992431641 L 301.8999938964844 69.62985992431641 L 301.8999938964844 63.62985992431641 Z M 301.8999938964844 75.62985992431641 L 302 75.62985992431641 C 302 75.62985992431641 302 81.62985992431641 302 81.62985992431641 L 301.8999938964844 81.62985992431641 L 301.8999938964844 75.62985992431641 Z M 301.8999938964844 87.62985992431641 L 302 87.62985992431641 C 302 87.62985992431641 302 93.62985992431641 302 93.62985992431641 L 301.8999938964844 93.62985992431641 L 301.8999938964844 87.62985992431641 Z M 301.8999938964844 99.62985992431641 L 302 99.62985992431641 C 302 99.62985992431641 302 105.6298599243164 302 105.6298599243164 L 301.8999938964844 105.6298599243164 L 301.8999938964844 99.62985992431641 Z M 301.8999938964844 111.6298599243164 L 302 111.6298599243164 C 302 111.6298599243164 302 117.6298599243164 302 117.6298599243164 L 301.8999938964844 117.6298599243164 L 301.8999938964844 111.6298599243164 Z M 301.8999938964844 123.6298599243164 L 302 123.6298599243164 C 302 123.6298599243164 302 129.6298522949219 302 129.6298522949219 L 301.8999938964844 129.6298522949219 L 301.8999938964844 123.6298599243164 Z M 301.8999938964844 135.6298522949219 L 302 135.6298522949219 C 302 135.6298522949219 302 141.6298522949219 302 141.6298522949219 L 301.8999938964844 141.6298522949219 L 301.8999938964844 135.6298522949219 Z M 301.8999938964844 147.6298522949219 L 302 147.6298522949219 C 302 147.6298522949219 302 153.6298522949219 302 153.6298522949219 L 301.8999938964844 153.6298522949219 L 301.8999938964844 147.6298522949219 Z M 301.8999938964844 159.6298522949219 L 302 159.6298522949219 C 302 159.6298522949219 302 165.6298675537109 302 165.6298675537109 L 301.8999938964844 165.6298675537109 L 301.8999938964844 159.6298522949219 Z M 301.8999938964844 171.6298675537109 L 302 171.6298675537109 C 302 171.6298675537109 302 177.1809387207031 302 177.1809387207031 C 302 177.18310546875 302 177.185302734375 302 177.1874694824219 C 302 177.1882019042969 302 177.1888885498047 302 177.1896209716797 C 301.9999694824219 177.1910858154297 301.9999694824219 177.1925354003906 301.9999694824219 177.1940002441406 C 301.9999694824219 177.1948547363281 301.9999694824219 177.1957550048828 301.9999694824219 177.1966094970703 C 301.9999694824219 177.1979827880859 301.9999389648438 177.1993560791016 301.9999389648438 177.2007141113281 C 301.9999389648438 177.2015686035156 301.9999389648438 177.2022857666016 301.9999389648438 177.2031402587891 C 301.9999084472656 177.20458984375 301.9999084472656 177.2060699462891 301.9998779296875 177.2075347900391 C 301.9998779296875 177.2082672119141 301.9998779296875 177.2091217041016 301.9998779296875 177.2098541259766 C 301.9998474121094 177.2119445800781 301.9998474121094 177.2140502929688 301.9998168945312 177.2161407470703 C 301.9998168945312 177.2168731689453 301.9997863769531 177.2174530029297 301.9997863769531 177.2181854248047 C 301.9997863769531 177.2196350097656 301.999755859375 177.2211151123047 301.9997253417969 177.2225646972656 C 301.9997253417969 177.2234191894531 301.9997253417969 177.2243957519531 301.9996948242188 177.2252349853516 C 301.9996948242188 177.2266082763672 301.9996643066406 177.2279815673828 301.9996337890625 177.2293548583984 C 301.9996337890625 177.2302093505859 301.9996337890625 177.2310638427734 301.9996032714844 177.2319183349609 C 301.9996032714844 177.2331695556641 301.9995727539062 177.2344207763672 301.9995422363281 177.2356719970703 C 301.9995422363281 177.2366485595703 301.99951171875 177.2377014160156 301.99951171875 177.2386627197266 C 301.9994812011719 177.2398986816406 301.9994506835938 177.2411346435547 301.9994201660156 177.2423706054688 C 301.9994201660156 177.2433319091797 301.9993896484375 177.2441864013672 301.9993896484375 177.2451629638672 C 301.9993286132812 177.2472076416016 301.9992980957031 177.2492370605469 301.999267578125 177.2512817382812 C 301.9992370605469 177.2522430419922 301.9992065429688 177.2531280517578 301.9992065429688 177.2540893554688 C 301.9991760253906 177.2552795410156 301.9991455078125 177.2564849853516 301.9991149902344 177.2576751708984 C 301.9990844726562 177.2587585449219 301.9990539550781 177.2596893310547 301.9990539550781 177.2607879638672 C 301.9990234375 177.2619171142578 301.9989929199219 177.2630462646484 301.9989624023438 177.26416015625 C 301.9989318847656 177.2652587890625 301.9989013671875 177.2663269042969 301.9988708496094 177.2674255371094 C 301.9988403320312 177.2685241699219 301.9988098144531 177.2696380615234 301.998779296875 177.2707366943359 C 301.9987487792969 177.2718200683594 301.9987487792969 177.2726898193359 301.9987182617188 177.2737884521484 C 301.9986877441406 177.2749328613281 301.9986267089844 177.2760925292969 301.9985961914062 177.2772369384766 C 301.99853515625 177.2794189453125 301.9984741210938 177.2814483642578 301.9984130859375 177.2836303710938 C 301.9983825683594 177.2844696044922 301.9983520507812 177.2853240966797 301.9983520507812 177.2861785888672 C 301.998291015625 177.2875061035156 301.9982604980469 177.2888336181641 301.9981994628906 177.2901611328125 C 301.9981994628906 177.2908935546875 301.9981689453125 177.2916107177734 301.9981384277344 177.2923431396484 C 301.9980773925781 177.2936706542969 301.998046875 177.2951507568359 301.9979858398438 177.2964782714844 C 301.9979553222656 177.2972259521484 301.9979553222656 177.2979736328125 301.9979248046875 177.2987213134766 C 301.9978637695312 177.3001708984375 301.9978332519531 177.3014221191406 301.9977722167969 177.3028869628906 C 301.9977416992188 177.303466796875 301.9977111816406 177.3040466308594 301.9977111816406 177.3046417236328 C 301.9975280761719 177.3094787597656 301.997314453125 177.3143920898438 301.9971313476562 177.3192291259766 C 301.9971008300781 177.31982421875 301.9970703125 177.3204345703125 301.9970397949219 177.3210296630859 C 301.9969787597656 177.3224792480469 301.9969177246094 177.323974609375 301.9968566894531 177.3254241943359 C 301.996826171875 177.3260040283203 301.996826171875 177.3265991210938 301.9967956542969 177.3271789550781 C 301.9967346191406 177.3286285400391 301.9966430664062 177.3301391601562 301.99658203125 177.3315887451172 C 301.9965515136719 177.3321685791016 301.9965515136719 177.3327331542969 301.9965209960938 177.3333129882812 C 301.9964294433594 177.3348846435547 301.9963684082031 177.3365020751953 301.9962768554688 177.3380737304688 C 301.9962768554688 177.3381195068359 301.9962768554688 177.3381500244141 301.9962768554688 177.3381958007812 C 301.9960327148438 177.3437347412109 301.9957580566406 177.3491821289062 301.9954528808594 177.3547210693359 C 301.9954528808594 177.3550567626953 301.9954223632812 177.3553924560547 301.9954223632812 177.355712890625 C 301.9953308105469 177.3572845458984 301.9952392578125 177.3589019775391 301.9951477050781 177.3604736328125 C 301.9951171875 177.3609619140625 301.9951171875 177.3614196777344 301.9950866699219 177.3619079589844 C 301.9949951171875 177.3633422851562 301.9949035644531 177.3649444580078 301.9948425292969 177.3663940429688 C 301.9947814941406 177.3670196533203 301.9947509765625 177.3676452636719 301.9947204589844 177.3682708740234 C 301.9943237304688 177.3753814697266 301.9939270019531 177.3821411132812 301.9934692382812 177.3892364501953 C 301.9934387207031 177.3896636962891 301.993408203125 177.3900756835938 301.993408203125 177.3905029296875 C 301.9932861328125 177.3921966552734 301.9931945800781 177.3937835693359 301.9930725097656 177.3954620361328 C 301.9930725097656 177.3957366943359 301.9930419921875 177.3960266113281 301.9930114746094 177.3963165283203 C 301.992431640625 177.4055633544922 301.9917602539062 177.4148864746094 301.9910888671875 177.4241180419922 C 301.9910583496094 177.4244232177734 301.9910583496094 177.4247283935547 301.9910278320312 177.4250335693359 C 301.9909057617188 177.4267120361328 301.9907836914062 177.4284210205078 301.9906616210938 177.4300994873047 C 301.9906311035156 177.4303588867188 301.9906005859375 177.4306182861328 301.9906005859375 177.4308929443359 C 301.9900207519531 177.4383087158203 301.9894409179688 177.4457092285156 301.9888305664062 177.453125 C 301.9888305664062 177.4532470703125 301.9888305664062 177.4533843994141 301.9888000488281 177.4535064697266 C 301.9886779785156 177.4550628662109 301.9885559082031 177.4566650390625 301.9884033203125 177.4582214355469 C 301.9883728027344 177.4588012695312 301.9883117675781 177.4593658447266 301.98828125 177.4599456787109 C 301.9881286621094 177.4615020751953 301.9880065917969 177.4629058837891 301.9878845214844 177.4644622802734 C 301.9878540039062 177.4649047851562 301.98779296875 177.4653625488281 301.9877624511719 177.4658050537109 C 301.9873352050781 177.4708251953125 301.9868774414062 177.4758605957031 301.9864196777344 177.4808654785156 C 301.9863891601562 177.4813385009766 301.9863586425781 177.4818115234375 301.9862976074219 177.4822845458984 C 301.9861755371094 177.4835968017578 301.9860534667969 177.4849853515625 301.9859313964844 177.4862976074219 C 301.9858703613281 177.4870147705078 301.9858093261719 177.4877471923828 301.9857482910156 177.4884643554688 C 301.9856262207031 177.4897766113281 301.9854736328125 177.4911651611328 301.9853515625 177.4924774169922 C 301.9852905273438 177.4932708740234 301.9851989746094 177.4940490722656 301.9851379394531 177.4948272705078 C 301.9850158691406 177.4960174560547 301.9848937988281 177.4974517822266 301.9847717285156 177.4986419677734 C 301.9846801757812 177.49951171875 301.9845886230469 177.5004119873047 301.9845275878906 177.5012817382812 C 301.9844055175781 177.5023498535156 301.9842834472656 177.5037078857422 301.9841613769531 177.5047760009766 C 301.9840698242188 177.5059967041016 301.9839477539062 177.5072174072266 301.9838256835938 177.5084228515625 C 301.983642578125 177.5102081298828 301.9834594726562 177.5121002197266 301.9832763671875 177.5138854980469 C 301.983154296875 177.5149230957031 301.9830627441406 177.5159454345703 301.9829406738281 177.5169830322266 C 301.9828491210938 177.5179443359375 301.9827270507812 177.5190582275391 301.9826354980469 177.5200042724609 C 301.9825134277344 177.5212707519531 301.9823913574219 177.5225067138672 301.9822692871094 177.5237731933594 C 301.982177734375 177.5244750976562 301.9820861816406 177.5252990722656 301.9820251464844 177.5260162353516 C 301.9818725585938 177.5275421142578 301.981689453125 177.5290679931641 301.9815368652344 177.5306091308594 C 301.9814758300781 177.5312042236328 301.9813842773438 177.5319213867188 301.9813232421875 177.5325164794922 C 301.9808654785156 177.5369262695312 301.9803771972656 177.5413208007812 301.9798889160156 177.5457305908203 C 301.9798889160156 177.5457305908203 301.9798889160156 177.5457611083984 301.9798889160156 177.5457611083984 C 301.9793701171875 177.5503692626953 301.9788513183594 177.5549468994141 301.9783325195312 177.5595397949219 C 301.9783325195312 177.5595397949219 301.9783325195312 177.5596008300781 301.9783325195312 177.5596008300781 C 301.9756774902344 177.5826416015625 301.9727783203125 177.6056060791016 301.9696655273438 177.6285095214844 L 301.8705749511719 177.6149749755859 C 301.8901062011719 177.4720153808594 301.8999938964844 177.3259735107422 301.8999938964844 177.1809387207031 L 301.8999938964844 171.6298675537109 Z M 291.5370788574219 180.6968536376953 L 297.5370788574219 180.6968536376953 L 297.5370788574219 180.7968597412109 C 297.5370788574219 180.7968597412109 291.5370788574219 180.7968597412109 291.5370788574219 180.7968597412109 L 291.5370788574219 180.6968536376953 Z M 279.5370788574219 180.6968536376953 L 285.5370788574219 180.6968536376953 L 285.5370788574219 180.7968597412109 C 285.5370788574219 180.7968597412109 279.5370788574219 180.7968597412109 279.5370788574219 180.7968597412109 L 279.5370788574219 180.6968536376953 Z M 267.5370788574219 180.6968536376953 L 273.5370788574219 180.6968536376953 L 273.5370788574219 180.7968597412109 C 273.5370788574219 180.7968597412109 267.5370788574219 180.7968597412109 267.5370788574219 180.7968597412109 L 267.5370788574219 180.6968536376953 Z M 255.5370788574219 180.6968536376953 L 261.5370788574219 180.6968536376953 L 261.5370788574219 180.7968597412109 C 261.5370788574219 180.7968597412109 255.5370788574219 180.7968597412109 255.5370788574219 180.7968597412109 L 255.5370788574219 180.6968536376953 Z M 243.5370788574219 180.6968536376953 L 249.5370788574219 180.6968536376953 L 249.5370788574219 180.7968597412109 C 249.5370788574219 180.7968597412109 243.5370788574219 180.7968597412109 243.5370788574219 180.7968597412109 L 243.5370788574219 180.6968536376953 Z M 231.5370788574219 180.6968536376953 L 237.5370788574219 180.6968536376953 L 237.5370788574219 180.7968597412109 C 237.5370788574219 180.7968597412109 231.5370788574219 180.7968597412109 231.5370788574219 180.7968597412109 L 231.5370788574219 180.6968536376953 Z M 219.5370788574219 180.6968536376953 L 225.5370788574219 180.6968536376953 L 225.5370788574219 180.7968597412109 C 225.5370788574219 180.7968597412109 219.5370788574219 180.7968597412109 219.5370788574219 180.7968597412109 L 219.5370788574219 180.6968536376953 Z M 207.5370788574219 180.6968536376953 L 213.5370788574219 180.6968536376953 L 213.5370788574219 180.7968597412109 C 213.5370788574219 180.7968597412109 207.5370788574219 180.7968597412109 207.5370788574219 180.7968597412109 L 207.5370788574219 180.6968536376953 Z M 195.5370788574219 180.6968536376953 L 201.5370788574219 180.6968536376953 L 201.5370788574219 180.7968597412109 C 201.5370788574219 180.7968597412109 195.5370788574219 180.7968597412109 195.5370788574219 180.7968597412109 L 195.5370788574219 180.6968536376953 Z M 183.5370788574219 180.6968536376953 L 189.5370788574219 180.6968536376953 L 189.5370788574219 180.7968597412109 C 189.5370788574219 180.7968597412109 183.5370788574219 180.7968597412109 183.5370788574219 180.7968597412109 L 183.5370788574219 180.6968536376953 Z M 171.5370788574219 180.6968536376953 L 177.5370788574219 180.6968536376953 L 177.5370788574219 180.7968597412109 C 177.5370788574219 180.7968597412109 171.5370788574219 180.7968597412109 171.5370788574219 180.7968597412109 L 171.5370788574219 180.6968536376953 Z M 159.5370788574219 180.6968536376953 L 165.5370788574219 180.6968536376953 L 165.5370788574219 180.7968597412109 C 165.5370788574219 180.7968597412109 159.5370788574219 180.7968597412109 159.5370788574219 180.7968597412109 L 159.5370788574219 180.6968536376953 Z M 147.5370788574219 180.6968536376953 L 153.5370788574219 180.6968536376953 L 153.5370788574219 180.7968597412109 C 153.5370788574219 180.7968597412109 147.5370788574219 180.7968597412109 147.5370788574219 180.7968597412109 L 147.5370788574219 180.6968536376953 Z M 135.5370788574219 180.6968536376953 L 141.5370788574219 180.6968536376953 L 141.5370788574219 180.7968597412109 C 141.5370788574219 180.7968597412109 135.5370788574219 180.7968597412109 135.5370788574219 180.7968597412109 L 135.5370788574219 180.6968536376953 Z M 123.5370788574219 180.6968536376953 L 129.5370788574219 180.6968536376953 L 129.5370788574219 180.7968597412109 C 129.5370788574219 180.7968597412109 123.5370788574219 180.7968597412109 123.5370788574219 180.7968597412109 L 123.5370788574219 180.6968536376953 Z M 111.5370788574219 180.6968536376953 L 117.5370788574219 180.6968536376953 L 117.5370788574219 180.7968597412109 C 117.5370788574219 180.7968597412109 111.5370788574219 180.7968597412109 111.5370788574219 180.7968597412109 L 111.5370788574219 180.6968536376953 Z M 99.53707885742188 180.6968536376953 L 105.5370788574219 180.6968536376953 L 105.5370788574219 180.7968597412109 C 105.5370788574219 180.7968597412109 99.53707885742188 180.7968597412109 99.53707885742188 180.7968597412109 L 99.53707885742188 180.6968536376953 Z M 87.53707885742188 180.6968536376953 L 93.53707885742188 180.6968536376953 L 93.53707885742188 180.7968597412109 C 93.53707885742188 180.7968597412109 87.53707885742188 180.7968597412109 87.53707885742188 180.7968597412109 L 87.53707885742188 180.6968536376953 Z M 75.53707885742188 180.6968536376953 L 81.53707885742188 180.6968536376953 L 81.53707885742188 180.7968597412109 C 81.53707885742188 180.7968597412109 75.53707885742188 180.7968597412109 75.53707885742188 180.7968597412109 L 75.53707885742188 180.6968536376953 Z M 63.53707885742188 180.6968536376953 L 69.53707885742188 180.6968536376953 L 69.53707885742188 180.7968597412109 C 69.53707885742188 180.7968597412109 63.53707885742188 180.7968597412109 63.53707885742188 180.7968597412109 L 63.53707885742188 180.6968536376953 Z M 51.53707885742188 180.6968536376953 L 57.53707885742188 180.6968536376953 L 57.53707885742188 180.7968597412109 C 57.53707885742188 180.7968597412109 51.53707885742188 180.7968597412109 51.53707885742188 180.7968597412109 L 51.53707885742188 180.6968536376953 Z M 39.53707885742188 180.6968536376953 L 45.53707885742188 180.6968536376953 L 45.53707885742188 180.7968597412109 C 45.53707885742188 180.7968597412109 39.53707885742188 180.7968597412109 39.53707885742188 180.7968597412109 L 39.53707885742188 180.6968536376953 Z M 27.53707885742188 180.6968536376953 L 33.53707885742188 180.6968536376953 L 33.53707885742188 180.7968597412109 C 33.53707885742188 180.7968597412109 27.53707885742188 180.7968597412109 27.53707885742188 180.7968597412109 L 27.53707885742188 180.6968536376953 Z M 15.53707885742188 180.6968536376953 L 21.53707885742188 180.6968536376953 L 21.53707885742188 180.7968597412109 C 21.53707885742188 180.7968597412109 15.53707885742188 180.7968597412109 15.53707885742188 180.7968597412109 L 15.53707885742188 180.6968536376953 Z M 3.548187255859375 180.6735076904297 C 3.697113037109375 180.6890106201172 3.84912109375 180.6968536376953 4 180.6968536376953 L 9.537078857421875 180.6968536376953 L 9.537078857421875 180.7968597412109 C 9.537078857421875 180.7968597412109 4 180.7968597412109 4 180.7968597412109 C 3.9976806640625 180.7968597412109 3.995361328125 180.7968597412109 3.9930419921875 180.7968597412109 C 3.99224853515625 180.7968597412109 3.991607666015625 180.7968444824219 3.99078369140625 180.7968444824219 C 3.9892578125 180.7968444824219 3.987762451171875 180.7968444824219 3.986236572265625 180.7968444824219 C 3.98516845703125 180.7968292236328 3.984161376953125 180.7968292236328 3.98309326171875 180.7968292236328 C 3.981842041015625 180.7968292236328 3.9805908203125 180.7968139648438 3.97930908203125 180.7968139648438 C 3.978240966796875 180.7968139648438 3.9774169921875 180.7967987060547 3.976348876953125 180.7967987060547 C 3.9749755859375 180.7967834472656 3.97357177734375 180.7967834472656 3.972198486328125 180.7967681884766 C 3.97125244140625 180.7967681884766 3.970306396484375 180.7967681884766 3.9693603515625 180.7967529296875 C 3.96783447265625 180.7967376708984 3.966278076171875 180.7967376708984 3.964752197265625 180.7967224121094 C 3.964080810546875 180.7967224121094 3.96343994140625 180.7967071533203 3.9627685546875 180.7967071533203 C 3.960968017578125 180.7966918945312 3.95916748046875 180.7966766357422 3.9573974609375 180.7966613769531 C 3.95672607421875 180.7966461181641 3.956298828125 180.7966461181641 3.95562744140625 180.7966461181641 C 3.950927734375 180.7966003417969 3.946258544921875 180.7965393066406 3.94158935546875 180.7964782714844 C 3.941436767578125 180.7964782714844 3.941070556640625 180.7964782714844 3.94091796875 180.7964782714844 C 3.938720703125 180.7964477539062 3.93646240234375 180.7964172363281 3.93426513671875 180.79638671875 C 3.934112548828125 180.79638671875 3.93408203125 180.7963714599609 3.9339599609375 180.7963714599609 C 3.93170166015625 180.7963409423828 3.929443359375 180.7963104248047 3.92718505859375 180.7962646484375 C 3.926910400390625 180.7962646484375 3.926666259765625 180.7962646484375 3.9263916015625 180.7962646484375 C 3.924163818359375 180.7962188720703 3.92193603515625 180.7961883544922 3.919708251953125 180.796142578125 C 3.9195556640625 180.796142578125 3.919586181640625 180.796142578125 3.919464111328125 180.796142578125 C 3.917236328125 180.7960968017578 3.91497802734375 180.7960662841797 3.912750244140625 180.7960205078125 C 3.9124755859375 180.7960052490234 3.9122314453125 180.7960052490234 3.9119873046875 180.7960052490234 C 3.785736083984375 180.7935333251953 3.66094970703125 180.7857818603516 3.537841796875 180.7729797363281 L 3.548187255859375 180.6735076904297 Z M 0 170.7040863037109 L 0.100006103515625 170.7040863037109 L 0.100006103515625 176.7040863037109 L 0 176.7040863037109 L 0 170.7040863037109 Z M 0 158.7040863037109 L 0.100006103515625 158.7040863037109 L 0.100006103515625 164.7040863037109 L 0 164.7040863037109 L 0 158.7040863037109 Z M 0 146.7040863037109 L 0.100006103515625 146.7040863037109 L 0.100006103515625 152.7040863037109 L 0 152.7040863037109 L 0 146.7040863037109 Z M 0 134.7040863037109 L 0.100006103515625 134.7040863037109 L 0.100006103515625 140.7040863037109 L 0 140.7040863037109 L 0 134.7040863037109 Z M 0 122.7040863037109 L 0.100006103515625 122.7040863037109 L 0.100006103515625 128.7040863037109 L 0 128.7040863037109 L 0 122.7040863037109 Z M 0 110.7040939331055 L 0.100006103515625 110.7040939331055 L 0.100006103515625 116.7040939331055 L 0 116.7040939331055 L 0 110.7040939331055 Z M 0 98.70409393310547 L 0.100006103515625 98.70409393310547 L 0.100006103515625 104.7040939331055 L 0 104.7040939331055 L 0 98.70409393310547 Z M 0 86.70409393310547 L 0.100006103515625 86.70409393310547 L 0.100006103515625 92.70409393310547 L 0 92.70409393310547 L 0 86.70409393310547 Z M 0 74.70409393310547 L 0.100006103515625 74.70409393310547 L 0.100006103515625 80.70409393310547 L 0 80.70409393310547 L 0 74.70409393310547 Z M 0 62.70409393310547 L 0.100006103515625 62.70409393310547 L 0.100006103515625 68.70409393310547 L 0 68.70409393310547 L 0 62.70409393310547 Z M 0 50.70408630371094 L 0.100006103515625 50.70408630371094 L 0.100006103515625 56.70409393310547 L 0 56.70409393310547 L 0 50.70408630371094 Z M 0 38.70408630371094 L 0.100006103515625 38.70408630371094 L 0.100006103515625 44.70408630371094 L 0 44.70408630371094 L 0 38.70408630371094 Z M 0 26.70408630371094 L 0.100006103515625 26.70408630371094 L 0.100006103515625 32.70408630371094 L 0 32.70408630371094 L 0 26.70408630371094 Z M 0 14.70408630371094 L 0.100006103515625 14.70408630371094 L 0.100006103515625 20.70408630371094 L 0 20.70408630371094 L 0 14.70408630371094 Z M 0.125 2.715545654296875 L 0.22119140625 2.74285888671875 C 0.140777587890625 3.026519775390625 0.100006103515625 3.320281982421875 0.100006103515625 3.615936279296875 L 0.100006103515625 8.704086303710938 L 0 8.704086303710938 L 0 3.615936279296875 C 0 3.615936279296875 0 3.615936279296875 0 3.615936279296875 C 0 3.613723754882812 0 3.611465454101562 0 3.6092529296875 C 0 3.6085205078125 0 3.60797119140625 0 3.60723876953125 C 3.0517578125e-05 3.605682373046875 3.0517578125e-05 3.604110717773438 3.0517578125e-05 3.602554321289062 C 3.0517578125e-05 3.601821899414062 3.0517578125e-05 3.600860595703125 3.0517578125e-05 3.600128173828125 C 6.103515625e-05 3.598602294921875 6.103515625e-05 3.5970458984375 6.103515625e-05 3.595504760742188 C 6.103515625e-05 3.59490966796875 6.103515625e-05 3.594085693359375 9.1552734375e-05 3.593475341796875 C 9.1552734375e-05 3.591751098632812 9.1552734375e-05 3.590011596679688 0.0001220703125 3.588287353515625 C 0.0001220703125 3.587432861328125 0.0001220703125 3.586349487304688 0.000152587890625 3.585494995117188 C 0.000152587890625 3.583740234375 0.00018310546875 3.582000732421875 0.00018310546875 3.580245971679688 C 0.000213623046875 3.579391479492188 0.000213623046875 3.578567504882812 0.000213623046875 3.577713012695312 C 0.000244140625 3.576324462890625 0.000244140625 3.574981689453125 0.000274658203125 3.573593139648438 C 0.000274658203125 3.572738647460938 0.00030517578125 3.571823120117188 0.00030517578125 3.570968627929688 C 0.000335693359375 3.56951904296875 0.000335693359375 3.568084716796875 0.0003662109375 3.566619873046875 C 0.0003662109375 3.565765380859375 0.000396728515625 3.565032958984375 0.000396728515625 3.564193725585938 C 0.00042724609375 3.5626220703125 0.000457763671875 3.561019897460938 0.00048828125 3.559463500976562 C 0.00048828125 3.558609008789062 0.000518798828125 3.55780029296875 0.000518798828125 3.55694580078125 C 0.00054931640625 3.555038452148438 0.000579833984375 3.553146362304688 0.000640869140625 3.551223754882812 C 0.000640869140625 3.550262451171875 0.00067138671875 3.549575805664062 0.00067138671875 3.548599243164062 C 0.000701904296875 3.547271728515625 0.000732421875 3.5458984375 0.000762939453125 3.5445556640625 C 0.00079345703125 3.5435791015625 0.00079345703125 3.542633056640625 0.000823974609375 3.541656494140625 C 0.0008544921875 3.540374755859375 0.000885009765625 3.539077758789062 0.00091552734375 3.537796020507812 C 0.000946044921875 3.536819458007812 0.000946044921875 3.536117553710938 0.0009765625 3.535140991210938 C 0.001007080078125 3.533554077148438 0.001068115234375 3.531982421875 0.0010986328125 3.5303955078125 C 0.001129150390625 3.529800415039062 0.001129150390625 3.529067993164062 0.00115966796875 3.528457641601562 C 0.001190185546875 3.52630615234375 0.001251220703125 3.524169921875 0.001312255859375 3.522018432617188 C 0.0013427734375 3.521286010742188 0.001373291015625 3.520523071289062 0.001373291015625 3.519790649414062 C 0.001434326171875 3.518402099609375 0.00146484375 3.516983032226562 0.00152587890625 3.515579223632812 C 0.001556396484375 3.514617919921875 0.001556396484375 3.513656616210938 0.0015869140625 3.512680053710938 C 0.00164794921875 3.511428833007812 0.001678466796875 3.510147094726562 0.001708984375 3.508880615234375 C 0.001739501953125 3.507919311523438 0.00177001953125 3.506912231445312 0.0018310546875 3.505935668945312 C 0.001861572265625 3.50469970703125 0.00189208984375 3.503433227539062 0.001953125 3.502182006835938 C 0.001983642578125 3.501220703125 0.00201416015625 3.500335693359375 0.002044677734375 3.499374389648438 C 0.002105712890625 3.497360229492188 0.002197265625 3.495315551757812 0.00225830078125 3.493301391601562 C 0.002288818359375 3.492446899414062 0.0023193359375 3.491378784179688 0.002349853515625 3.49053955078125 C 0.002410888671875 3.48919677734375 0.002471923828125 3.487869262695312 0.00250244140625 3.486526489257812 C 0.0025634765625 3.485565185546875 0.002593994140625 3.484695434570312 0.00262451171875 3.483718872070312 C 0.002685546875 3.482421875 0.002716064453125 3.481124877929688 0.002777099609375 3.479827880859375 C 0.0028076171875 3.478988647460938 0.00286865234375 3.478057861328125 0.002899169921875 3.477203369140625 C 0.002960205078125 3.475784301757812 0.003021240234375 3.474380493164062 0.003082275390625 3.472946166992188 C 0.00311279296875 3.47210693359375 0.003143310546875 3.47125244140625 0.003173828125 3.470413208007812 C 0.003265380859375 3.468338012695312 0.00335693359375 3.46624755859375 0.003448486328125 3.464187622070312 C 0.003509521484375 3.463348388671875 0.0035400390625 3.462554931640625 0.003570556640625 3.461715698242188 C 0.003631591796875 3.460403442382812 0.003692626953125 3.459121704101562 0.003753662109375 3.457809448242188 C 0.003814697265625 3.45684814453125 0.00384521484375 3.455718994140625 0.00390625 3.454742431640625 C 0.00396728515625 3.453506469726562 0.0040283203125 3.452285766601562 0.00408935546875 3.4510498046875 C 0.004119873046875 3.450088500976562 0.004180908203125 3.449081420898438 0.004241943359375 3.448104858398438 C 0.004302978515625 3.446884155273438 0.004364013671875 3.445648193359375 0.004425048828125 3.444427490234375 C 0.004486083984375 3.443450927734375 0.0045166015625 3.4425048828125 0.00457763671875 3.441543579101562 C 0.004669189453125 3.43951416015625 0.004791259765625 3.4375 0.0048828125 3.435470581054688 C 0.00494384765625 3.43450927734375 0.004974365234375 3.433822631835938 0.005035400390625 3.432861328125 C 0.005126953125 3.4315185546875 0.00518798828125 3.430160522460938 0.005279541015625 3.428817749023438 C 0.00531005859375 3.4278564453125 0.00537109375 3.426773071289062 0.00543212890625 3.425811767578125 C 0.0054931640625 3.424667358398438 0.00555419921875 3.42352294921875 0.005645751953125 3.422378540039062 C 0.00567626953125 3.421417236328125 0.005767822265625 3.420211791992188 0.005828857421875 3.41925048828125 C 0.005889892578125 3.418106079101562 0.005950927734375 3.416961669921875 0.006011962890625 3.415817260742188 C 0.006103515625 3.41473388671875 0.00616455078125 3.4136962890625 0.0062255859375 3.412612915039062 C 0.00634765625 3.410614013671875 0.0064697265625 3.408599853515625 0.006591796875 3.406600952148438 C 0.00665283203125 3.405517578125 0.0067138671875 3.40472412109375 0.00677490234375 3.403640747070312 C 0.006866455078125 3.402542114257812 0.006927490234375 3.40142822265625 0.006988525390625 3.40032958984375 C 0.007080078125 3.399124145507812 0.00714111328125 3.39788818359375 0.007232666015625 3.396682739257812 C 0.007293701171875 3.395767211914062 0.007354736328125 3.394851684570312 0.007415771484375 3.393936157226562 C 0.00750732421875 3.392730712890625 0.007598876953125 3.39129638671875 0.0076904296875 3.390106201171875 C 0.007720947265625 3.389328002929688 0.007781982421875 3.388580322265625 0.007843017578125 3.3878173828125 C 0.0079345703125 3.386489868164062 0.008026123046875 3.385101318359375 0.00811767578125 3.383773803710938 C 0.008209228515625 3.382354736328125 0.008331298828125 3.380889892578125 0.0084228515625 3.379470825195312 C 0.008514404296875 3.377914428710938 0.0086669921875 3.376190185546875 0.008758544921875 3.3746337890625 C 0.00885009765625 3.373626708984375 0.0089111328125 3.372604370117188 0.009002685546875 3.371597290039062 C 0.009063720703125 3.370391845703125 0.0091552734375 3.369171142578125 0.009246826171875 3.36798095703125 C 0.00933837890625 3.36700439453125 0.0093994140625 3.366043090820312 0.009490966796875 3.365081787109375 C 0.009552001953125 3.363998413085938 0.0096435546875 3.362701416015625 0.009735107421875 3.36163330078125 C 0.00982666015625 3.360641479492188 0.0098876953125 3.359664916992188 0.009979248046875 3.358673095703125 C 0.01007080078125 3.35748291015625 0.010162353515625 3.356216430664062 0.01025390625 3.355026245117188 C 0.01031494140625 3.354400634765625 0.010345458984375 3.353805541992188 0.010406494140625 3.353179931640625 C 0.010589599609375 3.350677490234375 0.01080322265625 3.34820556640625 0.011016845703125 3.345687866210938 C 0.011077880859375 3.344757080078125 0.01116943359375 3.343841552734375 0.01123046875 3.342910766601562 C 0.011322021484375 3.341842651367188 0.01141357421875 3.340667724609375 0.011505126953125 3.339584350585938 C 0.0115966796875 3.338455200195312 0.011688232421875 3.337295532226562 0.011810302734375 3.336151123046875 C 0.01190185546875 3.3350830078125 0.011962890625 3.334091186523438 0.012054443359375 3.333023071289062 C 0.01214599609375 3.332015991210938 0.012237548828125 3.331039428710938 0.0123291015625 3.330032348632812 C 0.012420654296875 3.328720092773438 0.01251220703125 3.327667236328125 0.01263427734375 3.32635498046875 C 0.0126953125 3.325851440429688 0.012725830078125 3.325347900390625 0.012786865234375 3.324844360351562 C 0.01300048828125 3.322219848632812 0.01324462890625 3.3194580078125 0.01348876953125 3.31683349609375 C 0.013580322265625 3.316009521484375 0.013641357421875 3.315155029296875 0.013702392578125 3.3143310546875 C 0.013824462890625 3.313018798828125 0.013946533203125 3.311920166015625 0.014068603515625 3.31060791015625 C 0.014129638671875 3.309707641601562 0.01422119140625 3.308807373046875 0.014312744140625 3.307891845703125 C 0.014434814453125 3.30670166015625 0.0145263671875 3.305435180664062 0.0146484375 3.304244995117188 C 0.014739990234375 3.303390502929688 0.014801025390625 3.302536010742188 0.014892578125 3.301681518554688 C 0.0150146484375 3.300369262695312 0.015167236328125 3.298995971679688 0.015289306640625 3.297683715820312 C 0.01531982421875 3.297286987304688 0.015350341796875 3.296951293945312 0.015380859375 3.296554565429688 C 0.015655517578125 3.293701171875 0.015960693359375 3.290740966796875 0.0162353515625 3.287872314453125 C 0.01629638671875 3.2872314453125 0.016357421875 3.286575317382812 0.016448974609375 3.285919189453125 C 0.016571044921875 3.28460693359375 0.0167236328125 3.283111572265625 0.016845703125 3.28179931640625 C 0.016937255859375 3.281051635742188 0.016998291015625 3.280303955078125 0.01708984375 3.279556274414062 C 0.0172119140625 3.278244018554688 0.017364501953125 3.2767333984375 0.01751708984375 3.275421142578125 C 0.017578125 3.274810791015625 0.01763916015625 3.274185180664062 0.0177001953125 3.273574829101562 C 0.017852783203125 3.27203369140625 0.01800537109375 3.270645141601562 0.018157958984375 3.26910400390625 C 0.0181884765625 3.268875122070312 0.018218994140625 3.268707275390625 0.018218994140625 3.268478393554688 C 0.0185546875 3.265380859375 0.0189208984375 3.262100219726562 0.019256591796875 3.259017944335938 C 0.019287109375 3.25848388671875 0.01934814453125 3.257919311523438 0.0194091796875 3.25738525390625 C 0.019561767578125 3.256072998046875 0.019683837890625 3.254837036132812 0.01983642578125 3.253524780273438 C 0.019927978515625 3.252639770507812 0.020050048828125 3.251739501953125 0.0201416015625 3.2508544921875 C 0.020263671875 3.249664306640625 0.0203857421875 3.248504638671875 0.020538330078125 3.247314453125 C 0.0206298828125 3.246383666992188 0.020751953125 3.24542236328125 0.020843505859375 3.244476318359375 C 0.02099609375 3.2432861328125 0.0211181640625 3.241973876953125 0.021270751953125 3.240798950195312 C 0.021331787109375 3.240097045898438 0.02142333984375 3.239395141601562 0.021514892578125 3.238693237304688 C 0.021820068359375 3.236083984375 0.022125244140625 3.233383178710938 0.022430419921875 3.23077392578125 C 0.022491455078125 3.23016357421875 0.0225830078125 3.229537963867188 0.02264404296875 3.228927612304688 C 0.022796630859375 3.227630615234375 0.02294921875 3.226318359375 0.023101806640625 3.225006103515625 C 0.023193359375 3.224212646484375 0.023284912109375 3.223388671875 0.023406982421875 3.22259521484375 C 0.0235595703125 3.221176147460938 0.023712158203125 3.219863891601562 0.023895263671875 3.21844482421875 C 0.023956298828125 3.2178955078125 0.024017333984375 3.217361450195312 0.024078369140625 3.216812133789062 C 0.0242919921875 3.21527099609375 0.02447509765625 3.213653564453125 0.024658203125 3.212112426757812 C 0.024658203125 3.2120361328125 0.024688720703125 3.211944580078125 0.024688720703125 3.211883544921875 C 0.025115966796875 3.20855712890625 0.0255126953125 3.205245971679688 0.02593994140625 3.201934814453125 C 0.0260009765625 3.20147705078125 0.026031494140625 3.201034545898438 0.026092529296875 3.200576782226562 C 0.026275634765625 3.19915771484375 0.026458740234375 3.197784423828125 0.026641845703125 3.196365356445312 C 0.0267333984375 3.195709228515625 0.026824951171875 3.195022583007812 0.026885986328125 3.194366455078125 C 0.027069091796875 3.192947387695312 0.027252197265625 3.191650390625 0.027435302734375 3.190231323242188 C 0.02752685546875 3.189559936523438 0.027618408203125 3.188858032226562 0.0277099609375 3.188186645507812 C 0.02789306640625 3.186767578125 0.028076171875 3.185302734375 0.02825927734375 3.183883666992188 C 0.0283203125 3.183456420898438 0.02838134765625 3.182998657226562 0.0284423828125 3.18255615234375 C 0.028900146484375 3.17913818359375 0.029327392578125 3.175872802734375 0.02978515625 3.172439575195312 C 0.02978515625 3.17242431640625 0.02978515625 3.172393798828125 0.02978515625 3.172378540039062 C 0.029998779296875 3.17095947265625 0.030181884765625 3.1695556640625 0.030364990234375 3.168136596679688 C 0.03045654296875 3.16741943359375 0.03057861328125 3.166702270507812 0.030670166015625 3.165985107421875 C 0.030853271484375 3.164688110351562 0.031036376953125 3.16326904296875 0.031219482421875 3.161972045898438 C 0.03131103515625 3.161270141601562 0.031402587890625 3.160552978515625 0.031524658203125 3.15985107421875 C 0.031707763671875 3.158447265625 0.031890869140625 3.157180786132812 0.032073974609375 3.15576171875 C 0.032196044921875 3.155059814453125 0.03228759765625 3.154342651367188 0.032379150390625 3.153656005859375 C 0.0328369140625 3.150466918945312 0.033294677734375 3.147308349609375 0.03375244140625 3.144134521484375 C 0.03375244140625 3.144119262695312 0.03375244140625 3.14410400390625 0.03375244140625 3.144088745117188 C 0.033966064453125 3.142669677734375 0.0341796875 3.141189575195312 0.03436279296875 3.139785766601562 C 0.034454345703125 3.139129638671875 0.034576416015625 3.138473510742188 0.03466796875 3.1378173828125 C 0.03485107421875 3.136520385742188 0.0350341796875 3.135208129882812 0.03521728515625 3.133926391601562 C 0.03533935546875 3.133071899414062 0.03546142578125 3.13226318359375 0.035614013671875 3.131423950195312 C 0.035797119140625 3.130126953125 0.035980224609375 3.128860473632812 0.036163330078125 3.1275634765625 C 0.036285400390625 3.1268310546875 0.036407470703125 3.126083374023438 0.0364990234375 3.125350952148438 C 0.036895751953125 3.122650146484375 0.037322998046875 3.119979858398438 0.0377197265625 3.117279052734375 C 0.037811279296875 3.116775512695312 0.037872314453125 3.116317749023438 0.037933349609375 3.115814208984375 C 0.038116455078125 3.114639282226562 0.038299560546875 3.113479614257812 0.038482666015625 3.1123046875 C 0.03863525390625 3.111328125 0.038787841796875 3.1103515625 0.0389404296875 3.109375 C 0.039154052734375 3.108078002929688 0.039306640625 3.107009887695312 0.039520263671875 3.105728149414062 C 0.039642333984375 3.10498046875 0.03973388671875 3.104217529296875 0.03985595703125 3.103469848632812 C 0.040069580078125 3.102066040039062 0.040283203125 3.100784301757812 0.040496826171875 3.099380493164062 C 0.040618896484375 3.098739624023438 0.04071044921875 3.098114013671875 0.040802001953125 3.09747314453125 C 0.041290283203125 3.09454345703125 0.041717529296875 3.091690063476562 0.042205810546875 3.088760375976562 C 0.042266845703125 3.088394165039062 0.042327880859375 3.088043212890625 0.042388916015625 3.087692260742188 C 0.042572021484375 3.086517333984375 0.04278564453125 3.08526611328125 0.04296875 3.0841064453125 C 0.043121337890625 3.083175659179688 0.04327392578125 3.082260131835938 0.043426513671875 3.081329345703125 C 0.043609619140625 3.080154418945312 0.043792724609375 3.079055786132812 0.043975830078125 3.077896118164062 C 0.04412841796875 3.076950073242188 0.044281005859375 3.076004028320312 0.044464111328125 3.075057983398438 C 0.044647216796875 3.073883056640625 0.044830322265625 3.072738647460938 0.0450439453125 3.071563720703125 C 0.04522705078125 3.0704345703125 0.04541015625 3.06927490234375 0.04559326171875 3.068161010742188 C 0.045745849609375 3.067337036132812 0.045928955078125 3.066299438476562 0.046051025390625 3.065475463867188 C 0.04638671875 3.06353759765625 0.046722412109375 3.061569213867188 0.04705810546875 3.059616088867188 C 0.0472412109375 3.058563232421875 0.04742431640625 3.0574951171875 0.047607421875 3.056442260742188 C 0.04779052734375 3.05535888671875 0.0479736328125 3.054244995117188 0.04815673828125 3.053146362304688 C 0.048309326171875 3.052215576171875 0.04852294921875 3.050979614257812 0.0487060546875 3.050048828125 C 0.04888916015625 3.049026489257812 0.049041748046875 3.047988891601562 0.049224853515625 3.046966552734375 C 0.0494384765625 3.045806884765625 0.049591064453125 3.044845581054688 0.0498046875 3.043685913085938 C 0.050018310546875 3.042495727539062 0.05023193359375 3.04132080078125 0.050445556640625 3.040145874023438 C 0.050567626953125 3.039337158203125 0.05078125 3.03826904296875 0.0509033203125 3.037460327148438 C 0.05126953125 3.035430908203125 0.0516357421875 3.033401489257812 0.052001953125 3.0313720703125 C 0.052093505859375 3.030792236328125 0.052215576171875 3.030105590820312 0.052337646484375 3.029525756835938 C 0.0526123046875 3.02801513671875 0.052886962890625 3.0264892578125 0.05316162109375 3.024978637695312 C 0.053314208984375 3.024169921875 0.053436279296875 3.023513793945312 0.0535888671875 3.022689819335938 C 0.0538330078125 3.021286010742188 0.0540771484375 3.0198974609375 0.054351806640625 3.018478393554688 C 0.05450439453125 3.017669677734375 0.05462646484375 3.016876220703125 0.054779052734375 3.01605224609375 C 0.055084228515625 3.014541625976562 0.05535888671875 3.0130615234375 0.055633544921875 3.01153564453125 C 0.05572509765625 3.010955810546875 0.05584716796875 3.010391235351562 0.055938720703125 3.009796142578125 C 0.05633544921875 3.007705688476562 0.056732177734375 3.005569458007812 0.05712890625 3.00347900390625 C 0.057220458984375 3.003005981445312 0.05731201171875 3.002578735351562 0.057403564453125 3.002120971679688 C 0.0577392578125 3.0003662109375 0.058074951171875 2.998611450195312 0.05841064453125 2.996856689453125 C 0.058502197265625 2.996383666992188 0.058624267578125 2.995681762695312 0.0587158203125 2.995223999023438 C 0.05902099609375 2.993637084960938 0.059326171875 2.992034912109375 0.05963134765625 2.990432739257812 C 0.05975341796875 2.98974609375 0.05987548828125 2.989181518554688 0.05999755859375 2.988494873046875 C 0.06036376953125 2.986679077148438 0.060699462890625 2.984893798828125 0.061065673828125 2.98309326171875 C 0.061126708984375 2.982742309570312 0.0611572265625 2.982513427734375 0.061248779296875 2.982162475585938 C 0.062103271484375 2.977783203125 0.062957763671875 2.973388671875 0.0638427734375 2.969009399414062 C 0.063934326171875 2.968551635742188 0.06402587890625 2.9681396484375 0.064117431640625 2.967666625976562 C 0.064453125 2.9659423828125 0.064788818359375 2.964202880859375 0.065155029296875 2.96246337890625 C 0.06524658203125 2.962005615234375 0.06536865234375 2.96136474609375 0.065460205078125 2.960906982421875 C 0.065887451171875 2.958892822265625 0.0662841796875 2.956863403320312 0.06671142578125 2.954849243164062 C 0.06671142578125 2.954727172851562 0.06671142578125 2.954757690429688 0.066741943359375 2.954635620117188 C 0.067657470703125 2.95013427734375 0.068603515625 2.945632934570312 0.06951904296875 2.941131591796875 C 0.069580078125 2.940902709960938 0.06964111328125 2.940582275390625 0.0697021484375 2.940353393554688 C 0.070098876953125 2.938385009765625 0.070526123046875 2.9364013671875 0.0709228515625 2.934432983398438 C 0.071014404296875 2.93408203125 0.071044921875 2.933944702148438 0.07110595703125 2.93359375 C 0.086639404296875 2.860107421875 0.104644775390625 2.787384033203125 0.125 2.715545654296875 Z" stroke="none"/>
    </g>
    <g id="Photo_camera" data-name="Photo camera" transform="translate(155 369.99)">
      <g id="Ellipse_54" data-name="Ellipse 54" transform="translate(0 0.01)" fill="none" stroke="#000" stroke-width="0.1" stroke-dasharray="6">
        <circle cx="31.5" cy="31.5" r="31.5" stroke="none"/>
        <circle cx="31.5" cy="31.5" r="31.45" fill="none"/>
      </g>
      <path id="Photo_camera_icon" data-name="Photo camera icon" d="M5588.536,12614.855h2.372a.285.285,0,0,0,.212-.085.289.289,0,0,0,.084-.211.3.3,0,0,0-.3-.3h-2.372a.3.3,0,0,0-.3.3.29.29,0,0,0,.3.3Zm19.915,1.779h-4.2l-2.143-3.2a.3.3,0,0,0-.245-.134h-7.415a.3.3,0,0,0-.245.134l-2.135,3.2h-4.2a1.869,1.869,0,0,0-1.868,1.869v11.6a1.867,1.867,0,0,0,1.868,1.868h20.583a1.868,1.868,0,0,0,1.869-1.869v-11.6A1.869,1.869,0,0,0,5608.451,12616.635Zm1.275,13.473a1.275,1.275,0,0,1-1.275,1.275h-20.583a1.275,1.275,0,0,1-1.275-1.275v-11.6a1.283,1.283,0,0,1,1.275-1.275h4.36a.291.291,0,0,0,.245-.127l2.143-3.21h7.1l2.135,3.211a.293.293,0,0,0,.245.126h4.36a1.283,1.283,0,0,1,1.275,1.275Zm-11.566-11.4a5.264,5.264,0,1,0,5.264,5.264A5.264,5.264,0,0,0,5598.16,12618.7Zm0,9.935a4.671,4.671,0,1,1,4.671-4.67A4.671,4.671,0,0,1,5598.16,12628.639Zm8.3-9.7a1.187,1.187,0,1,0,1.186,1.187A1.186,1.186,0,0,0,5606.464,12618.94Z" transform="translate(-5566.264 -12591.853)" fill="#8b8b8b"/>
    </g>
  </g>
</svg>
