<svg xmlns="http://www.w3.org/2000/svg" width="45.891" height="40.504" viewBox="0 0 45.891 40.504">
  <g id="Group_21967" data-name="Group 21967" transform="translate(-517.75 -168.504)">
    <path id="Path_30721" data-name="Path 30721" d="M540.519,204.605H520.605A2.606,2.606,0,0,1,518,202V177.693a2.606,2.606,0,0,1,2.605-2.605h2.678" transform="translate(0 -2.74)" fill="none" stroke="#000" stroke-linecap="round" stroke-linejoin="round" stroke-width="0.5"/>
    <path id="Path_30722" data-name="Path 30722" d="M581.01,175.088h2.7a2.606,2.606,0,0,1,2.606,2.605v8.644" transform="translate(-27.259 -2.74)" fill="none" stroke="#000" stroke-linecap="round" stroke-linejoin="round" stroke-width="0.5"/>
    <line id="Line_2855" data-name="Line 2855" x2="25.441" transform="translate(525.792 172.348)" fill="none" stroke="#000" stroke-linecap="round" stroke-linejoin="round" stroke-width="0.5"/>
    <line id="Line_2856" data-name="Line 2856" x2="40.752" transform="translate(518.152 177.831)" fill="none" stroke="#000" stroke-linecap="round" stroke-linejoin="round" stroke-width="0.5"/>
    <path id="Path_30723" data-name="Path 30723" d="M551.329,193.2H554.2a.362.362,0,0,0,.362-.361v-1.23" transform="translate(-14.418 -9.886)" fill="none" stroke="#000" stroke-linecap="round" stroke-linejoin="round" stroke-width="0.5"/>
    <path id="Path_30724" data-name="Path 30724" d="M563.677,193.2h2.872a.361.361,0,0,0,.361-.361v-1.23" transform="translate(-19.76 -9.886)" fill="none" stroke="#000" stroke-linecap="round" stroke-linejoin="round" stroke-width="0.5"/>
    <path id="Path_30725" data-name="Path 30725" d="M576.025,193.2H578.9a.361.361,0,0,0,.361-.361v-1.23" transform="translate(-25.102 -9.886)" fill="none" stroke="#000" stroke-linecap="round" stroke-linejoin="round" stroke-width="0.5"/>
    <path id="Path_30726" data-name="Path 30726" d="M526.632,201.361H529.5a.362.362,0,0,0,.362-.362v-1.23" transform="translate(-3.734 -13.417)" fill="none" stroke="#000" stroke-linecap="round" stroke-linejoin="round" stroke-width="0.5"/>
    <path id="Path_30727" data-name="Path 30727" d="M538.981,201.361h2.872a.362.362,0,0,0,.362-.362v-1.23" transform="translate(-9.077 -13.417)" fill="none" stroke="#000" stroke-linecap="round" stroke-linejoin="round" stroke-width="0.5"/>
    <path id="Path_30728" data-name="Path 30728" d="M551.329,201.361H554.2a.362.362,0,0,0,.362-.362v-1.23" transform="translate(-14.418 -13.417)" fill="none" stroke="#000" stroke-linecap="round" stroke-linejoin="round" stroke-width="0.5"/>
    <path id="Path_30729" data-name="Path 30729" d="M526.632,209.523H529.5a.362.362,0,0,0,.362-.362v-1.23" transform="translate(-3.734 -16.948)" fill="none" stroke="#000" stroke-linecap="round" stroke-linejoin="round" stroke-width="0.5"/>
    <path id="Path_30730" data-name="Path 30730" d="M538.981,209.523h2.872a.362.362,0,0,0,.362-.362v-1.23" transform="translate(-9.077 -16.948)" fill="none" stroke="#000" stroke-linecap="round" stroke-linejoin="round" stroke-width="0.5"/>
    <path id="Path_30731" data-name="Path 30731" d="M551.329,209.523H554.2a.362.362,0,0,0,.362-.362v-1.23" transform="translate(-14.418 -16.948)" fill="none" stroke="#000" stroke-linecap="round" stroke-linejoin="round" stroke-width="0.5"/>
    <path id="Path_30732" data-name="Path 30732" d="M526.632,217.684H529.5a.362.362,0,0,0,.362-.361v-1.23" transform="translate(-3.734 -20.479)" fill="none" stroke="#000" stroke-linecap="round" stroke-linejoin="round" stroke-width="0.5"/>
    <path id="Path_30733" data-name="Path 30733" d="M538.981,217.684h2.872a.362.362,0,0,0,.362-.361v-1.23" transform="translate(-9.077 -20.479)" fill="none" stroke="#000" stroke-linecap="round" stroke-linejoin="round" stroke-width="0.5"/>
    <path id="Path_30734" data-name="Path 30734" d="M551.329,217.684H554.2a.362.362,0,0,0,.362-.361v-1.23" transform="translate(-14.418 -20.479)" fill="none" stroke="#000" stroke-linecap="round" stroke-linejoin="round" stroke-width="0.5"/>
    <path id="Path_30735" data-name="Path 30735" d="M530.381,170.144a1.389,1.389,0,1,0-2.779,0v3.714" transform="translate(-4.154 0)" fill="none" stroke="#000" stroke-linecap="round" stroke-linejoin="round" stroke-width="0.5"/>
    <path id="Path_30736" data-name="Path 30736" d="M579.351,170.144a1.389,1.389,0,1,0-2.779,0v3.714" transform="translate(-25.339 0)" fill="none" stroke="#000" stroke-linecap="round" stroke-linejoin="round" stroke-width="0.5"/>
    <path id="Path_30737" data-name="Path 30737" d="M565.554,199.59h13.825a3.2,3.2,0,0,1,3.2,3.2v11.144a3.2,3.2,0,0,1-3.2,3.2h-1.445a.39.39,0,0,0-.39.39V221.7a.389.389,0,0,1-.665.275l-4.727-4.727a.392.392,0,0,0-.276-.114h-6.322a3.2,3.2,0,0,1-3.2-3.2V202.79A3.2,3.2,0,0,1,565.554,199.59Z" transform="translate(-19.188 -13.34)" fill="none" stroke="#000" stroke-linecap="round" stroke-linejoin="round" stroke-width="0.5"/>
    <path id="Path_30738" data-name="Path 30738" d="M576.316,205.337a4.308,4.308,0,0,0-4.7-.94l-.109.045-.083.083,2.038,2.039-.129,1.9-1.9.129-2.039-2.038-.083.083-.044.109a4.305,4.305,0,0,0,.939,4.7c1,1,2.8,1.083,4.244.774l4.054,4.054a1.864,1.864,0,0,0,2.637-2.637l-4.054-4.054C577.4,208.138,577.321,206.341,576.316,205.337Z" transform="translate(-22.039 -15.278)" fill="none" stroke="#000" stroke-linecap="round" stroke-linejoin="round" stroke-width="0.5"/>
  </g>
</svg>
