<svg xmlns="http://www.w3.org/2000/svg" width="38.095" height="40.465" viewBox="0 0 38.095 40.465">
  <g id="Group_21967" data-name="Group 21967" transform="translate(-309 -377.329)">
    <g id="Group_1159" data-name="Group 1159" transform="translate(318.376 377.329)">
      <g id="Group_1158" data-name="Group 1158" transform="translate(0 0)">
        <g id="Group_1153" data-name="Group 1153" transform="translate(12.992)">
          <path id="Path_2453" data-name="Path 2453" d="M312.354,4088.086l2.207-.615,3.515,12.626-2.206.615h0Zm2.553-1.226-3.009.836-.02.005c-.031.058-.064.116-.1.173l0,0,.185.667,3.52,12.643c.06.029.116.063.174.1h0l3.021-.841Z" transform="translate(-311.78 -4086.861)" fill="#39434d"/>
        </g>
        <g id="Group_1154" data-name="Group 1154" transform="translate(1.251 0.837)">
          <path id="Path_2454" data-name="Path 2454" d="M256.031,4104.743a12.427,12.427,0,0,0-9.029-.929l-4.134,1.151-1.554-5.586,4.134-1.15a12.5,12.5,0,0,0,7.25-5.46Zm.57.194-3.517-12.628-.066-.24-.39-.148-.019.008s0-.006,0,0c-.031.058-.064.116-.1.174a12.257,12.257,0,0,1-7.2,5.651l-4.372,1.217-.172.305,1.688,6.064.3.172,4.373-1.218a11.963,11.963,0,0,1,3.2-.436,12.3,12.3,0,0,1,5.884,1.557c.06.03.116.063.174.1h0l0,0,.271-.331Z" transform="translate(-240.77 -4091.921)" fill="#39434d"/>
        </g>
        <g id="Group_1155" data-name="Group 1155" transform="translate(0 7.817)">
          <path id="Path_2455" data-name="Path 2455" d="M235.752,4140.883h0a1.579,1.579,0,0,1-1.517-1.15l-.974-3.5a1.587,1.587,0,0,1,1.1-1.953l.5-.139,1.821,6.541-.514.143A1.528,1.528,0,0,1,235.752,4140.883Zm-1.232-6.131-.024.008a1.089,1.089,0,0,0-.757,1.34l.974,3.5a1.082,1.082,0,0,0,1.04.788h0a1.074,1.074,0,0,0,.286-.039l.036-.01Z" transform="translate(-233.203 -4134.142)" fill="#39434d"/>
        </g>
        <g id="Group_1156" data-name="Group 1156" transform="translate(4.517 12.675)">
          <path id="Path_2456" data-name="Path 2456" d="M265,4166.978h-2.933l-1.54-2.577,3.165-.883Zm-2.652-.5h1.934l-.894-2.363-2.1.586Z" transform="translate(-260.524 -4163.518)" fill="#39434d"/>
        </g>
        <g id="Group_1157" data-name="Group 1157" transform="translate(17.055 5.066)">
          <path id="Path_2458" data-name="Path 2458" d="M337.559,4121.982l-1.205-4.331.239-.066a2.247,2.247,0,1,1,1.205,4.329Zm-.59-3.97.93,3.342a1.752,1.752,0,0,0,.983-2.073A1.756,1.756,0,0,0,337.2,4118,1.863,1.863,0,0,0,336.97,4118.013Z" transform="translate(-336.354 -4117.501)" fill="#39434d"/>
        </g>
      </g>
    </g>
    <g id="Group_1160" data-name="Group 1160" transform="translate(339.754 382.225)">
      <rect id="Rectangle_265" data-name="Rectangle 265" width="3.483" height="0.496" transform="translate(0 0.936) rotate(-15.598)" fill="#39434d"/>
    </g>
    <g id="Group_1161" data-name="Group 1161" transform="translate(338.426 379.804)">
      <path id="Path_2459" data-name="Path 2459" d="M354.912,4103.384l-.441-.227.227-.442.441.227Zm.453-.883-.441-.226.227-.441.441.227Z" transform="translate(-354.471 -4101.833)" fill="#39434d"/>
    </g>
    <g id="Group_1162" data-name="Group 1162" transform="translate(340.148 385.626)">
      <path id="Path_2460" data-name="Path 2460" d="M366.28,4138.031l-.464-.175.175-.464.464.175Zm-.929-.35-.464-.175.175-.464.464.175Z" transform="translate(-364.887 -4137.042)" fill="#39434d"/>
    </g>
    <g id="Group_1211" data-name="Group 1211" transform="translate(309 402.281)">
      <g id="Group_1186" data-name="Group 1186" transform="translate(0 0)">
        <g id="Group_1179" data-name="Group 1179">
          <g id="Group_1174" data-name="Group 1174">
            <g id="Group_1167" data-name="Group 1167">
              <g id="Group_1163" data-name="Group 1163" transform="translate(8.516 3.074)">
                <path id="Path_2461" data-name="Path 2461" d="M240.154,4263.788a2.05,2.05,0,0,1-.883-.2l-5.813-2.764.213-.449,5.813,2.765a1.55,1.55,0,0,0,1.387-2.772l-6.741-3.511h-6.124v-.5h6.246l6.849,3.566a2.047,2.047,0,0,1-.947,3.861Z" transform="translate(-228.006 -4256.361)" fill="#39434d"/>
              </g>
              <g id="Group_1164" data-name="Group 1164" transform="translate(8.516 5.258)">
                <path id="Path_2462" data-name="Path 2462" d="M241.413,4279.824a8.9,8.9,0,0,1-3.522-.728l-9.21-3.974h-.675v-.5h.778l9.3,4.014a8.382,8.382,0,0,0,6.99-.156l11.111-5.394a1.592,1.592,0,0,0-1.317-2.9l-9.535,4.015a7.669,7.669,0,0,1-7.363-.214l.252-.426c2.144,1.267,4.213,1.321,6.918.182l9.535-4.013a2.087,2.087,0,0,1,1.726,3.8l-11.111,5.395A8.871,8.871,0,0,1,241.413,4279.824Z" transform="translate(-228.006 -4269.569)" fill="#39434d"/>
              </g>
              <g id="Group_1165" data-name="Group 1165">
                <path id="Path_2464" data-name="Path 2464" d="M185.262,4251.71H176.5v-13.941h8.764Zm-8.268-.5h7.772v-12.947h-7.772Z" transform="translate(-176.498 -4237.769)" fill="#39434d"/>
              </g>
              <g id="Group_1166" data-name="Group 1166" transform="translate(1.673 1.925)">
                <path id="Path_2465" data-name="Path 2465" d="M188.095,4252.363a1.476,1.476,0,1,1,1.479-1.476A1.478,1.478,0,0,1,188.095,4252.363Zm0-2.456a.98.98,0,1,0,.983.98A.982.982,0,0,0,188.095,4249.907Z" transform="translate(-186.616 -4249.412)" fill="#39434d"/>
              </g>
            </g>
            <g id="Group_1170" data-name="Group 1170" transform="translate(18.435 6.564)">
              <g id="Group_1168" data-name="Group 1168">
                <path id="Path_2467" data-name="Path 2467" d="M290.222,4281.405a2.035,2.035,0,0,1-.88-.2l-1.324-.637-.022-.021.175-.175.036-.052.079-.167,1.269.6a1.55,1.55,0,0,0,1.389-2.772l-.148-.077.229-.44.148.078a2.046,2.046,0,0,1-.951,3.861Z" transform="translate(-287.996 -4277.466)" fill="#39434d"/>
              </g>
              <g id="Group_1169" data-name="Group 1169" transform="translate(0 1.708)">
                <path id="Path_2468" data-name="Path 2468" d="M291.755,4290.265a7.2,7.2,0,0,1-3.7-1.05l-.058-.045.2-.205-.029.029.077-.11.057-.1.008,0h0c2.143,1.254,4.208,1.306,6.9.172l2.772-1.166.192.458-2.772,1.166A9.39,9.39,0,0,1,291.755,4290.265Z" transform="translate(-287.996 -4287.798)" fill="#39434d"/>
              </g>
            </g>
            <g id="Group_1173" data-name="Group 1173" transform="translate(17.227 6.564)">
              <g id="Group_1171" data-name="Group 1171">
                <path id="Path_2469" data-name="Path 2469" d="M284.123,4281.405a2.035,2.035,0,0,1-.88-.2l-2.554-1.217.213-.447,2.554,1.215a1.55,1.55,0,0,0,1.389-2.772l-.148-.077.229-.44.148.078a2.046,2.046,0,0,1-.951,3.861Z" transform="translate(-280.689 -4277.466)" fill="#39434d"/>
              </g>
              <g id="Group_1172" data-name="Group 1172" transform="translate(1.208 1.708)">
                <path id="Path_2470" data-name="Path 2470" d="M291.772,4290.283a7.332,7.332,0,0,1-3.716-1.067l-.06-.046.175-.176.069-.1.063-.11.01.005h0a7.1,7.1,0,0,0,6.9.172l2.772-1.166.192.458-2.772,1.166A9.319,9.319,0,0,1,291.772,4290.283Z" transform="translate(-287.996 -4287.798)" fill="#39434d"/>
              </g>
            </g>
          </g>
          <g id="Group_1178" data-name="Group 1178" transform="translate(11.785 3.074)">
            <g id="Group_1175" data-name="Group 1175">
              <path id="Path_2471" data-name="Path 2471" d="M258.1,4261.169a1.546,1.546,0,0,0-.723-.8l-6.741-3.511h-2.855v-.5h2.977l6.849,3.566a2.046,2.046,0,0,1,.955,1.058Z" transform="translate(-247.776 -4256.363)" fill="#39434d"/>
            </g>
            <g id="Group_1176" data-name="Group 1176" transform="translate(9.448 3.489)">
              <path id="Path_2472" data-name="Path 2472" d="M305.792,4278.784a1.547,1.547,0,0,0-.723-.8l-.148-.078.23-.439.148.078a2.039,2.039,0,0,1,.955,1.056Z" transform="translate(-304.921 -4277.466)" fill="#39434d"/>
            </g>
            <g id="Group_1177" data-name="Group 1177" transform="translate(9.448 3.489)">
              <path id="Path_2473" data-name="Path 2473" d="M305.792,4278.784a1.547,1.547,0,0,0-.723-.8l-.148-.078.23-.439.148.078a2.039,2.039,0,0,1,.955,1.056Z" transform="translate(-304.921 -4277.466)" fill="#39434d"/>
            </g>
          </g>
        </g>
        <g id="Group_1180" data-name="Group 1180" transform="translate(18.488 9.246)">
          <path id="Path_2474" data-name="Path 2474" d="M289.685,4294.776a7.973,7.973,0,0,1-1.37-.651l.233-.437,1.323.629Z" transform="translate(-288.315 -4293.688)" fill="#39434d"/>
        </g>
        <g id="Group_1181" data-name="Group 1181" transform="translate(18.488 9.246)">
          <path id="Path_2475" data-name="Path 2475" d="M289.685,4294.776a7.973,7.973,0,0,1-1.37-.651l.233-.437,1.323.629Z" transform="translate(-288.315 -4293.688)" fill="#39434d"/>
        </g>
        <g id="Group_1182" data-name="Group 1182" transform="translate(19.842 9.867)">
          <path id="Path_2476" data-name="Path 2476" d="M296.872,4298.03a2.137,2.137,0,0,1-.368-.123l.184-.46c.1.038.21.073.313.1Z" transform="translate(-296.504 -4297.446)" fill="#39434d"/>
        </g>
        <g id="Group_1183" data-name="Group 1183" transform="translate(19.842 9.867)">
          <path id="Path_2477" data-name="Path 2477" d="M296.872,4298.03a2.137,2.137,0,0,1-.368-.123l.184-.46c.1.038.21.073.313.1Z" transform="translate(-296.504 -4297.446)" fill="#39434d"/>
        </g>
        <g id="Group_1184" data-name="Group 1184" transform="translate(10.997 3.074)">
          <path id="Path_2478" data-name="Path 2478" d="M252.676,4263.789a2.047,2.047,0,0,1-.415-.042l-.039-.008a2.057,2.057,0,0,1-.368-.124l-.057-.025-1.227-.584h-.047l-.077-.074.351-.351-.175.175.005-.247h.056l1.373.654a1.61,1.61,0,0,0,.254.086l.035.009a1.51,1.51,0,0,0,.332.036,1.55,1.55,0,0,0,.719-2.925l-6.743-3.511h-3.643v-.5h3.764l6.85,3.566a2.046,2.046,0,0,1-.947,3.86Z" transform="translate(-243.009 -4256.363)" fill="#39434d"/>
        </g>
        <g id="Group_1185" data-name="Group 1185" transform="translate(18.434 6.116)">
          <path id="Path_2479" data-name="Path 2479" d="M291.734,4279.39a6.7,6.7,0,0,1-1.944-.289h0l-.035-.011c-.111-.034-.224-.072-.337-.113a7.929,7.929,0,0,1-1.311-.617h-.035l-.077-.074.175-.175,0-.247h.068l.059.035a7.4,7.4,0,0,0,1.284.61c.1.035.19.067.284.1h0l.035.011a7.455,7.455,0,0,0,5.307-.536l7.894-3.322.192.457-7.894,3.322A9.415,9.415,0,0,1,291.734,4279.39Z" transform="translate(-287.991 -4274.76)" fill="#39434d"/>
        </g>
      </g>
      <g id="Group_1210" data-name="Group 1210" transform="translate(0 0)">
        <g id="Group_1203" data-name="Group 1203">
          <g id="Group_1198" data-name="Group 1198">
            <g id="Group_1191" data-name="Group 1191">
              <g id="Group_1187" data-name="Group 1187" transform="translate(8.516 3.074)">
                <path id="Path_2480" data-name="Path 2480" d="M240.154,4263.788a2.05,2.05,0,0,1-.883-.2l-5.813-2.764.213-.449,5.813,2.765a1.55,1.55,0,0,0,1.387-2.772l-6.741-3.511h-6.124v-.5h6.246l6.849,3.566a2.047,2.047,0,0,1-.947,3.861Z" transform="translate(-228.006 -4256.361)" fill="#39434d"/>
              </g>
              <g id="Group_1188" data-name="Group 1188" transform="translate(8.516 5.258)">
                <path id="Path_2481" data-name="Path 2481" d="M241.413,4279.824a8.9,8.9,0,0,1-3.522-.728l-9.21-3.974h-.675v-.5h.778l9.3,4.014a8.382,8.382,0,0,0,6.99-.156l11.111-5.394a1.592,1.592,0,0,0-1.317-2.9l-9.535,4.015a7.669,7.669,0,0,1-7.363-.214l.252-.426c2.144,1.267,4.213,1.321,6.918.182l9.535-4.013a2.087,2.087,0,0,1,1.726,3.8l-11.111,5.395A8.871,8.871,0,0,1,241.413,4279.824Z" transform="translate(-228.006 -4269.569)" fill="#39434d"/>
              </g>
              <g id="Group_1189" data-name="Group 1189">
                <path id="Path_2482" data-name="Path 2482" d="M185.262,4251.71H176.5v-13.941h8.764Zm-8.268-.5h7.772v-12.947h-7.772Z" transform="translate(-176.498 -4237.769)" fill="#39434d"/>
              </g>
              <g id="Group_1190" data-name="Group 1190" transform="translate(1.673 1.925)">
                <path id="Path_2483" data-name="Path 2483" d="M188.095,4252.363a1.476,1.476,0,1,1,1.479-1.476A1.478,1.478,0,0,1,188.095,4252.363Zm0-2.456a.98.98,0,1,0,.983.98A.982.982,0,0,0,188.095,4249.907Z" transform="translate(-186.616 -4249.412)" fill="#39434d"/>
              </g>
            </g>
            <g id="Group_1194" data-name="Group 1194" transform="translate(18.435 6.564)">
              <g id="Group_1192" data-name="Group 1192">
                <path id="Path_2484" data-name="Path 2484" d="M290.222,4281.405a2.035,2.035,0,0,1-.88-.2l-1.324-.637-.022-.021.175-.175.036-.052.079-.167,1.269.6a1.55,1.55,0,0,0,1.389-2.772l-.148-.077.229-.44.148.078a2.046,2.046,0,0,1-.951,3.861Z" transform="translate(-287.996 -4277.466)" fill="#39434d"/>
              </g>
              <g id="Group_1193" data-name="Group 1193" transform="translate(0 1.708)">
                <path id="Path_2485" data-name="Path 2485" d="M291.755,4290.265a7.2,7.2,0,0,1-3.7-1.05l-.058-.045.2-.205-.029.029.077-.11.057-.1.008,0h0c2.143,1.254,4.208,1.306,6.9.172l2.772-1.166.192.458-2.772,1.166A9.39,9.39,0,0,1,291.755,4290.265Z" transform="translate(-287.996 -4287.798)" fill="#39434d"/>
              </g>
            </g>
            <g id="Group_1197" data-name="Group 1197" transform="translate(17.227 6.564)">
              <g id="Group_1195" data-name="Group 1195">
                <path id="Path_2486" data-name="Path 2486" d="M284.123,4281.405a2.035,2.035,0,0,1-.88-.2l-2.554-1.217.213-.447,2.554,1.215a1.55,1.55,0,0,0,1.389-2.772l-.148-.077.229-.44.148.078a2.046,2.046,0,0,1-.951,3.861Z" transform="translate(-280.689 -4277.466)" fill="#39434d"/>
              </g>
              <g id="Group_1196" data-name="Group 1196" transform="translate(1.208 1.708)">
                <path id="Path_2487" data-name="Path 2487" d="M291.772,4290.283a7.332,7.332,0,0,1-3.716-1.067l-.06-.046.175-.176.069-.1.063-.11.01.005h0a7.1,7.1,0,0,0,6.9.172l2.772-1.166.192.458-2.772,1.166A9.319,9.319,0,0,1,291.772,4290.283Z" transform="translate(-287.996 -4287.798)" fill="#39434d"/>
              </g>
            </g>
          </g>
          <g id="Group_1202" data-name="Group 1202" transform="translate(11.785 3.074)">
            <g id="Group_1199" data-name="Group 1199">
              <path id="Path_2488" data-name="Path 2488" d="M258.1,4261.169a1.546,1.546,0,0,0-.723-.8l-6.741-3.511h-2.855v-.5h2.977l6.849,3.566a2.046,2.046,0,0,1,.955,1.058Z" transform="translate(-247.776 -4256.363)" fill="#39434d"/>
            </g>
            <g id="Group_1200" data-name="Group 1200" transform="translate(9.448 3.489)">
              <path id="Path_2489" data-name="Path 2489" d="M305.792,4278.784a1.547,1.547,0,0,0-.723-.8l-.148-.078.23-.439.148.078a2.039,2.039,0,0,1,.955,1.056Z" transform="translate(-304.921 -4277.466)" fill="#39434d"/>
            </g>
            <g id="Group_1201" data-name="Group 1201" transform="translate(9.448 3.489)">
              <path id="Path_2490" data-name="Path 2490" d="M305.792,4278.784a1.547,1.547,0,0,0-.723-.8l-.148-.078.23-.439.148.078a2.039,2.039,0,0,1,.955,1.056Z" transform="translate(-304.921 -4277.466)" fill="#39434d"/>
            </g>
          </g>
        </g>
        <g id="Group_1204" data-name="Group 1204" transform="translate(18.488 9.246)">
          <path id="Path_2491" data-name="Path 2491" d="M289.685,4294.776a7.973,7.973,0,0,1-1.37-.651l.233-.437,1.323.629Z" transform="translate(-288.315 -4293.688)" fill="#39434d"/>
        </g>
        <g id="Group_1205" data-name="Group 1205" transform="translate(18.488 9.246)">
          <path id="Path_2492" data-name="Path 2492" d="M289.685,4294.776a7.973,7.973,0,0,1-1.37-.651l.233-.437,1.323.629Z" transform="translate(-288.315 -4293.688)" fill="#39434d"/>
        </g>
        <g id="Group_1206" data-name="Group 1206" transform="translate(19.842 9.867)">
          <path id="Path_2493" data-name="Path 2493" d="M296.872,4298.03a2.137,2.137,0,0,1-.368-.123l.184-.46c.1.038.21.073.313.1Z" transform="translate(-296.504 -4297.446)" fill="#39434d"/>
        </g>
        <g id="Group_1207" data-name="Group 1207" transform="translate(19.842 9.867)">
          <path id="Path_2494" data-name="Path 2494" d="M296.872,4298.03a2.137,2.137,0,0,1-.368-.123l.184-.46c.1.038.21.073.313.1Z" transform="translate(-296.504 -4297.446)" fill="#39434d"/>
        </g>
        <g id="Group_1208" data-name="Group 1208" transform="translate(10.997 3.074)">
          <path id="Path_2495" data-name="Path 2495" d="M252.676,4263.789a2.047,2.047,0,0,1-.415-.042l-.039-.008a2.057,2.057,0,0,1-.368-.124l-.057-.025-1.227-.584h-.047l-.077-.074.351-.351-.175.175.005-.247h.056l1.373.654a1.61,1.61,0,0,0,.254.086l.035.009a1.51,1.51,0,0,0,.332.036,1.55,1.55,0,0,0,.719-2.925l-6.743-3.511h-3.643v-.5h3.764l6.85,3.566a2.046,2.046,0,0,1-.947,3.86Z" transform="translate(-243.009 -4256.363)" fill="#39434d"/>
        </g>
        <g id="Group_1209" data-name="Group 1209" transform="translate(18.434 6.116)">
          <path id="Path_2496" data-name="Path 2496" d="M291.734,4279.39a6.7,6.7,0,0,1-1.944-.289h0l-.035-.011c-.111-.034-.224-.072-.337-.113a7.929,7.929,0,0,1-1.311-.617h-.035l-.077-.074.175-.175,0-.247h.068l.059.035a7.4,7.4,0,0,0,1.284.61c.1.035.19.067.284.1h0l.035.011a7.455,7.455,0,0,0,5.307-.536l7.894-3.322.192.457-7.894,3.322A9.415,9.415,0,0,1,291.734,4279.39Z" transform="translate(-287.991 -4274.76)" fill="#39434d"/>
        </g>
      </g>
    </g>
    <g id="Group_1217" data-name="Group 1217" transform="translate(312.236 392.967)">
      <g id="Group_1212" data-name="Group 1212" transform="translate(3.768 0)">
        <path id="Path_2497" data-name="Path 2497" d="M232.229,4181.441v14.527h-.5v-13.593l-3.122,3.749h-9.256v4.053h-.5v-4.549h9.52l2.435-2.926.637-.764.185-.223.1-.116.131-.157Z" transform="translate(-218.86 -4181.441)" fill="#39434d"/>
      </g>
      <g id="Group_1213" data-name="Group 1213" transform="translate(19.53 15.946)">
        <rect id="Rectangle_268" data-name="Rectangle 268" width="7.475" height="0.496" fill="#39434d"/>
      </g>
      <g id="Group_1214" data-name="Group 1214" transform="translate(16.642 0)">
        <path id="Path_2499" data-name="Path 2499" d="M310.089,4185.628v10.846h-.5v-10.35h-9.3l-3.08-3.7v13.542h-.5v-14.527h.322l.174.208.053.065.187.223,3.072,3.69Z" transform="translate(-296.72 -4181.441)" fill="#39434d"/>
      </g>
      <g id="Group_1215" data-name="Group 1215" transform="translate(0 0)">
        <path id="Path_2502" data-name="Path 2502" d="M199.97,4181.441l-3.9,4.682h13.52l3.122-3.748h0l.227-.271.27-.324.053-.065.228-.272Zm11.824,1.26-2.437,2.926H197.13l3.072-3.69H212.43Z" transform="translate(-196.07 -4181.441)" fill="#39434d"/>
      </g>
      <g id="Group_1216" data-name="Group 1216" transform="translate(16.318 0)">
        <path id="Path_2503" data-name="Path 2503" d="M308.323,4181.441H294.76l.228.272.1.116.227.273.269.322h0l3.079,3.7h13.515Zm-9.431,4.187-3.072-3.69h12.268l3.036,3.69Z" transform="translate(-294.76 -4181.441)" fill="#39434d"/>
      </g>
    </g>
  </g>
</svg>
