<svg xmlns="http://www.w3.org/2000/svg" width="37.339" height="37.362" viewBox="0 0 37.339 37.362">
  <g id="Wrenching" transform="translate(-281.985 -1417.618)">
    <g id="Group_335" data-name="Group 335" transform="translate(281.985 1417.618)">
      <path id="Path_598" data-name="Path 598" d="M319.083,1429.964l-.718-3.027-5.935,5.935-5.4-1.473-1.473-5.4,5.936-5.936-3.027-.718a1.736,1.736,0,0,0-1.628.462l-5.234,5.233a1.737,1.737,0,0,0-.447,1.685l.678,2.486a3.473,3.473,0,0,1-.895,3.37l-12.3,12.3a5.558,5.558,0,1,0,4.925,4.9l12.288-12.288a3.472,3.472,0,0,1,3.37-.895l2.486.678a1.738,1.738,0,0,0,1.685-.447l5.233-5.234A1.735,1.735,0,0,0,319.083,1429.964ZM290,1452.368a2.779,2.779,0,1,1,0-3.93A2.779,2.779,0,0,1,290,1452.368Z" transform="translate(-282.139 -1418.946)" fill="#fff"/>
      <path id="Path_599" data-name="Path 599" d="M287.883,1456.155c-.109,0-.219,0-.329-.009a5.862,5.862,0,0,1-4.3-2.228,5.9,5.9,0,0,1,5.093-9.552l12.186-12.186a3.133,3.133,0,0,0,.805-3.034l-.678-2.487a2.089,2.089,0,0,1,.537-2.022l5.233-5.233a2.07,2.07,0,0,1,1.954-.554l3.028.718a.348.348,0,0,1,.165.583l-5.793,5.793,1.369,5.018,5.017,1.368,5.793-5.793a.347.347,0,0,1,.584.166l.718,3.027h0a2.07,2.07,0,0,1-.554,1.955l-5.234,5.233a2.09,2.09,0,0,1-2.022.537l-2.486-.678a3.124,3.124,0,0,0-3.033.806l-12.173,12.172a5.9,5.9,0,0,1-5.883,6.4Zm0-11.113a5.211,5.211,0,1,0,5.181,4.622.348.348,0,0,1,.1-.284l12.289-12.288a3.827,3.827,0,0,1,3.707-.985l2.486.678a1.392,1.392,0,0,0,1.348-.358l5.234-5.233a1.382,1.382,0,0,0,.37-1.3l-.575-2.422-5.5,5.5a.352.352,0,0,1-.337.09l-5.4-1.474a.347.347,0,0,1-.244-.243l-1.473-5.4a.347.347,0,0,1,.089-.337l5.5-5.5-2.422-.574a1.38,1.38,0,0,0-1.3.369l-5.233,5.233a1.394,1.394,0,0,0-.358,1.348l.679,2.486a3.83,3.83,0,0,1-.984,3.708l-12.3,12.3a.343.343,0,0,1-.283.1A5.266,5.266,0,0,0,287.878,1445.042Zm.008,8.334a3.126,3.126,0,1,1,2.21-.916h0A3.105,3.105,0,0,1,287.886,1453.376Zm0-5.558a2.432,2.432,0,0,0-1.72,4.151,2.491,2.491,0,0,0,3.439,0h0a2.432,2.432,0,0,0-1.719-4.151Z" transform="translate(-281.985 -1418.793)" fill="#263238"/>
    </g>
    <g id="Group_336" data-name="Group 336" transform="translate(293.222 1434.76)">
      <path id="Path_600" data-name="Path 600" d="M299.693,1452.429a1.038,1.038,0,0,1-.737-.3l-.491-.491a1.044,1.044,0,0,1,0-1.474l6.386-6.386a1.042,1.042,0,0,1,1.473,0l.491.491a1.043,1.043,0,0,1,0,1.474l-6.386,6.386A1.038,1.038,0,0,1,299.693,1452.429Zm5.895-8.266a.346.346,0,0,0-.245.1l-6.386,6.386a.348.348,0,0,0,0,.491l.49.491a.348.348,0,0,0,.492,0l6.386-6.386a.348.348,0,0,0,0-.491l-.491-.491A.349.349,0,0,0,305.587,1444.163Z" transform="translate(-298.16 -1443.469)" fill="#263238"/>
    </g>
    <g id="Group_337" data-name="Group 337" transform="translate(306.525 1418.876)">
      <path id="Path_601" data-name="Path 601" d="M324.534,1432.146a.331.331,0,0,1-.091-.013l-5.4-1.473a.349.349,0,0,1-.244-.243l-1.473-5.4a.347.347,0,0,1,.09-.337l3.97-3.971a.35.35,0,0,1,.337-.09l5.4,1.473a.35.35,0,0,1,.244.244l1.473,5.4a.345.345,0,0,1-.09.337l-3.971,3.971A.347.347,0,0,1,324.534,1432.146Zm-5.121-2.1,5.018,1.369,3.685-3.685-1.369-5.018-5.018-1.369-3.685,3.686Z" transform="translate(-317.309 -1420.603)" fill="#263238"/>
    </g>
    <g id="Group_338" data-name="Group 338" transform="translate(310.106 1422.457)">
      <path id="Path_602" data-name="Path 602" d="M322.812,1430.137a.348.348,0,0,1-.246-.593l3.685-3.685a.347.347,0,0,1,.491.491l-3.685,3.685A.344.344,0,0,1,322.812,1430.137Z" transform="translate(-322.465 -1425.758)" fill="#263238"/>
    </g>
    <g id="Group_339" data-name="Group 339" transform="translate(310.106 1422.457)">
      <path id="Path_603" data-name="Path 603" d="M326.5,1430.137a.347.347,0,0,1-.246-.1l-3.685-3.685a.347.347,0,1,1,.491-.491l3.685,3.685a.348.348,0,0,1-.245.593Z" transform="translate(-322.465 -1425.758)" fill="#263238"/>
    </g>
    <g id="Group_340" data-name="Group 340" transform="translate(282.58 1418.224)">
      <path id="Path_604" data-name="Path 604" d="M296.119,1435.993a.344.344,0,0,1-.245-.1l-7.357-7.356a.341.341,0,0,0-.161-.092l-1.53-.382a1.053,1.053,0,0,1-.6-.406l-3.193-4.471a1.037,1.037,0,0,1,.11-1.342l1.869-1.87a1.04,1.04,0,0,1,1.343-.111l4.47,3.193a1.047,1.047,0,0,1,.406.6l.382,1.531a.346.346,0,0,0,.092.161l7.334,7.334a.347.347,0,0,1-.491.491l-7.334-7.334a1.047,1.047,0,0,1-.274-.484l-.382-1.53a.353.353,0,0,0-.136-.2l-4.47-3.192a.347.347,0,0,0-.448.036l-1.869,1.87a.345.345,0,0,0-.037.447l3.194,4.471a.352.352,0,0,0,.2.136l1.529.381a1.045,1.045,0,0,1,.485.276l7.356,7.356a.348.348,0,0,1-.246.593Z" transform="translate(-282.841 -1419.665)" fill="#263238"/>
    </g>
    <g id="Group_341" data-name="Group 341" transform="translate(300.833 1436.488)">
      <path id="Path_605" data-name="Path 605" d="M315.223,1446.644l-5.4,5.4a.7.7,0,0,0,0,.982l.491.491a.694.694,0,0,0,.982,0l.246-.246,10.07,10.07a1.737,1.737,0,0,0,2.456,0l2.456-2.456a1.737,1.737,0,0,0,0-2.456l-10.07-10.07.246-.245a.7.7,0,0,0,0-.982l-.492-.492A.7.7,0,0,0,315.223,1446.644Z" transform="translate(-309.269 -1446.103)" fill="#fff"/>
      <path id="Path_606" data-name="Path 606" d="M322.684,1464.053a2.077,2.077,0,0,1-1.473-.609l-9.824-9.825a1.067,1.067,0,0,1-1.473,0l-.491-.491a1.041,1.041,0,0,1,0-1.474l5.4-5.4h0a1.067,1.067,0,0,1,1.473,0l.491.491a1.043,1.043,0,0,1,0,1.473l9.824,9.825a2.083,2.083,0,0,1,0,2.947l-2.456,2.457A2.077,2.077,0,0,1,322.684,1464.053Zm-11.3-11.273a.345.345,0,0,1,.245.1l10.07,10.07a1.392,1.392,0,0,0,1.965,0l2.456-2.456a1.389,1.389,0,0,0,0-1.965l-10.07-10.07a.347.347,0,0,1,0-.492l.245-.245a.348.348,0,0,0,0-.491l-.491-.491a.353.353,0,0,0-.49,0h0l-5.4,5.4a.348.348,0,0,0,0,.491l.491.491a.353.353,0,0,0,.49,0l.246-.245A.348.348,0,0,1,311.386,1452.78Zm3.684-6.284h0Z" transform="translate(-309.116 -1445.955)" fill="#263238"/>
    </g>
    <g id="Group_342" data-name="Group 342" transform="translate(305.644 1441.301)">
      <path id="Path_607" data-name="Path 607" d="M324.8,1463.018a1.379,1.379,0,0,1-.982-.407l-7.369-7.369a1.392,1.392,0,0,1,0-1.965,1.423,1.423,0,0,1,1.965,0l7.369,7.369a1.389,1.389,0,0,1-.983,2.372Zm-7.368-9.452a.694.694,0,0,0-.492,1.185l7.369,7.369a.712.712,0,0,0,.982,0,.7.7,0,0,0,0-.982l-7.368-7.369A.692.692,0,0,0,317.431,1453.566Z" transform="translate(-316.042 -1452.884)" fill="#263238"/>
    </g>
  </g>
</svg>
