<svg xmlns="http://www.w3.org/2000/svg" width="22.904" height="23.363" viewBox="0 0 22.904 23.363">
  <g id="Guest-User-icon" transform="translate(-4895.243 -363.672)">
    <path id="Path_30233" data-name="Path 30233" d="M5254.448,731.431a5.8,5.8,0,1,0,5.8,5.8A5.8,5.8,0,0,0,5254.448,731.431Zm3.591,6.062h-3.328v3.328h-.527v-3.328h-3.328v-.527h3.328v-3.328h.527v3.328h3.328Z" transform="translate(-342.1 -355.993)" fill="#fff"/>
    <path id="Path_30234" data-name="Path 30234" d="M5058.01,372.549a4.439,4.439,0,1,0-4.438-4.439A4.444,4.444,0,0,0,5058.01,372.549Z" transform="translate(-153.263)" fill="#fff"/>
    <path id="Path_30235" data-name="Path 30235" d="M4895.5,723.179l-.259,1.264h10.445a7.346,7.346,0,0,1,2.071-8.936,8.61,8.61,0,0,0-3.012-.553C4900.289,714.955,4896.488,718.337,4895.5,723.179Z" transform="translate(0 -340.044)" fill="#fff"/>
  </g>
</svg>
