<svg xmlns="http://www.w3.org/2000/svg" width="41.869" height="19.02" viewBox="0 0 41.869 19.02" class="aljMyCarLogoStyle">
  <g id="Group_19059" data-name="Group 19059" transform="translate(0.235 0.176)">
    <path id="Path_29481" data-name="Path 29481" d="M74.608,333.439c-2.827-.105-4.22-1.933-4.5-4.6-.435-4.175.329-2.638,3.651-3.91,5.83-2.234,9.476-5.161,16.207-3.992,4.706.817,8.633,3.623,13.041,5.021,2.121.673,6.46.664,7.775,2.917,1.849,3.17-1.013,4.328-3.725,4.582" transform="translate(-70 -320.673)" fill="none" stroke="#000" stroke-linecap="round" stroke-linejoin="round" stroke-width="0.5"/>
    <line id="Line_2669" data-name="Line 2669" x2="13.235" transform="translate(14.253 13.06)" fill="none" stroke="#000" stroke-linecap="round" stroke-linejoin="round" stroke-width="0.5"/>
    <path id="Path_29482" data-name="Path 29482" d="M142.773,336.87c-.161,0-.369-.017-.583-.035-1.606-.137-1.949-.478-2.38-1.245" transform="translate(-103.707 -327.876)" fill="none" stroke="#000" stroke-linecap="round" stroke-linejoin="round" stroke-width="0.5"/>
    <path id="Path_29483" data-name="Path 29483" d="M88.5,341.386a3.139,3.139,0,1,0-3.139,3.139A3.139,3.139,0,0,0,88.5,341.386Z" transform="translate(-75.902 -329.159)" fill="none" stroke="#000" stroke-linecap="round" stroke-linejoin="round" stroke-width="0.5"/>
    <path id="Path_29484" data-name="Path 29484" d="M132.586,341.386a3.139,3.139,0,1,0-3.139,3.139A3.139,3.139,0,0,0,132.586,341.386Z" transform="translate(-97.187 -329.159)" fill="none" stroke="#000" stroke-linecap="round" stroke-linejoin="round" stroke-width="0.5"/>
    <path id="Path_29485" data-name="Path 29485" d="M75.191,335.119c-1.115.48-1.579-.208-1.392-1.507a.235.235,0,0,1,.232-.2H76.2a.207.207,0,0,1,.2.26c-.011.043-.024.086-.037.13A2.35,2.35,0,0,1,75.191,335.119Z" transform="translate(-71.815 -326.825)" fill="none" stroke="#000" stroke-linecap="round" stroke-linejoin="round" stroke-width="0.5"/>
    <path id="Path_29486" data-name="Path 29486" d="M103.589,327.832l9.983.649a.3.3,0,0,0,.129-.562c-.584-.271-1.223-.571-1.658-.787a26.214,26.214,0,0,0-6.245-2.285,19.781,19.781,0,0,0-2.775-.3Z" transform="translate(-85.945 -322.545)" fill="none" stroke="#000" stroke-linecap="round" stroke-linejoin="round" stroke-width="0.5"/>
    <path id="Path_29487" data-name="Path 29487" d="M94.1,324.839a18.352,18.352,0,0,0-3.952,1.148c-.17.068-.765.347-1.4.632a.474.474,0,0,0,.167.905l5.647.348Z" transform="translate(-78.92 -322.685)" fill="none" stroke="#000" stroke-linecap="round" stroke-linejoin="round" stroke-width="0.5"/>
    <path id="Path_29488" data-name="Path 29488" d="M88.358,343.4a.981.981,0,1,0-.981.981A.981.981,0,0,0,88.358,343.4Z" transform="translate(-77.916 -331.173)" fill="none" stroke="#000" stroke-linecap="round" stroke-linejoin="round" stroke-width="0.5"/>
    <path id="Path_29489" data-name="Path 29489" d="M132.443,343.4a.981.981,0,1,0-.981.981A.981.981,0,0,0,132.443,343.4Z" transform="translate(-99.202 -331.173)" fill="none" stroke="#000" stroke-linecap="round" stroke-linejoin="round" stroke-width="0.5"/>
    <path id="Path_30237" data-name="Path 30237" d="M37.236,0" transform="translate(1.806 15.741)" fill="none" stroke="#000" stroke-linecap="round" stroke-width="0.5"/>
    <path id="Path_30236" data-name="Path 30236" d="M30,0" transform="translate(5.426 18.844)" fill="none" stroke="#000" stroke-linecap="round" stroke-width="0.5"/>
  </g>
</svg>