<svg xmlns="http://www.w3.org/2000/svg" width="52.448" height="50" viewBox="0 0 52.448 50">
  <g id="Group_21586" data-name="Group 21586" transform="translate(-69.768 -280.639)">
    <path id="Path_29435" data-name="Path 29435" d="M75.787,336.7c-3.55-.132-5.3-2.428-5.647-5.772-.546-5.243.414-3.312,4.584-4.91,7.321-2.8,11.9-6.481,20.352-5.014,5.909,1.025,10.84,4.55,16.376,6.3,2.664.845,8.113.833,9.763,3.663,2.322,3.981-1.272,5.434-4.677,5.754" transform="translate(0 -13.948)" fill="none" stroke="#333" stroke-linecap="round" stroke-linejoin="round" stroke-width="0.5"/>
    <line id="Line_2630" data-name="Line 2630" x2="16.62" transform="translate(87.897 323.126)" fill="none" stroke="#333" stroke-linecap="round" stroke-linejoin="round" stroke-width="0.5"/>
    <path id="Path_29436" data-name="Path 29436" d="M143.531,337.2c-.2,0-.464-.021-.733-.044-2.017-.171-2.447-.6-2.988-1.563" transform="translate(-24.474 -19.177)" fill="none" stroke="#333" stroke-linecap="round" stroke-linejoin="round" stroke-width="0.5"/>
    <path id="Path_29437" data-name="Path 29437" d="M90.107,342.189a3.942,3.942,0,1,0-3.942,3.942A3.942,3.942,0,0,0,90.107,342.189Z" transform="translate(-4.285 -20.108)" fill="none" stroke="#333" stroke-linecap="round" stroke-linejoin="round" stroke-width="0.5"/>
    <path id="Path_29438" data-name="Path 29438" d="M134.192,342.189a3.942,3.942,0,1,0-3.942,3.942A3.942,3.942,0,0,0,134.192,342.189Z" transform="translate(-19.74 -20.108)" fill="none" stroke="#333" stroke-linecap="round" stroke-linejoin="round" stroke-width="0.5"/>
    <path id="Path_29439" data-name="Path 29439" d="M75.557,335.555c-1.4.6-1.983-.262-1.748-1.892a.3.3,0,0,1,.292-.249h2.726a.26.26,0,0,1,.252.327c-.014.054-.03.108-.046.164A2.951,2.951,0,0,1,75.557,335.555Z" transform="translate(-1.318 -18.414)" fill="none" stroke="#333" stroke-linecap="round" stroke-linejoin="round" stroke-width="0.5"/>
    <path id="Path_29440" data-name="Path 29440" d="M103.734,328.672l12.536.814a.371.371,0,0,0,.162-.705c-.734-.34-1.535-.718-2.081-.988a32.922,32.922,0,0,0-7.842-2.869,24.848,24.848,0,0,0-3.485-.373Z" transform="translate(-11.578 -15.306)" fill="none" stroke="#333" stroke-linecap="round" stroke-linejoin="round" stroke-width="0.5"/>
    <path id="Path_29441" data-name="Path 29441" d="M95.54,324.839a23.043,23.043,0,0,0-4.963,1.441c-.214.086-.961.435-1.752.794a.6.6,0,0,0,.209,1.137l7.092.436Z" transform="translate(-6.477 -15.408)" fill="none" stroke="#333" stroke-linecap="round" stroke-linejoin="round" stroke-width="0.5"/>
    <path id="Path_29442" data-name="Path 29442" d="M88.86,343.652a1.232,1.232,0,1,0-1.232,1.232A1.232,1.232,0,0,0,88.86,343.652Z" transform="translate(-5.748 -21.571)" fill="none" stroke="#333" stroke-linecap="round" stroke-linejoin="round" stroke-width="0.5"/>
    <path id="Path_29443" data-name="Path 29443" d="M132.944,343.652a1.232,1.232,0,1,0-1.231,1.232A1.232,1.232,0,0,0,132.944,343.652Z" transform="translate(-21.203 -21.571)" fill="none" stroke="#333" stroke-linecap="round" stroke-linejoin="round" stroke-width="0.5"/>
    <line id="Line_2631" data-name="Line 2631" x2="46.758" transform="translate(72.268 326.492)" fill="none" stroke="#333" stroke-linecap="round" stroke-linejoin="round" stroke-width="0.5"/>
    <line id="Line_2632" data-name="Line 2632" x2="37.666" transform="translate(76.814 330.389)" fill="none" stroke="#333" stroke-linecap="round" stroke-linejoin="round" stroke-width="0.5"/>
    <line id="Line_2633" data-name="Line 2633" x2="5.195" transform="translate(71.618 307.01)" fill="none" stroke="#333" stroke-linecap="round" stroke-linejoin="round" stroke-width="0.5"/>
    <line id="Line_2634" data-name="Line 2634" x2="3.897" transform="translate(77.463 303.113)" fill="none" stroke="#333" stroke-linecap="round" stroke-linejoin="round" stroke-width="0.5"/>
    <line id="Line_2635" data-name="Line 2635" x2="5.845" transform="translate(111.882 306.36)" fill="none" stroke="#333" stroke-linecap="round" stroke-linejoin="round" stroke-width="0.5"/>
    <line id="Line_2636" data-name="Line 2636" x2="3.897" transform="translate(117.078 310.586)" fill="none" stroke="#333" stroke-linecap="round" stroke-linejoin="round" stroke-width="0.5"/>
    <path id="Path_29444" data-name="Path 29444" d="M131.814,280.889H115.99a3.663,3.663,0,0,0-3.663,3.663v12.755a3.663,3.663,0,0,0,3.663,3.663h1.654a.446.446,0,0,1,.446.445V306.2a.446.446,0,0,0,.761.315l5.411-5.411a.444.444,0,0,1,.315-.131h7.236a3.663,3.663,0,0,0,3.663-3.663V284.552A3.663,3.663,0,0,0,131.814,280.889Z" transform="translate(-14.839)" fill="none" stroke="#333" stroke-linecap="round" stroke-linejoin="round" stroke-width="0.5"/>
    <path id="Path_29445" data-name="Path 29445" d="M125.069,286.819a4.928,4.928,0,0,1,5.375-1.075l.125.051.1.1-2.333,2.333.147,2.174,2.174.148,2.333-2.333.1.1.051.125a4.929,4.929,0,0,1-1.075,5.376c-1.149,1.149-3.206,1.239-4.857.886l-4.64,4.641a2.134,2.134,0,0,1-3.018-3.018l4.64-4.64C123.83,290.026,123.919,287.969,125.069,286.819Z" transform="translate(-17.15 -1.571)" fill="none" stroke="#333" stroke-linecap="round" stroke-linejoin="round" stroke-width="0.5"/>
    <line id="Line_2637" data-name="Line 2637" y1="0.674" x2="0.674" transform="translate(84.316 295.248)" fill="none" stroke="#333" stroke-linecap="round" stroke-linejoin="round" stroke-width="0.5"/>
    <line id="Line_2638" data-name="Line 2638" y1="0.674" x2="0.674" transform="translate(87.955 291.609)" fill="none" stroke="#333" stroke-linecap="round" stroke-linejoin="round" stroke-width="0.5"/>
    <line id="Line_2639" data-name="Line 2639" x1="0.674" y1="0.674" transform="translate(87.955 295.248)" fill="none" stroke="#333" stroke-linecap="round" stroke-linejoin="round" stroke-width="0.5"/>
    <line id="Line_2640" data-name="Line 2640" x1="0.674" y1="0.674" transform="translate(84.316 291.609)" fill="none" stroke="#333" stroke-linecap="round" stroke-linejoin="round" stroke-width="0.5"/>
    <line id="Line_2641" data-name="Line 2641" x2="0.185" y2="0.185" transform="translate(77.651 286.259)" fill="none" stroke="#333" stroke-linecap="round" stroke-linejoin="round" stroke-width="0.5"/>
    <line id="Line_2642" data-name="Line 2642" x2="0.185" y2="0.185" transform="translate(75.002 283.611)" fill="none" stroke="#333" stroke-linecap="round" stroke-linejoin="round" stroke-width="0.5"/>
    <line id="Line_2643" data-name="Line 2643" y1="0.185" x2="0.185" transform="translate(77.651 283.611)" fill="none" stroke="#333" stroke-linecap="round" stroke-linejoin="round" stroke-width="0.5"/>
    <line id="Line_2644" data-name="Line 2644" y1="0.185" x2="0.185" transform="translate(75.002 286.259)" fill="none" stroke="#333" stroke-linecap="round" stroke-linejoin="round" stroke-width="0.5"/>
  </g>
</svg>
