<svg xmlns="http://www.w3.org/2000/svg" width="17.984" height="19.482" viewBox="0 0 17.984 19.482">
  <path id="Path_14644" data-name="Path 14644" d="M26.995,35.485H22.873a1.873,1.873,0,1,1,0-3.747H24V27.992a5.995,5.995,0,1,1,11.989,0v3.747h1.124a1.873,1.873,0,1,1,0,3.747H32.989a3,3,0,1,1-5.995,0Zm.749,0a2.248,2.248,0,0,0,4.5,0Zm7.493-3.747V27.992a5.245,5.245,0,1,0-10.491,0v3.747Zm-12.364.749a1.124,1.124,0,1,0,0,2.248H37.111a1.124,1.124,0,1,0,0-2.248Zm8.992-11.615a.375.375,0,0,1-.749,0,1.124,1.124,0,1,0-2.248,0,.375.375,0,0,1-.749,0,1.873,1.873,0,1,1,3.747,0ZM26.62,30.24a.375.375,0,0,1-.749,0V27.992a4.121,4.121,0,0,1,4.121-4.121.375.375,0,0,1,0,.749,3.372,3.372,0,0,0-3.372,3.372Z" transform="translate(-21 -19)" fill="#ededed"/>
</svg>
