<svg xmlns="http://www.w3.org/2000/svg" width="44.005" height="39.999" viewBox="0 0 44.005 39.999">
  <g id="Group_21968" data-name="Group 21968" transform="translate(-174.45 -281.891)">
    <g id="Group_944" data-name="Group 944" transform="translate(178.949 302.14)">
      <path id="Path_2285" data-name="Path 2285" d="M211.352,3346.581l-.141.169-.107.128,0,0-.192.233-3.753,4.506H195.71v14.709h16.036v-19.75Zm-.141,19.215H196.244v-13.641h11.161l3.806-4.57Z" transform="translate(-195.71 -3346.581)" fill="#333"/>
    </g>
    <g id="Group_945" data-name="Group 945" transform="translate(194.451 302.14)">
      <path id="Path_2287" data-name="Path 2287" d="M287.288,3351.621l-3.753-4.506-.2-.237h0l-.053-.066-.192-.231h-.342v19.75h16.034v-14.709ZM298.25,3365.8H283.284v-18.148l3.754,4.507H298.25Z" transform="translate(-282.75 -3346.581)" fill="#333"/>
    </g>
    <g id="Group_946" data-name="Group 946" transform="translate(194.075 302.14)">
      <path id="Path_2289" data-name="Path 2289" d="M281.849,3346.581l-.244.3h0l-.053.065-.036.043-.249.3,0,0-.228-.258-.02-.023-.11-.125-.265-.3Z" transform="translate(-280.64 -3346.581)" fill="#333"/>
    </g>
    <g id="Group_947" data-name="Group 947" transform="translate(194.075 302.14)">
      <path id="Path_2290" data-name="Path 2290" d="M281.849,3346.581l-.244.3h0l-.053.065-.036.043-.249.3,0,0-.228-.258-.02-.023-.11-.125-.265-.3Z" transform="translate(-280.64 -3346.581)" fill="#333"/>
    </g>
    <g id="Group_948" data-name="Group 948" transform="translate(194.098 302.14)">
      <path id="Path_2292" data-name="Path 2292" d="M281.657,3346.581v1.071l-.294-.355-.221-.267-.02-.023-.107-.128-.246-.3Z" transform="translate(-280.77 -3346.581)" fill="#333"/>
    </g>
    <g id="Group_949" data-name="Group 949" transform="translate(177.258 289.345)">
      <path id="Path_2293" data-name="Path 2293" d="M196.664,3288.068h-4.1l-1.867-4.988a1.934,1.934,0,0,0-1.5-1.239,3.577,3.577,0,0,1-2.027-5.961l.271-.292,1.377,2.978a.511.511,0,0,0,.524.293l.924-.108a.512.512,0,0,0,.407-.723l-1.5-3.256.388-.026a3.575,3.575,0,0,1,3.342,5.336,1.926,1.926,0,0,0,0,1.885Zm-3.727-.534h2.77l-3.268-5.3a2.467,2.467,0,0,1,0-2.42A3.04,3.04,0,0,0,190,3275.28l1.166,2.524a1.047,1.047,0,0,1-.83,1.478l-.924.108a1.047,1.047,0,0,1-1.072-.6l-1.029-2.227a3.043,3.043,0,0,0,1.983,4.751,2.468,2.468,0,0,1,1.909,1.581Z" transform="translate(-186.219 -3274.739)" fill="#333"/>
    </g>
    <g id="Group_955" data-name="Group 955" transform="translate(203.949 287.206)">
      <g id="Group_950" data-name="Group 950" transform="translate(3.339 0.793)">
        <path id="Path_2295" data-name="Path 2295" d="M359.834,3273.9l-5.005-1.851,1.8-4.872,5.005,1.851Zm-4.319-2.167,4,1.48,1.431-3.87-4-1.48Z" transform="translate(-354.829 -3267.178)" fill="#333"/>
      </g>
      <g id="Group_951" data-name="Group 951">
        <path id="Path_2296" data-name="Path 2296" d="M338.545,3267.487l-2.463-.911,1.423-3.848,2.463.911Zm-1.777-1.227,1.461.54,1.052-2.846-1.461-.54Z" transform="translate(-336.082 -3262.728)" fill="#333"/>
      </g>
      <g id="Group_952" data-name="Group 952" transform="translate(2.169 1.287)">
        <path id="Path_2297" data-name="Path 2297" d="M350.331,3273.444l-2.068-.765,1.008-2.725,2.068.765Zm-1.381-1.081,1.065.394.637-1.723-1.065-.394Z" transform="translate(-348.263 -3269.954)" fill="#333"/>
      </g>
      <g id="Group_953" data-name="Group 953" transform="translate(8.894 2.458)">
        <path id="Path_2298" data-name="Path 2298" d="M391.633,3282.371l-1.7-.627-.047-.1a5.561,5.561,0,0,0-3.087-2.8l-.781-.289.75-2.029.778.287a6.081,6.081,0,0,1,3.875,4.526Zm-1.31-1.054.6.221-.018-.088a5.549,5.549,0,0,0-3.537-4.13l-.276-.1-.38,1.027.28.1A6.089,6.089,0,0,1,390.323,3281.317Z" transform="translate(-386.022 -3276.53)" fill="#333"/>
      </g>
      <g id="Group_954" data-name="Group 954" transform="translate(1.028 5.591)">
        <path id="Path_2299" data-name="Path 2299" d="M344.837,3304h-2.981l3.652-9.877,2.622.971Zm-2.214-.534h1.842l2.979-8.056-1.62-.6Z" transform="translate(-341.856 -3294.121)" fill="#333"/>
      </g>
    </g>
    <g id="Group_957" data-name="Group 957" transform="translate(186.868 283.854)">
      <g id="Group_956" data-name="Group 956" transform="translate(0 0)">
        <path id="Path_2301" data-name="Path 2301" d="M248.888,3259.5h-1.632l-1.16-2.944-2.915,1.272-.15-.179-1.175-1.168,1.26-2.9-2.938-1.157v-1.632l2.938-1.154-1.257-2.892.19-.2.959-.959,2.9,1.259,1.154-2.941h1.632l1.16,2.941,2.9-1.259,1.341,1.341-1.265,2.9,2.943,1.16v1.632l-2.943,1.154,1.266,2.9-.2.193-.954.958-2.9-1.265Zm-1.268-.534h.9l1.224-3.121,3.072,1.341.639-.64-1.34-3.071,3.121-1.223v-.9l-3.121-1.229,1.341-3.07-.826-.826-3.072,1.334-1.229-3.117h-.9l-1.223,3.117-3.075-1.334-.637.637,1.336,3.072-3.115,1.223v.9l3.114,1.227-1.334,3.074.83.825,3.068-1.339Zm.344-4.51a2.712,2.712,0,0,1-2.328-1.33,2.66,2.66,0,0,1-.378-1.373,2.706,2.706,0,1,1,2.706,2.7Zm0-4.874a2.174,2.174,0,0,0-2.172,2.172,2.128,2.128,0,0,0,.3,1.1,2.149,2.149,0,0,0,1.869,1.069,2.17,2.17,0,0,0,0-4.34Z" transform="translate(-240.178 -3243.904)" fill="#333"/>
      </g>
    </g>
    <g id="Group_959" data-name="Group 959" transform="translate(204.081 281.891)">
      <rect id="Rectangle_213" data-name="Rectangle 213" width="2.613" height="0.534" transform="translate(0 2.066) rotate(-52.245)" fill="#333"/>
    </g>
    <g id="Group_960" data-name="Group 960" transform="translate(184.137 281.891)">
      <rect id="Rectangle_214" data-name="Rectangle 214" width="0.534" height="2.613" transform="translate(0 0.327) rotate(-37.749)" fill="#333"/>
    </g>
    <g id="Group_961" data-name="Group 961" transform="translate(174.45 302.14)">
      <path id="Path_2304" data-name="Path 2304" d="M175.091,3346.581l-4.641,5.574h16.195l3.806-4.57.24-.289.007-.009.251-.3.036-.043.053-.065h0l.248-.3Zm11.3,5.04H171.59l3.753-4.506h14.805Z" transform="translate(-170.45 -3346.581)" fill="#333"/>
    </g>
    <g id="Group_962" data-name="Group 962" transform="translate(194.096 302.14)">
      <path id="Path_2305" data-name="Path 2305" d="M297.008,3346.581H280.76l.248.3.107.128.02.023.221.267.294.351,3.753,4.507h16.193Zm-11.356,5.04-3.753-4.506h14.855l3.706,4.506Z" transform="translate(-280.76 -3346.581)" fill="#333"/>
    </g>
  </g>
</svg>
