<svg xmlns="http://www.w3.org/2000/svg" width="26.928" height="29.624" viewBox="0 0 26.928 29.624">
  <g id="Group_22021" data-name="Group 22021" transform="translate(-131.75 -192.256)">
    <g id="Group_21740" data-name="Group 21740" transform="translate(-61.574 -86.391)">
      <path id="Path_30366" data-name="Path 30366" d="M222.665,329.43v5.752l-9.949,4.975-10.571-4.975v-5.694" transform="translate(-5.462 -32.136)" fill="none" stroke="#505050" stroke-linecap="round" stroke-linejoin="round" stroke-width="0.5"/>
      <path id="Path_30367" data-name="Path 30367" d="M202.145,314.431l10.571,4.353,9.949-4.353" transform="translate(-5.462 -22.578)" fill="none" stroke="#505050" stroke-linecap="round" stroke-linejoin="round" stroke-width="0.5"/>
      <line id="Line_2758" data-name="Line 2758" y2="11.815" transform="translate(207.254 296.206)" fill="none" stroke="#505050" stroke-linecap="round" stroke-linejoin="round" stroke-width="0.5"/>
      <path id="Path_30368" data-name="Path 30368" d="M207.254,318.784l-3.109,4.664-10.571-4.975,3.109-4.042" transform="translate(0 -22.578)" fill="none" stroke="#505050" stroke-linecap="round" stroke-linejoin="round" stroke-width="0.5"/>
      <line id="Line_2759" data-name="Line 2759" x2="7.107" y2="2.347" transform="translate(210.096 289.506)" fill="none" stroke="#505050" stroke-linecap="round" stroke-linejoin="round" stroke-width="0.5"/>
      <line id="Line_2760" data-name="Line 2760" y1="1.884" x2="5.743" transform="translate(196.683 289.969)" fill="none" stroke="#505050" stroke-linecap="round" stroke-linejoin="round" stroke-width="0.5"/>
      <path id="Path_30369" data-name="Path 30369" d="M241.235,314.431l2.8,4.042-9.327,4.664-3.42-4.353" transform="translate(-24.032 -22.578)" fill="none" stroke="#505050" stroke-linecap="round" stroke-linejoin="round" stroke-width="0.5"/>
      <line id="Line_2761" data-name="Line 2761" y1="0.377" x2="0.377" transform="translate(214.206 284.521)" fill="none" stroke="#505050" stroke-linecap="round" stroke-linejoin="round" stroke-width="0.5"/>
      <line id="Line_2762" data-name="Line 2762" y1="0.377" x2="0.377" transform="translate(216.241 282.485)" fill="none" stroke="#505050" stroke-linecap="round" stroke-linejoin="round" stroke-width="0.5"/>
      <line id="Line_2763" data-name="Line 2763" x1="0.377" y1="0.377" transform="translate(216.241 284.521)" fill="none" stroke="#505050" stroke-linecap="round" stroke-linejoin="round" stroke-width="0.5"/>
      <line id="Line_2764" data-name="Line 2764" x1="0.377" y1="0.377" transform="translate(214.206 282.485)" fill="none" stroke="#505050" stroke-linecap="round" stroke-linejoin="round" stroke-width="0.5"/>
      <line id="Line_2765" data-name="Line 2765" x1="0.377" y2="0.377" transform="translate(200.763 279)" fill="none" stroke="#505050" stroke-linecap="round" stroke-linejoin="round" stroke-width="0.5"/>
      <line id="Line_2766" data-name="Line 2766" x1="0.377" y2="0.377" transform="translate(198.727 281.035)" fill="none" stroke="#505050" stroke-linecap="round" stroke-linejoin="round" stroke-width="0.5"/>
      <line id="Line_2767" data-name="Line 2767" x2="0.377" y2="0.377" transform="translate(198.727 279)" fill="none" stroke="#505050" stroke-linecap="round" stroke-linejoin="round" stroke-width="0.5"/>
      <line id="Line_2768" data-name="Line 2768" x2="0.377" y2="0.377" transform="translate(200.763 281.035)" fill="none" stroke="#505050" stroke-linecap="round" stroke-linejoin="round" stroke-width="0.5"/>
      <line id="Line_2769" data-name="Line 2769" x2="0.104" y2="0.104" transform="translate(197.623 287.543)" fill="none" stroke="#505050" stroke-linecap="round" stroke-linejoin="round" stroke-width="0.5"/>
      <line id="Line_2770" data-name="Line 2770" x2="0.104" y2="0.104" transform="translate(196.141 286.062)" fill="none" stroke="#505050" stroke-linecap="round" stroke-linejoin="round" stroke-width="0.5"/>
      <line id="Line_2771" data-name="Line 2771" y1="0.104" x2="0.104" transform="translate(197.623 286.062)" fill="none" stroke="#505050" stroke-linecap="round" stroke-linejoin="round" stroke-width="0.5"/>
      <line id="Line_2772" data-name="Line 2772" y1="0.104" x2="0.104" transform="translate(196.141 287.543)" fill="none" stroke="#505050" stroke-linecap="round" stroke-linejoin="round" stroke-width="0.5"/>
      <path id="Path_30370" data-name="Path 30370" d="M221.813,298.716l2.6-7.4a3.848,3.848,0,0,0,1.864-6.644l-.987,2.808-1.826.728L222.5,286.5l.987-2.808a3.848,3.848,0,0,0-2.7,6.349l-2.534,7.208" transform="translate(-15.723 -2.989)" fill="none" stroke="#505050" stroke-linecap="round" stroke-linejoin="round" stroke-width="0.5"/>
      <line id="Line_2773" data-name="Line 2773" y1="2.704" x2="0.951" transform="translate(205.366 290.283)" fill="none" stroke="#505050" stroke-linecap="round" stroke-linejoin="round" stroke-width="0.5"/>
    </g>
  </g>
</svg>
