<svg id="contract_4_" data-name="contract (4)" xmlns="http://www.w3.org/2000/svg" width="31.925" height="35.961" viewBox="0 0 31.925 35.961">
  <g id="Group_21892" data-name="Group 21892" transform="translate(0 0)">
    <path id="Path_30681" data-name="Path 30681" d="M99.983,137.8H82.762a.529.529,0,0,0,0,1.058H99.983a.529.529,0,1,0,0-1.058Z" transform="translate(-78.475 -128.125)" fill="#636363"/>
    <path id="Path_30682" data-name="Path 30682" d="M82.762,86.615h8.611a.529.529,0,1,0,0-1.058H82.762a.529.529,0,0,0,0,1.058Z" transform="translate(-78.475 -79.548)" fill="#636363"/>
    <path id="Path_30683" data-name="Path 30683" d="M99.983,184.1H82.762a.529.529,0,0,0,0,1.058H99.983a.529.529,0,1,0,0-1.058Z" transform="translate(-78.475 -171.166)" fill="#636363"/>
    <path id="Path_30684" data-name="Path 30684" d="M36.94,32.285H31.429a1.642,1.642,0,0,1-1.641-1.641V2.7a1.643,1.643,0,0,1,1.641-1.641H47.306a1.132,1.132,0,0,1,.152.011v3.3a2.7,2.7,0,0,0,2.7,2.7h3.3a1.122,1.122,0,0,1,.011.152v9.009a.529.529,0,0,0,1.058,0V7.219a2.159,2.159,0,0,0-.636-1.536L48.842.636A2.158,2.158,0,0,0,47.306,0H31.429a2.7,2.7,0,0,0-2.7,2.7V30.645a2.7,2.7,0,0,0,2.7,2.7H36.94a.529.529,0,1,0,0-1.058ZM52.719,6.009H50.156a1.642,1.642,0,0,1-1.641-1.641V1.806Z" transform="translate(-28.73 0)" fill="#636363"/>
    <path id="Path_30685" data-name="Path 30685" d="M114.945,261.037l-4.482-7.566a1.16,1.16,0,0,0-1.59-.407l-1.09.646a2.071,2.071,0,0,0-.913,2.415,1.622,1.622,0,0,1-1.141-.012c-.861-.271-1.515-.816-2.6-.542-1.835.467-1.78.444-1.946.5a2.827,2.827,0,0,0-2.861-.353l-1.017.393a1.627,1.627,0,0,1-1.425-.119l-.277-.164a2.067,2.067,0,0,0-.986-2.119h0l-1.09-.646a1.162,1.162,0,0,0-1.589.407l-4.482,7.566a1.16,1.16,0,0,0,.407,1.589l1.09.646a2.055,2.055,0,0,0,1.051.288,2.083,2.083,0,0,0,1.13-.334l.227.134-.48.668a1.772,1.772,0,0,0,1.716,2.785,1.771,1.771,0,0,0,2.023,1.453,1.773,1.773,0,0,0,2.447,1.331,1.772,1.772,0,0,0,3.014.5l1.275.755a1.776,1.776,0,0,0,2.667-1.315l0,0a1.774,1.774,0,0,0,2.673-1.4,1.774,1.774,0,0,0,2.2-1.534,1.775,1.775,0,0,0,2.006-2.794l.7-.411a2.064,2.064,0,0,0,1.841-.132l1.09-.646A1.159,1.159,0,0,0,114.945,261.037Zm-25.451,1.325-1.09-.646a.1.1,0,0,1-.036-.14l4.482-7.566a.1.1,0,0,1,.14-.036l1.09.646A1.01,1.01,0,0,1,94.435,256l-3.557,6a1.011,1.011,0,0,1-1.384.354Zm2.412,3.283a.715.715,0,0,1-.164-1l.705-.982a.716.716,0,0,1,1.163.835l-.705.982A.717.717,0,0,1,91.907,265.645Zm2.022,1.452a.717.717,0,0,1-.164-1l.705-.982h0l.778-1.084a.711.711,0,0,1,.465-.289.721.721,0,0,1,.117-.01.716.716,0,0,1,.58,1.133l-1.483,2.066A.715.715,0,0,1,93.929,267.1Zm2.022,1.452a.717.717,0,0,1-.164-1h0l1.483-2.066a.716.716,0,1,1,1.163.835l-.659.918h0l-.824,1.148A.716.716,0,0,1,95.952,268.549Zm2.353.991a.717.717,0,0,1-.164-1l.494-.688a.716.716,0,0,1,1.163.835l-.493.687A.716.716,0,0,1,98.3,269.54Zm11.857-4.218a.717.717,0,0,1-.981.251L104.5,262.8a.529.529,0,1,0-.539.91l3.54,2.1h0a.716.716,0,0,1-.73,1.232l-3.542-2.1a.529.529,0,1,0-.539.91L105.3,267.4h0a.716.716,0,0,1-.731,1.232l-1.4-.829h0l-1.022-.605a.529.529,0,1,0-.539.91l1.022.605h0a.716.716,0,1,1-.73,1.232l-1.192-.706a1.773,1.773,0,0,0-1.191-2.712,1.772,1.772,0,0,0-1.935-2.373,1.773,1.773,0,0,0-3.009-.948,1.772,1.772,0,0,0-2.466-.633l-.242-.143,3.327-5.616.158.093a2.679,2.679,0,0,0,2.344.195l1.017-.393a1.561,1.561,0,0,1,1.478.032,2.368,2.368,0,0,0-.6,1.577v2.346a1.132,1.132,0,0,0,1.129,1.131h0a2.343,2.343,0,0,0,2.215-1.584l6.981,4.134a.716.716,0,0,1,.251.981ZM114,261.717l-1.09.646a1.011,1.011,0,0,1-1.384-.354l-1.667-2.814a.529.529,0,0,0-.91.539l1.667,2.814c.031.053.065.1.1.152l-.463.271a2.678,2.678,0,0,0-.27.183L102.8,258.9a.529.529,0,0,0-.8.455,1.351,1.351,0,0,1-.375,1.005,1.273,1.273,0,0,1-.905.375h0a.072.072,0,0,1-.072-.073v-2.346a1.316,1.316,0,0,1,.992-1.274l1.757-.445c.638-.161,1,.179,1.953.5a2.674,2.674,0,0,0,2.023-.033l.319.539a.529.529,0,0,0,.91-.539L107.968,256a1.01,1.01,0,0,1,.354-1.384l1.09-.646a.1.1,0,0,1,.14.036l4.482,7.566A.1.1,0,0,1,114,261.717Z" transform="translate(-83.182 -235.139)" fill="#636363"/>
  </g>
</svg>
