<?xml version="1.0" encoding="utf-8"?>
<!-- Generator: Adobe Illustrator 17.0.0, SVG Export Plug-In . SVG Version: 6.00 Build 0)  -->
<!DOCTYPE svg PUBLIC "-//W3C//DTD SVG 1.1//EN" "http://www.w3.org/Graphics/SVG/1.1/DTD/svg11.dtd">
<svg version="1.1" id="Layer_1" xmlns="http://www.w3.org/2000/svg" xmlns:xlink="http://www.w3.org/1999/xlink" x="0px" y="0px"
	 width="151.857px" height="18px" viewBox="0 0 151.857 18" enable-background="new 0 0 151.857 18" xml:space="preserve">
<g>
	<path d="M18.034,15.779c-2.91,0-14.163,0-15.7,0c-1.535,0-3.324-0.01-1.679-3.924c1.803-4.287,3.693-7.15,5.537-8.924
		c1.836-1.769,4.266-2.813,9.512-2.813c1.767,0,8.644,0,8.644,0c-1.492,1.061-3.145,2.065-3.145,2.065
		c-3.064,0-5.452,0.011-6.592,0.088c-1.139,0.08-2.21,0.266-3.586,1.563C9.85,4.942,8.903,6.27,6.781,11.142
		c-0.786,2.085-0.668,2.319,0.768,2.292c1.258-0.023,13.025,0,13.025,0L18.034,15.779z"/>
	<path d="M94.125,15.779l6.594-15.403c2.24,0,5,0,5,0c-1.08,0.887-2.002,2.868-4.399,9.707c-1.206,3.442-0.549,3.383,1.611,3.383
		c2.181,0,9.561,0.032,9.561,0.032c-0.709,0.765-2.396,2.281-2.396,2.281C103.964,15.779,94.125,15.779,94.125,15.779z"/>
	<path d="M151.857,0.218c0,0-2.304,10.054-3.627,15.561h-4.744c1.091-3.319,1.62-4.909,1.62-4.909
		c-2.857-0.088-9.224,0.853-10.806,1.492c-1.651,1.887-2.989,3.418-2.989,3.418c-0.538,0-1.423,0-2.145,0c-0.168,0-0.34,0-0.515,0
		c-6.15,0-15.456,0-15.456,0l6.591-15.403c2.242,0,5.001,0,5.001,0c-1.079,0.887-2,2.868-4.397,9.707
		c-1.207,3.442-0.551,3.383,1.611,3.383c1.019,0,3.169,0.006,5.173,0.015c1.946-1.954,8.302-8.504,10.815-10.274
		C140.658,1.32,144.94-0.45,151.857,0.218z M136.899,9.033c0.532,0,2.165-0.069,8.768-0.176c0,0,1.005-3.324,1.855-6.093
		C142.595,2.553,139.624,5.8,136.899,9.033z"/>
	<path d="M26.096,16.175c-3.082-0.465-4.312-1.876-3.477-5.305c0.739-3.04,3.139-6.82,4.453-8.136
		c1.314-1.316,2.018-1.897,5.217-2.464c3.246-0.576,8.976-0.086,11.422,0.164c2.541,0.261,3.885,2.235,3.411,4.406
		c-0.475,3.081-2.09,6.354-2.87,7.915c-0.533,1.151-1.653,3.227-7.398,3.539C32.294,16.538,28.622,16.357,26.096,16.175z
		 M39.847,11.519c0.592-1.147,1.738-3.551,2.812-6.362c1.063-2.786-0.925-2.921-2.183-2.994c-1.256-0.075-4.141-0.149-6.176,0.036
		c-2.035,0.185-3.071,1-3.699,2.034c-0.628,1.036-2.589,4.329-3.254,6.917c-0.666,2.588,0.538,2.824,2.885,2.922
		c1.443,0.059,4.66-0.038,5.769-0.072C38.534,13.895,39.255,12.665,39.847,11.519z"/>
	<path d="M74.442,16.175c-3.082-0.465-4.312-1.876-3.478-5.305c0.74-3.04,3.14-6.82,4.454-8.136
		c1.314-1.316,2.018-1.897,5.216-2.464c3.246-0.576,8.976-0.086,11.422,0.164c2.542,0.261,3.885,2.235,3.41,4.406
		c-0.473,3.081-2.088,6.354-2.869,7.915c-0.535,1.151-1.655,3.227-7.397,3.539C80.638,16.538,76.967,16.357,74.442,16.175z
		 M88.191,11.519c0.593-1.147,1.74-3.551,2.812-6.362c1.065-2.786-0.924-2.921-2.181-2.994c-1.259-0.075-4.144-0.149-6.178,0.036
		c-2.033,0.185-3.069,1-3.698,2.034c-0.629,1.036-2.588,4.329-3.254,6.917c-0.667,2.588,0.538,2.824,2.884,2.922
		c1.444,0.059,4.661-0.038,5.77-0.072C86.878,13.895,87.601,12.665,88.191,11.519z"/>
	<path d="M50.676,15.783h-5.07l6.967-15.668c5.424,0,9.548,0,11.159,0.157c1.612,0.158,3.566,0.24,4.922,1.399
		c1.142,0.977,1.493,2.005,1.178,3.892c-0.314,1.887-0.648,2.691-1.356,3.359c-0.707,0.668-1.041,0.746-1.63,0.746
		c-0.589,0-4.735-0.018-4.735-0.018c1.592,2.101,6.013,5.992,9.609,8.349c-3.596-0.176-6.838-0.205-6.838-0.205
		c-3.851-3.301-7.526-8.617-8.43-10.109c4.323,0.118,5.05,0.059,5.994,0.059c0.942,0,1.867,0.06,2.299-0.807
		c0.432-0.863,0.982-2.474,0.982-2.945c0-0.473-0.217-1.416-1.671-1.494c-1.454-0.08-6.15-0.118-7.053-0.118
		c-0.904,0-1.12-0.256-1.473,0.647C55.175,3.934,50.676,15.783,50.676,15.783z"/>
</g>
</svg>
