<?xml version="1.0" encoding="utf-8"?>
<!-- Generator: Adobe Illustrator 23.0.3, SVG Export Plug-In . SVG Version: 6.00 Build 0)  -->
<svg version="1.1" id="Layer_1" xmlns="http://www.w3.org/2000/svg" xmlns:xlink="http://www.w3.org/1999/xlink" x="0px" y="0px"
	 viewBox="0 0 116.2 15.2" style="enable-background:new 0 0 116.2 15.2;" xml:space="preserve">
<style type="text/css">
	.st0{fill:#231F20;}
	.st1{clip-path:url(#SVGID_2_);fill:#231F20;}
</style>
<g>
	<path class="st0" d="M31.6,8.4h-3.3c-0.1,0-0.1-0.1-0.1-0.1V6.4c0-0.1,0.1-0.1,0.1-0.1h3.3c0.1,0,1,0,1,1.1
		C32.6,8.5,31.6,8.4,31.6,8.4L31.6,8.4z M31.7,12.5c0.2,0.3,1.5,2.6,1.5,2.6c0,0.1,0.1,0.1,0.2,0.1h5.1c0.1,0,0.1,0,0.1-0.1l-2.4-4
		c0-0.1-0.1-0.2-0.1-0.2v-0.2c0-0.1,0-0.1,0.1-0.2c0,0,1.9-0.8,1.9-3.1c0-2.8-2.8-4.1-4.8-4.1c-0.4,0-9.9-0.1-9.9-0.1
		c-0.1,0-0.1,0.1-0.1,0.1V15c0,0.1,0.1,0.1,0.1,0.1h4.7c0.1,0,0.1-0.1,0.1-0.1v-3.5c0-0.1,0.1-0.1,0.1-0.1h0.9
		C30.4,11.4,31.2,11.8,31.7,12.5L31.7,12.5z"/>
	<path class="st0" d="M17.7,11.7c0,0-1.6,0-3.7,0c-3.7,0-7-1.3-7-4.2c0-2.9,3-4.1,7.6-4.1c4.5,0,6.4,1.2,6.4,1.2
		c0.1,0,0.1,0,0.1-0.1V0.4c0-0.1-0.1-0.1-0.1-0.1c0,0-7.9-0.3-9.2-0.3S0,0.4,0,7.4c0,7.2,9.8,7.6,11.2,7.7c1.3,0.1,6.5,0.1,6.5,0.1
		c0.1,0,4.6,0,4.6,0c0.1,0,0.1-0.1,0.1-0.1v-4.2c0-0.1,0-0.2,0-0.2V8c0-0.1-0.1-0.1-0.1-0.1h-9.4c-0.1,0-0.1,0.1-0.1,0.1v2.6
		c0,0.1,0.1,0.1,0.1,0.1h3.3c0.9,0,1.6,0.5,1.6,0.7c0,0.1,0,0.2,0,0.2C17.8,11.7,17.8,11.7,17.7,11.7L17.7,11.7z"/>
	<g>
		<defs>
			<rect id="SVGID_1_" y="0" width="116.2" height="15.2"/>
		</defs>
		<clipPath id="SVGID_2_">
			<use xlink:href="#SVGID_1_"  style="overflow:visible;"/>
		</clipPath>
		<path class="st1" d="M49.2,9.6c0,0.1,0,0.1-0.1,0.1h-1.7c-0.1,0-0.1-0.1-0.1-0.1V9.6c0-0.1,0-0.2,0.1-0.2L47.9,8C48,8,48,8,48.1,8
			h0.2c0.1,0,0.1,0,0.2,0.1l0.7,1.3C49.2,9.4,49.2,9.5,49.2,9.6L49.2,9.6L49.2,9.6z M50.6,3.4h-4.5c-0.1,0-0.2,0-0.3,0.2l-6.5,11.5
			c0,0.1,0,0.1,0.1,0.1h5.1c0.1,0,0.1,0,0.2-0.1l1.3-2.5c0-0.1,0.1-0.1,0.2-0.1c0,0,2.6,0,3.4,0c1.3,0,2.1,1.4,2.1,1.4
			c0,0.1,0.7,1.2,0.7,1.2c0,0.1,0.1,0.1,0.2,0.1h5c0.1,0,0.1,0,0.1-0.1L50.9,3.6C50.8,3.5,50.8,3.4,50.6,3.4L50.6,3.4z"/>
		<path class="st1" d="M107.9,9.6c0,0.1,0,0.1-0.1,0.1H106c-0.1,0-0.1-0.1-0.1-0.1V9.6c0-0.1,0-0.2,0.1-0.2l0.6-1.3
			c0-0.1,0.1-0.1,0.2-0.1h0.2c0.1,0,0.1,0,0.2,0.1l0.7,1.3C107.8,9.4,107.9,9.5,107.9,9.6L107.9,9.6L107.9,9.6z M109.3,3.4h-4.5
			c-0.1,0-0.2,0-0.3,0.2l-6.5,11.5c0,0.1,0,0.1,0.1,0.1h5.1c0.1,0,0.1,0,0.2-0.1l1.3-2.5c0-0.1,0.1-0.1,0.2-0.1c0,0,2.6,0,3.4,0
			c1.3,0,2.1,1.4,2.1,1.4c0,0.1,0.7,1.2,0.7,1.2c0,0.1,0.1,0.1,0.2,0.1h5c0.1,0,0.1,0,0.1-0.1l-6.7-11.5
			C109.4,3.5,109.4,3.4,109.3,3.4L109.3,3.4z"/>
	</g>
	<path class="st0" d="M79.3,4.8l3.3,6c0,0.1,0.1,0.1,0.2,0.1H83c0.1,0,0.1,0,0.2-0.1L87,3.5c0-0.1,0.1-0.1,0.2-0.1h4.5
		c0.1,0,0.1,0,0.1,0.1l-6.4,11.6c0,0.1-0.1,0.1-0.2,0.1h-4.9c-0.1,0-0.1,0-0.2-0.1L73.7,3.5c0-0.1,0-0.1,0.1-0.1h2.8
		C77.9,3.4,78.7,3.6,79.3,4.8L79.3,4.8z"/>
	<path class="st0" d="M97.3,15.1c0,0.1-0.1,0.1-0.1,0.1h-4.8c-0.1,0-0.1-0.1-0.1-0.1V3.5c0-0.1,0.1-0.1,0.1-0.1h4.8
		c0.1,0,0.1,0.1,0.1,0.1V15.1L97.3,15.1z"/>
	<path class="st0" d="M63.2,4.3c0.5,0.5,4.2,4.3,4.2,4.3c0,0,0.1,0.1,0.2,0.1h0.2c0.1,0,0.1-0.1,0.1-0.1v-5c0-0.1,0.1-0.1,0.1-0.1
		H73c0.1,0,0.1,0.1,0.1,0.1v11.6c0,0.1-0.1,0.1-0.1,0.1h-4.5c-0.1,0-0.2,0-0.2-0.1c0,0-4.1-4.3-4.1-4.3c-0.5-0.5-1.1-0.4-1.1-0.4
		c-0.1,0-0.1,0.1-0.1,0.1v4.6c0,0.1-0.1,0.1-0.1,0.1h-4.6c-0.1,0-0.1-0.1-0.1-0.1V3.5c0-0.1,0.1-0.1,0.1-0.1h2.4
		C61.5,3.4,62.5,3.6,63.2,4.3L63.2,4.3z"/>
</g>
</svg>
