<?xml version="1.0" encoding="utf-8"?>
<!-- Generator: Adobe Illustrator 17.0.0, SVG Export Plug-In . SVG Version: 6.00 Build 0)  -->
<!DOCTYPE svg PUBLIC "-//W3C//DTD SVG 1.1//EN" "http://www.w3.org/Graphics/SVG/1.1/DTD/svg11.dtd">
<svg version="1.1" id="Layer_1" xmlns="http://www.w3.org/2000/svg" xmlns:xlink="http://www.w3.org/1999/xlink" x="0px" y="0px"
	 width="109.714px" height="18px" viewBox="0 0 109.714 18" enable-background="new 0 0 109.714 18" xml:space="preserve">
<g>
	<g>
		<polygon stroke="#000000" stroke-miterlimit="10" points="27.238,17.991 33.62,17.991 36.34,0 29.959,0 		"/>
		<path stroke="#000000" stroke-miterlimit="10" d="M58.296,13.691H46.126C46.27,12.744,48.2,0.087,48.206,0.054L48.213,0h-5.961
			l-2.72,17.991l15.949,0.002c0.058,0,0.369-0.02,0.63-0.403l2.271-3.537c0.022-0.03,0.126-0.183,0.074-0.287
			C58.43,13.716,58.375,13.691,58.296,13.691z"/>
		<path stroke="#000000" stroke-miterlimit="10" d="M72.856,13.404h-3.833c-0.834,0-1.462-0.249-1.872-0.739
			c-0.754-0.907-0.497-2.353-0.495-2.37l1.549-10.241L68.213,0h-5.866l-1.633,10.802c-0.008,0.025-0.756,2.479,0.775,5.028
			c0.045,0.089,1.116,2.169,2.439,2.169L72.278,18c0.074,0,0.322-0.03,0.411-0.422l0.524-3.864
			C73.213,13.711,73.209,13.404,72.856,13.404z"/>
		<polygon stroke="#000000" stroke-miterlimit="10" points="74.722,17.938 74.713,17.991 80.698,17.991 83.411,0.054 83.42,0 
			77.434,0 		"/>
		<path stroke="#000000" stroke-miterlimit="10" d="M94.323,0.02L94.309,0h-6.857c-0.165,0-0.261,0.038-0.293,0.115
			c-0.05,0.118,0.084,0.259,0.095,0.268l12.286,17.587l0.014,0.02h6.771c0.166,0,0.271-0.043,0.312-0.128
			c0.069-0.143-0.082-0.335-0.098-0.354L94.323,0.02z"/>
		<path stroke="#000000" stroke-miterlimit="10" d="M109.703,0.115C109.67,0.038,109.575,0,109.411,0h-7.104l-3.364,3.194
			l3.102,4.298l0.032,0.044l7.527-7.146C109.62,0.374,109.753,0.233,109.703,0.115z"/>
		<path stroke="#000000" stroke-miterlimit="10" d="M83.908,17.506c-0.016,0.022-0.168,0.213-0.1,0.357
			c0.041,0.085,0.146,0.128,0.312,0.128h7.016l3.633-3.443l-3.165-4.329L83.908,17.506z"/>
		<polygon stroke="#000000" stroke-miterlimit="10" points="0,17.991 6.311,17.991 9.031,0 2.721,0 		"/>
		<polygon stroke="#000000" stroke-miterlimit="10" points="16.758,6.992 10.094,6.992 9.461,11.278 16.11,11.278 15.095,17.991 
			21.429,17.991 24.15,0 17.816,0 		"/>
	</g>
</g>
</svg>
