<?xml version="1.0" encoding="utf-8"?>
<!-- Generator: Adobe Illustrator 17.0.0, SVG Export Plug-In . SVG Version: 6.00 Build 0)  -->
<!DOCTYPE svg PUBLIC "-//W3C//DTD SVG 1.1//EN" "http://www.w3.org/Graphics/SVG/1.1/DTD/svg11.dtd">
<svg version="1.1" id="Layer_1" xmlns="http://www.w3.org/2000/svg" xmlns:xlink="http://www.w3.org/1999/xlink" x="0px" y="0px"
	 width="112.756px" height="18px" viewBox="0 0 112.756 18" enable-background="new 0 0 112.756 18" xml:space="preserve">
<g>
	<g>
		<path d="M41.71,3.377l-6.375,0.006l-5.461,13.209l7.676-0.002c0,0,1.077-0.046,1.8-0.788c0.607-0.623,1.14-1.954,1.14-1.954
			L43.6,6.306c0,0,0.367-0.965-0.09-1.881C43.239,3.882,42.869,3.548,41.71,3.377z M36.51,13.532l-2.042,0.009l3.001-7.271
			c0,0,1.592,0.015,2.193,0.006c0.581-0.008,0.492,0.566,0.433,0.721c-0.063,0.168-2.554,6.174-2.554,6.174
			C37.351,13.551,36.51,13.532,36.51,13.532z"/>
		<path d="M110.529,10.503c0.352-0.838,1.717-4.178,1.717-4.178s0.635-1.575,0.292-2.425c-0.23-0.57-1.212-0.52-1.212-0.52
			l-7.038-0.001l-5.473,13.213l3.192,0l1.812-4.36l3.699,5.763l3.353-0.003l-3.616-5.816c0,0,1.145,0.008,2.124-0.334
			C109.86,11.672,110.23,11.214,110.529,10.503z M108.99,6.879c0,0-0.528,1.366-0.773,1.842c-0.193,0.374-0.729,0.392-0.729,0.392
			L105.09,9.11l1.171-2.821l2.266,0.003c0,0,0.441,0.025,0.497,0.139C109.114,6.617,108.99,6.879,108.99,6.879z"/>
		<path d="M89.758,10.144c-0.376-0.33-1.248-0.989-2.308-1.659c-0.362-0.229-0.702-0.434-0.871-0.664
			c-0.168-0.228-0.158-0.577-0.1-0.823c0.208-0.885,1.367-0.722,1.367-0.722l4.429,0.002l1.184-2.901l-6.665,0.008
			c-0.145,0-1.304,0.052-1.843,0.589c-0.826,0.824-1.272,2.346-1.848,3.801c-0.54,1.365,0.143,1.697,0.391,1.946
			c0.248,0.249,1.936,1.229,2.474,1.576c0.579,0.373,0.967,0.498,0.883,1.284c-0.094,0.886-0.809,0.96-0.809,0.96L80.7,13.538
			l-1.263,3.056l7.286-0.01c1.395,0,2.155-0.986,2.408-1.517c0.196-0.411,0.734-1.782,1.096-2.64
			C90.58,11.591,90.414,10.72,89.758,10.144z"/>
		<polygon points="80.763,3.384 75.309,16.581 78.501,16.581 83.967,3.384 		"/>
		<path d="M76.16,3.377c0,0-2.492,5.978-2.575,6.226c-0.083,0.248-1.157,2.816-1.38,3.31c-0.138,0.304-0.602,0.993-0.933,1.075
			c-0.331,0.082-0.853,0.09-1.184,0.048c-0.331-0.042-1.135,0.101-0.603-1.182c0.531-1.278,3.93-9.477,3.93-9.477l-3.063,0l-4,9.704
			c0,0-0.924,2.055-0.376,2.884c0.624,0.944,2.746,0.912,3.367,0.954c0.621,0.042,3.27,0.052,3.977-0.472
			c0.281-0.209,0.628-0.503,0.876-0.841c0.389-0.531,0.615-1.158,0.615-1.158l4.557-11.071L76.16,3.377z"/>
		<path d="M50.844,13.538l-1.18-0.002c0,0-0.881-0.059-0.661-0.989c0.061-0.253,0.208-0.564,0.382-0.99
			C50.022,9.99,52.6,3.76,52.6,3.76s0.154-0.38,0.534-0.38c0.416,0,4.993,0.003,4.993,0.003l1.288-3.333l-6.063,0
			c0,0-3.262-0.059-4.031,2.217l-4.168,10.112c0,0-0.499,1.129-0.306,2.076c0.183,0.899,0.84,1.729,1.935,1.954
			c1.036,0.212,2.569,0.185,2.569,0.185l4.222-0.002l1.288-3.053L50.844,13.538z"/>
		<path d="M30.551,3.393L27.89,9.77l-0.396-6.375l-3.287,0l-4.049,9.818l-0.47-9.831l-2.98-0.004l-7.672,9.737l-4.16-0.006
			l5.403-13.056L6.322,0.056l-6.147,14.88c0,0-0.684,1.654,0.655,1.654l9.691,0.001l1.949-2.547l4.429,0.002l0.121,2.547
			l5.128-0.001l2.558-6.278l0.486,6.273l3.253,0.004L33.92,3.39L30.551,3.393z M14.378,11.421l2.281-3.056l0.12,3.059L14.378,11.421
			z"/>
		<polygon points="93.854,13.535 94.847,11.14 100.066,11.139 101.084,8.636 95.873,8.637 96.852,6.275 102.305,6.279 
			103.513,3.382 94.754,3.382 89.296,16.583 98.234,16.592 99.493,13.539 		"/>
	</g>
	<g>
		<path d="M66.093,10.508C66.445,9.67,67.81,6.33,67.81,6.33s0.635-1.575,0.292-2.425c-0.23-0.57-1.212-0.524-1.212-0.524
			l-7.038,0.003l-5.473,13.213l3.192,0l1.812-4.36L63.082,18l3.353-0.003l-3.616-5.816c0,0,1.145,0.008,2.124-0.335
			C65.424,11.677,65.795,11.219,66.093,10.508z M64.555,6.884c0,0-0.528,1.366-0.773,1.842c-0.193,0.374-0.728,0.392-0.728,0.392
			l-2.398-0.003l1.172-2.821l2.266,0.003c0,0,0.441,0.025,0.497,0.139C64.678,6.621,64.555,6.884,64.555,6.884z"/>
	</g>
</g>
</svg>
