<?xml version="1.0" encoding="utf-8"?>
<!-- Generator: Adobe Illustrator 17.0.0, SVG Export Plug-In . SVG Version: 6.00 Build 0)  -->
<!DOCTYPE svg PUBLIC "-//W3C//DTD SVG 1.1//EN" "http://www.w3.org/Graphics/SVG/1.1/DTD/svg11.dtd">
<svg version="1.1" id="Layer_1" xmlns="http://www.w3.org/2000/svg" xmlns:xlink="http://www.w3.org/1999/xlink" x="0px" y="0px"
	 width="113.195px" height="18px" viewBox="0 0 113.195 18" enable-background="new 0 0 113.195 18" xml:space="preserve">
<g>
	<path d="M59.632,1.244l1.684,16.727c0.795,0.007,1.954,0.03,3.819,0.03c0.905,0,2.15-0.015,2.45-0.031
		c2.07-0.107,3.367-0.222,5.21-1.669c2.434-1.91,13.463-11.412,17.447-14.843L83.18,1.914c-3.438,3.055-11.939,10.534-13.494,11.787
		c-0.424,0.342-1.081,0.938-1.899,1.241c-0.157,0.058-0.465,0.138-0.701,0.152c-0.256,0.016-0.556,0.01-0.556,0.01L65.346,1.264
		L59.632,1.244z"/>
	<path d="M90.656,11.314c5.411-3.744,10.337-6.475,13.572-8.203V3.11c0.315-0.168,0.591-0.287,0.867-0.373l1.004-0.313l-2.676,9.944
		H89.132L90.656,11.314z M105.938,0.053L105.938,0.053c-2.359,0.132-3.29,0.442-5.266,1.443c-3.579,1.813-11.811,6.801-15.116,9.063
		c-1.287,0.881-1.979,1.671-2.314,2.642c-0.175,0.507-0.483,1.555-0.612,2c1.423,0,20.17-0.001,20.17-0.001s-0.54,2.002-0.755,2.8
		c1.107,0,4.941,0,5.636,0c0.155-0.622,0.691-2.772,0.691-2.772s3.287-0.002,3.99-0.002c0.144-0.547,0.533-2.012,0.757-2.859
		c-1.006-0.001-4.128-0.001-4.128-0.001s2.862-11.091,3.182-12.331C110.682-0.014,107.124-0.014,105.938,0.053z"/>
	<path d="M39.504,10.273c1.154-1.066,4.744-4.403,5.698-5.153c1.23-0.967,1.624-1.084,2.724-1.173
		c0.581-0.047,2.636-0.025,2.636-0.025l0.528,6.253L39.504,10.273z M9.649,8.45l1.646-4.414c0.322,0,10.688-0.021,11.088-0.021
		c0.401,0,2.031,0,2.655,0.07c0.404,0.046,0.759,0.186,0.922,0.458c0.215,0.359,0.039,0.939-0.121,1.283
		c-0.238,0.51-0.903,1.437-1.3,1.771c-0.595,0.5-1.546,0.762-2.827,0.796C19.284,8.457,9.649,8.45,9.649,8.45z M57.386,17.985
		L55.677,1.258c0,0-1.374-0.036-1.726-0.036c0,0-3.214-0.048-5.999,0.034c-2.497,0.075-3.617,0.202-4.674,0.749
		c-1.626,0.841-5.098,4.09-5.948,4.867c-3.665,3.35-9.824,9.022-10.273,9.414c-1.601-0.246-2.392-0.693-3.188-1.112
		c-1.371-0.722-6.499-4.11-6.499-4.11c1.21,0,6.394,0.058,7.874-0.148c1.922-0.269,3.231-0.72,4.469-2.083
		c1.263-1.39,1.622-2.848,1.796-3.85c0.098-0.566,0.104-1.518-0.492-2.205c-0.815-0.938-2.131-1.2-2.788-1.291
		c-1.655-0.231-2.893-0.288-5.162-0.288c-0.572,0-11.341-0.002-15.327,0.014C6.295,1.219,6.275,1.235,5.849,2.355
		C5.461,3.375,0,17.985,0,17.985h6.076l2.946-7.866c0,0,6.737,5.008,9.431,6.866c1.555,1.073,2.198,0.912,5.735,1.01
		c0.577,0.015,7.096-0.01,7.096-0.01l5.384-5.192l14.576-0.087l0.524,5.278L57.386,17.985z"/>
</g>
</svg>
